<?xml version="1.0" encoding="utf-8" standalone="no"?>
<!DOCTYPE svg PUBLIC "-//W3C//DTD SVG 1.1//EN"
  "http://www.w3.org/Graphics/SVG/1.1/DTD/svg11.dtd">
<svg xmlns:xlink="http://www.w3.org/1999/xlink" width="576pt" height="288pt" viewBox="0 0 576 288" xmlns="http://www.w3.org/2000/svg" version="1.1">
 <metadata>
  <rdf:RDF xmlns:dc="http://purl.org/dc/elements/1.1/" xmlns:cc="http://creativecommons.org/ns#" xmlns:rdf="http://www.w3.org/1999/02/22-rdf-syntax-ns#">
   <cc:Work>
    <dc:type rdf:resource="http://purl.org/dc/dcmitype/StillImage"/>
    <dc:date>2024-04-03T14:45:45.049360</dc:date>
    <dc:format>image/svg+xml</dc:format>
    <dc:creator>
     <cc:Agent>
      <dc:title>Matplotlib v3.8.0, https://matplotlib.org/</dc:title>
     </cc:Agent>
    </dc:creator>
   </cc:Work>
  </rdf:RDF>
 </metadata>
 <defs>
  <style type="text/css">*{stroke-linejoin: round; stroke-linecap: butt}</style>
 </defs>
 <g id="figure_1">
  <g id="patch_1">
   <path d="M 0 288 
L 576 288 
L 576 0 
L 0 0 
z
" style="fill: #ffffff"/>
  </g>
  <g id="axes_1">
   <g id="patch_2">
    <path d="M 72 256.32 
L 518.4 256.32 
L 518.4 34.56 
L 72 34.56 
z
" style="fill: #ffffff"/>
   </g>
   <g id="matplotlib.axis_1">
    <g id="xtick_1">
     <g id="line2d_1">
      <defs>
       <path id="m2d6227f4e5" d="M 0 0 
L 0 3.5 
" style="stroke: #000000; stroke-width: 0.8"/>
      </defs>
      <g>
       <use xlink:href="#m2d6227f4e5" x="92.290909" y="256.32" style="stroke: #000000; stroke-width: 0.8"/>
      </g>
     </g>
     <g id="text_1">
      <!-- 0 -->
      <g transform="translate(89.109659 270.918437) scale(0.1 -0.1)">
       <defs>
        <path id="DejaVuSans-30" d="M 2034 4250 
Q 1547 4250 1301 3770 
Q 1056 3291 1056 2328 
Q 1056 1369 1301 889 
Q 1547 409 2034 409 
Q 2525 409 2770 889 
Q 3016 1369 3016 2328 
Q 3016 3291 2770 3770 
Q 2525 4250 2034 4250 
z
M 2034 4750 
Q 2819 4750 3233 4129 
Q 3647 3509 3647 2328 
Q 3647 1150 3233 529 
Q 2819 -91 2034 -91 
Q 1250 -91 836 529 
Q 422 1150 422 2328 
Q 422 3509 836 4129 
Q 1250 4750 2034 4750 
z
" transform="scale(0.015625)"/>
       </defs>
       <use xlink:href="#DejaVuSans-30"/>
      </g>
     </g>
    </g>
    <g id="xtick_2">
     <g id="line2d_2">
      <g>
       <use xlink:href="#m2d6227f4e5" x="179.93116" y="256.32" style="stroke: #000000; stroke-width: 0.8"/>
      </g>
     </g>
     <g id="text_2">
      <!-- 5000 -->
      <g transform="translate(167.20616 270.918437) scale(0.1 -0.1)">
       <defs>
        <path id="DejaVuSans-35" d="M 691 4666 
L 3169 4666 
L 3169 4134 
L 1269 4134 
L 1269 2991 
Q 1406 3038 1543 3061 
Q 1681 3084 1819 3084 
Q 2600 3084 3056 2656 
Q 3513 2228 3513 1497 
Q 3513 744 3044 326 
Q 2575 -91 1722 -91 
Q 1428 -91 1123 -41 
Q 819 9 494 109 
L 494 744 
Q 775 591 1075 516 
Q 1375 441 1709 441 
Q 2250 441 2565 725 
Q 2881 1009 2881 1497 
Q 2881 1984 2565 2268 
Q 2250 2553 1709 2553 
Q 1456 2553 1204 2497 
Q 953 2441 691 2322 
L 691 4666 
z
" transform="scale(0.015625)"/>
       </defs>
       <use xlink:href="#DejaVuSans-35"/>
       <use xlink:href="#DejaVuSans-30" x="63.623047"/>
       <use xlink:href="#DejaVuSans-30" x="127.246094"/>
       <use xlink:href="#DejaVuSans-30" x="190.869141"/>
      </g>
     </g>
    </g>
    <g id="xtick_3">
     <g id="line2d_3">
      <g>
       <use xlink:href="#m2d6227f4e5" x="267.571411" y="256.32" style="stroke: #000000; stroke-width: 0.8"/>
      </g>
     </g>
     <g id="text_3">
      <!-- 10000 -->
      <g transform="translate(251.665161 270.918437) scale(0.1 -0.1)">
       <defs>
        <path id="DejaVuSans-31" d="M 794 531 
L 1825 531 
L 1825 4091 
L 703 3866 
L 703 4441 
L 1819 4666 
L 2450 4666 
L 2450 531 
L 3481 531 
L 3481 0 
L 794 0 
L 794 531 
z
" transform="scale(0.015625)"/>
       </defs>
       <use xlink:href="#DejaVuSans-31"/>
       <use xlink:href="#DejaVuSans-30" x="63.623047"/>
       <use xlink:href="#DejaVuSans-30" x="127.246094"/>
       <use xlink:href="#DejaVuSans-30" x="190.869141"/>
       <use xlink:href="#DejaVuSans-30" x="254.492188"/>
      </g>
     </g>
    </g>
    <g id="xtick_4">
     <g id="line2d_4">
      <g>
       <use xlink:href="#m2d6227f4e5" x="355.211662" y="256.32" style="stroke: #000000; stroke-width: 0.8"/>
      </g>
     </g>
     <g id="text_4">
      <!-- 15000 -->
      <g transform="translate(339.305412 270.918437) scale(0.1 -0.1)">
       <use xlink:href="#DejaVuSans-31"/>
       <use xlink:href="#DejaVuSans-35" x="63.623047"/>
       <use xlink:href="#DejaVuSans-30" x="127.246094"/>
       <use xlink:href="#DejaVuSans-30" x="190.869141"/>
       <use xlink:href="#DejaVuSans-30" x="254.492188"/>
      </g>
     </g>
    </g>
    <g id="xtick_5">
     <g id="line2d_5">
      <g>
       <use xlink:href="#m2d6227f4e5" x="442.851913" y="256.32" style="stroke: #000000; stroke-width: 0.8"/>
      </g>
     </g>
     <g id="text_5">
      <!-- 20000 -->
      <g transform="translate(426.945663 270.918437) scale(0.1 -0.1)">
       <defs>
        <path id="DejaVuSans-32" d="M 1228 531 
L 3431 531 
L 3431 0 
L 469 0 
L 469 531 
Q 828 903 1448 1529 
Q 2069 2156 2228 2338 
Q 2531 2678 2651 2914 
Q 2772 3150 2772 3378 
Q 2772 3750 2511 3984 
Q 2250 4219 1831 4219 
Q 1534 4219 1204 4116 
Q 875 4013 500 3803 
L 500 4441 
Q 881 4594 1212 4672 
Q 1544 4750 1819 4750 
Q 2544 4750 2975 4387 
Q 3406 4025 3406 3419 
Q 3406 3131 3298 2873 
Q 3191 2616 2906 2266 
Q 2828 2175 2409 1742 
Q 1991 1309 1228 531 
z
" transform="scale(0.015625)"/>
       </defs>
       <use xlink:href="#DejaVuSans-32"/>
       <use xlink:href="#DejaVuSans-30" x="63.623047"/>
       <use xlink:href="#DejaVuSans-30" x="127.246094"/>
       <use xlink:href="#DejaVuSans-30" x="190.869141"/>
       <use xlink:href="#DejaVuSans-30" x="254.492188"/>
      </g>
     </g>
    </g>
    <g id="text_6">
     <!-- Time from word start (samples) -->
     <g transform="translate(216.357031 284.596563) scale(0.1 -0.1)">
      <defs>
       <path id="DejaVuSans-54" d="M -19 4666 
L 3928 4666 
L 3928 4134 
L 2272 4134 
L 2272 0 
L 1638 0 
L 1638 4134 
L -19 4134 
L -19 4666 
z
" transform="scale(0.015625)"/>
       <path id="DejaVuSans-69" d="M 603 3500 
L 1178 3500 
L 1178 0 
L 603 0 
L 603 3500 
z
M 603 4863 
L 1178 4863 
L 1178 4134 
L 603 4134 
L 603 4863 
z
" transform="scale(0.015625)"/>
       <path id="DejaVuSans-6d" d="M 3328 2828 
Q 3544 3216 3844 3400 
Q 4144 3584 4550 3584 
Q 5097 3584 5394 3201 
Q 5691 2819 5691 2113 
L 5691 0 
L 5113 0 
L 5113 2094 
Q 5113 2597 4934 2840 
Q 4756 3084 4391 3084 
Q 3944 3084 3684 2787 
Q 3425 2491 3425 1978 
L 3425 0 
L 2847 0 
L 2847 2094 
Q 2847 2600 2669 2842 
Q 2491 3084 2119 3084 
Q 1678 3084 1418 2786 
Q 1159 2488 1159 1978 
L 1159 0 
L 581 0 
L 581 3500 
L 1159 3500 
L 1159 2956 
Q 1356 3278 1631 3431 
Q 1906 3584 2284 3584 
Q 2666 3584 2933 3390 
Q 3200 3197 3328 2828 
z
" transform="scale(0.015625)"/>
       <path id="DejaVuSans-65" d="M 3597 1894 
L 3597 1613 
L 953 1613 
Q 991 1019 1311 708 
Q 1631 397 2203 397 
Q 2534 397 2845 478 
Q 3156 559 3463 722 
L 3463 178 
Q 3153 47 2828 -22 
Q 2503 -91 2169 -91 
Q 1331 -91 842 396 
Q 353 884 353 1716 
Q 353 2575 817 3079 
Q 1281 3584 2069 3584 
Q 2775 3584 3186 3129 
Q 3597 2675 3597 1894 
z
M 3022 2063 
Q 3016 2534 2758 2815 
Q 2500 3097 2075 3097 
Q 1594 3097 1305 2825 
Q 1016 2553 972 2059 
L 3022 2063 
z
" transform="scale(0.015625)"/>
       <path id="DejaVuSans-20" transform="scale(0.015625)"/>
       <path id="DejaVuSans-66" d="M 2375 4863 
L 2375 4384 
L 1825 4384 
Q 1516 4384 1395 4259 
Q 1275 4134 1275 3809 
L 1275 3500 
L 2222 3500 
L 2222 3053 
L 1275 3053 
L 1275 0 
L 697 0 
L 697 3053 
L 147 3053 
L 147 3500 
L 697 3500 
L 697 3744 
Q 697 4328 969 4595 
Q 1241 4863 1831 4863 
L 2375 4863 
z
" transform="scale(0.015625)"/>
       <path id="DejaVuSans-72" d="M 2631 2963 
Q 2534 3019 2420 3045 
Q 2306 3072 2169 3072 
Q 1681 3072 1420 2755 
Q 1159 2438 1159 1844 
L 1159 0 
L 581 0 
L 581 3500 
L 1159 3500 
L 1159 2956 
Q 1341 3275 1631 3429 
Q 1922 3584 2338 3584 
Q 2397 3584 2469 3576 
Q 2541 3569 2628 3553 
L 2631 2963 
z
" transform="scale(0.015625)"/>
       <path id="DejaVuSans-6f" d="M 1959 3097 
Q 1497 3097 1228 2736 
Q 959 2375 959 1747 
Q 959 1119 1226 758 
Q 1494 397 1959 397 
Q 2419 397 2687 759 
Q 2956 1122 2956 1747 
Q 2956 2369 2687 2733 
Q 2419 3097 1959 3097 
z
M 1959 3584 
Q 2709 3584 3137 3096 
Q 3566 2609 3566 1747 
Q 3566 888 3137 398 
Q 2709 -91 1959 -91 
Q 1206 -91 779 398 
Q 353 888 353 1747 
Q 353 2609 779 3096 
Q 1206 3584 1959 3584 
z
" transform="scale(0.015625)"/>
       <path id="DejaVuSans-77" d="M 269 3500 
L 844 3500 
L 1563 769 
L 2278 3500 
L 2956 3500 
L 3675 769 
L 4391 3500 
L 4966 3500 
L 4050 0 
L 3372 0 
L 2619 2869 
L 1863 0 
L 1184 0 
L 269 3500 
z
" transform="scale(0.015625)"/>
       <path id="DejaVuSans-64" d="M 2906 2969 
L 2906 4863 
L 3481 4863 
L 3481 0 
L 2906 0 
L 2906 525 
Q 2725 213 2448 61 
Q 2172 -91 1784 -91 
Q 1150 -91 751 415 
Q 353 922 353 1747 
Q 353 2572 751 3078 
Q 1150 3584 1784 3584 
Q 2172 3584 2448 3432 
Q 2725 3281 2906 2969 
z
M 947 1747 
Q 947 1113 1208 752 
Q 1469 391 1925 391 
Q 2381 391 2643 752 
Q 2906 1113 2906 1747 
Q 2906 2381 2643 2742 
Q 2381 3103 1925 3103 
Q 1469 3103 1208 2742 
Q 947 2381 947 1747 
z
" transform="scale(0.015625)"/>
       <path id="DejaVuSans-73" d="M 2834 3397 
L 2834 2853 
Q 2591 2978 2328 3040 
Q 2066 3103 1784 3103 
Q 1356 3103 1142 2972 
Q 928 2841 928 2578 
Q 928 2378 1081 2264 
Q 1234 2150 1697 2047 
L 1894 2003 
Q 2506 1872 2764 1633 
Q 3022 1394 3022 966 
Q 3022 478 2636 193 
Q 2250 -91 1575 -91 
Q 1294 -91 989 -36 
Q 684 19 347 128 
L 347 722 
Q 666 556 975 473 
Q 1284 391 1588 391 
Q 1994 391 2212 530 
Q 2431 669 2431 922 
Q 2431 1156 2273 1281 
Q 2116 1406 1581 1522 
L 1381 1569 
Q 847 1681 609 1914 
Q 372 2147 372 2553 
Q 372 3047 722 3315 
Q 1072 3584 1716 3584 
Q 2034 3584 2315 3537 
Q 2597 3491 2834 3397 
z
" transform="scale(0.015625)"/>
       <path id="DejaVuSans-74" d="M 1172 4494 
L 1172 3500 
L 2356 3500 
L 2356 3053 
L 1172 3053 
L 1172 1153 
Q 1172 725 1289 603 
Q 1406 481 1766 481 
L 2356 481 
L 2356 0 
L 1766 0 
Q 1100 0 847 248 
Q 594 497 594 1153 
L 594 3053 
L 172 3053 
L 172 3500 
L 594 3500 
L 594 4494 
L 1172 4494 
z
" transform="scale(0.015625)"/>
       <path id="DejaVuSans-61" d="M 2194 1759 
Q 1497 1759 1228 1600 
Q 959 1441 959 1056 
Q 959 750 1161 570 
Q 1363 391 1709 391 
Q 2188 391 2477 730 
Q 2766 1069 2766 1631 
L 2766 1759 
L 2194 1759 
z
M 3341 1997 
L 3341 0 
L 2766 0 
L 2766 531 
Q 2569 213 2275 61 
Q 1981 -91 1556 -91 
Q 1019 -91 701 211 
Q 384 513 384 1019 
Q 384 1609 779 1909 
Q 1175 2209 1959 2209 
L 2766 2209 
L 2766 2266 
Q 2766 2663 2505 2880 
Q 2244 3097 1772 3097 
Q 1472 3097 1187 3025 
Q 903 2953 641 2809 
L 641 3341 
Q 956 3463 1253 3523 
Q 1550 3584 1831 3584 
Q 2591 3584 2966 3190 
Q 3341 2797 3341 1997 
z
" transform="scale(0.015625)"/>
       <path id="DejaVuSans-28" d="M 1984 4856 
Q 1566 4138 1362 3434 
Q 1159 2731 1159 2009 
Q 1159 1288 1364 580 
Q 1569 -128 1984 -844 
L 1484 -844 
Q 1016 -109 783 600 
Q 550 1309 550 2009 
Q 550 2706 781 3412 
Q 1013 4119 1484 4856 
L 1984 4856 
z
" transform="scale(0.015625)"/>
       <path id="DejaVuSans-70" d="M 1159 525 
L 1159 -1331 
L 581 -1331 
L 581 3500 
L 1159 3500 
L 1159 2969 
Q 1341 3281 1617 3432 
Q 1894 3584 2278 3584 
Q 2916 3584 3314 3078 
Q 3713 2572 3713 1747 
Q 3713 922 3314 415 
Q 2916 -91 2278 -91 
Q 1894 -91 1617 61 
Q 1341 213 1159 525 
z
M 3116 1747 
Q 3116 2381 2855 2742 
Q 2594 3103 2138 3103 
Q 1681 3103 1420 2742 
Q 1159 2381 1159 1747 
Q 1159 1113 1420 752 
Q 1681 391 2138 391 
Q 2594 391 2855 752 
Q 3116 1113 3116 1747 
z
" transform="scale(0.015625)"/>
       <path id="DejaVuSans-6c" d="M 603 4863 
L 1178 4863 
L 1178 0 
L 603 0 
L 603 4863 
z
" transform="scale(0.015625)"/>
       <path id="DejaVuSans-29" d="M 513 4856 
L 1013 4856 
Q 1481 4119 1714 3412 
Q 1947 2706 1947 2009 
Q 1947 1309 1714 600 
Q 1481 -109 1013 -844 
L 513 -844 
Q 928 -128 1133 580 
Q 1338 1288 1338 2009 
Q 1338 2731 1133 3434 
Q 928 4138 513 4856 
z
" transform="scale(0.015625)"/>
      </defs>
      <use xlink:href="#DejaVuSans-54"/>
      <use xlink:href="#DejaVuSans-69" x="57.958984"/>
      <use xlink:href="#DejaVuSans-6d" x="85.742188"/>
      <use xlink:href="#DejaVuSans-65" x="183.154297"/>
      <use xlink:href="#DejaVuSans-20" x="244.677734"/>
      <use xlink:href="#DejaVuSans-66" x="276.464844"/>
      <use xlink:href="#DejaVuSans-72" x="311.669922"/>
      <use xlink:href="#DejaVuSans-6f" x="350.533203"/>
      <use xlink:href="#DejaVuSans-6d" x="411.714844"/>
      <use xlink:href="#DejaVuSans-20" x="509.126953"/>
      <use xlink:href="#DejaVuSans-77" x="540.914062"/>
      <use xlink:href="#DejaVuSans-6f" x="622.701172"/>
      <use xlink:href="#DejaVuSans-72" x="683.882812"/>
      <use xlink:href="#DejaVuSans-64" x="723.246094"/>
      <use xlink:href="#DejaVuSans-20" x="786.722656"/>
      <use xlink:href="#DejaVuSans-73" x="818.509766"/>
      <use xlink:href="#DejaVuSans-74" x="870.609375"/>
      <use xlink:href="#DejaVuSans-61" x="909.818359"/>
      <use xlink:href="#DejaVuSans-72" x="971.097656"/>
      <use xlink:href="#DejaVuSans-74" x="1012.210938"/>
      <use xlink:href="#DejaVuSans-20" x="1051.419922"/>
      <use xlink:href="#DejaVuSans-28" x="1083.207031"/>
      <use xlink:href="#DejaVuSans-73" x="1122.220703"/>
      <use xlink:href="#DejaVuSans-61" x="1174.320312"/>
      <use xlink:href="#DejaVuSans-6d" x="1235.599609"/>
      <use xlink:href="#DejaVuSans-70" x="1333.011719"/>
      <use xlink:href="#DejaVuSans-6c" x="1396.488281"/>
      <use xlink:href="#DejaVuSans-65" x="1424.271484"/>
      <use xlink:href="#DejaVuSans-73" x="1485.794922"/>
      <use xlink:href="#DejaVuSans-29" x="1537.894531"/>
     </g>
    </g>
   </g>
   <g id="matplotlib.axis_2">
    <g id="ytick_1">
     <g id="line2d_6">
      <defs>
       <path id="m9c108f01d2" d="M 0 0 
L -3.5 0 
" style="stroke: #000000; stroke-width: 0.8"/>
      </defs>
      <g>
       <use xlink:href="#m9c108f01d2" x="72" y="230.501445" style="stroke: #000000; stroke-width: 0.8"/>
      </g>
     </g>
     <g id="text_7">
      <!-- −0.50 -->
      <g transform="translate(34.354687 234.300664) scale(0.1 -0.1)">
       <defs>
        <path id="DejaVuSans-2212" d="M 678 2272 
L 4684 2272 
L 4684 1741 
L 678 1741 
L 678 2272 
z
" transform="scale(0.015625)"/>
        <path id="DejaVuSans-2e" d="M 684 794 
L 1344 794 
L 1344 0 
L 684 0 
L 684 794 
z
" transform="scale(0.015625)"/>
       </defs>
       <use xlink:href="#DejaVuSans-2212"/>
       <use xlink:href="#DejaVuSans-30" x="83.789062"/>
       <use xlink:href="#DejaVuSans-2e" x="147.412109"/>
       <use xlink:href="#DejaVuSans-35" x="179.199219"/>
       <use xlink:href="#DejaVuSans-30" x="242.822266"/>
      </g>
     </g>
    </g>
    <g id="ytick_2">
     <g id="line2d_7">
      <g>
       <use xlink:href="#m9c108f01d2" x="72" y="201.05181" style="stroke: #000000; stroke-width: 0.8"/>
      </g>
     </g>
     <g id="text_8">
      <!-- −0.25 -->
      <g transform="translate(34.354687 204.851029) scale(0.1 -0.1)">
       <use xlink:href="#DejaVuSans-2212"/>
       <use xlink:href="#DejaVuSans-30" x="83.789062"/>
       <use xlink:href="#DejaVuSans-2e" x="147.412109"/>
       <use xlink:href="#DejaVuSans-32" x="179.199219"/>
       <use xlink:href="#DejaVuSans-35" x="242.822266"/>
      </g>
     </g>
    </g>
    <g id="ytick_3">
     <g id="line2d_8">
      <g>
       <use xlink:href="#m9c108f01d2" x="72" y="171.602176" style="stroke: #000000; stroke-width: 0.8"/>
      </g>
     </g>
     <g id="text_9">
      <!-- 0.00 -->
      <g transform="translate(42.734375 175.401394) scale(0.1 -0.1)">
       <use xlink:href="#DejaVuSans-30"/>
       <use xlink:href="#DejaVuSans-2e" x="63.623047"/>
       <use xlink:href="#DejaVuSans-30" x="95.410156"/>
       <use xlink:href="#DejaVuSans-30" x="159.033203"/>
      </g>
     </g>
    </g>
    <g id="ytick_4">
     <g id="line2d_9">
      <g>
       <use xlink:href="#m9c108f01d2" x="72" y="142.152541" style="stroke: #000000; stroke-width: 0.8"/>
      </g>
     </g>
     <g id="text_10">
      <!-- 0.25 -->
      <g transform="translate(42.734375 145.95176) scale(0.1 -0.1)">
       <use xlink:href="#DejaVuSans-30"/>
       <use xlink:href="#DejaVuSans-2e" x="63.623047"/>
       <use xlink:href="#DejaVuSans-32" x="95.410156"/>
       <use xlink:href="#DejaVuSans-35" x="159.033203"/>
      </g>
     </g>
    </g>
    <g id="ytick_5">
     <g id="line2d_10">
      <g>
       <use xlink:href="#m9c108f01d2" x="72" y="112.702906" style="stroke: #000000; stroke-width: 0.8"/>
      </g>
     </g>
     <g id="text_11">
      <!-- 0.50 -->
      <g transform="translate(42.734375 116.502125) scale(0.1 -0.1)">
       <use xlink:href="#DejaVuSans-30"/>
       <use xlink:href="#DejaVuSans-2e" x="63.623047"/>
       <use xlink:href="#DejaVuSans-35" x="95.410156"/>
       <use xlink:href="#DejaVuSans-30" x="159.033203"/>
      </g>
     </g>
    </g>
    <g id="ytick_6">
     <g id="line2d_11">
      <g>
       <use xlink:href="#m9c108f01d2" x="72" y="83.253271" style="stroke: #000000; stroke-width: 0.8"/>
      </g>
     </g>
     <g id="text_12">
      <!-- 0.75 -->
      <g transform="translate(42.734375 87.05249) scale(0.1 -0.1)">
       <defs>
        <path id="DejaVuSans-37" d="M 525 4666 
L 3525 4666 
L 3525 4397 
L 1831 0 
L 1172 0 
L 2766 4134 
L 525 4134 
L 525 4666 
z
" transform="scale(0.015625)"/>
       </defs>
       <use xlink:href="#DejaVuSans-30"/>
       <use xlink:href="#DejaVuSans-2e" x="63.623047"/>
       <use xlink:href="#DejaVuSans-37" x="95.410156"/>
       <use xlink:href="#DejaVuSans-35" x="159.033203"/>
      </g>
     </g>
    </g>
    <g id="ytick_7">
     <g id="line2d_12">
      <g>
       <use xlink:href="#m9c108f01d2" x="72" y="53.803636" style="stroke: #000000; stroke-width: 0.8"/>
      </g>
     </g>
     <g id="text_13">
      <!-- 1.00 -->
      <g transform="translate(42.734375 57.602855) scale(0.1 -0.1)">
       <use xlink:href="#DejaVuSans-31"/>
       <use xlink:href="#DejaVuSans-2e" x="63.623047"/>
       <use xlink:href="#DejaVuSans-30" x="95.410156"/>
       <use xlink:href="#DejaVuSans-30" x="159.033203"/>
      </g>
     </g>
    </g>
    <g id="text_14">
     <!-- Normalized amplitude/HNR -->
     <g transform="translate(28.275 213.310313) rotate(-90) scale(0.1 -0.1)">
      <defs>
       <path id="DejaVuSans-4e" d="M 628 4666 
L 1478 4666 
L 3547 763 
L 3547 4666 
L 4159 4666 
L 4159 0 
L 3309 0 
L 1241 3903 
L 1241 0 
L 628 0 
L 628 4666 
z
" transform="scale(0.015625)"/>
       <path id="DejaVuSans-7a" d="M 353 3500 
L 3084 3500 
L 3084 2975 
L 922 459 
L 3084 459 
L 3084 0 
L 275 0 
L 275 525 
L 2438 3041 
L 353 3041 
L 353 3500 
z
" transform="scale(0.015625)"/>
       <path id="DejaVuSans-75" d="M 544 1381 
L 544 3500 
L 1119 3500 
L 1119 1403 
Q 1119 906 1312 657 
Q 1506 409 1894 409 
Q 2359 409 2629 706 
Q 2900 1003 2900 1516 
L 2900 3500 
L 3475 3500 
L 3475 0 
L 2900 0 
L 2900 538 
Q 2691 219 2414 64 
Q 2138 -91 1772 -91 
Q 1169 -91 856 284 
Q 544 659 544 1381 
z
M 1991 3584 
L 1991 3584 
z
" transform="scale(0.015625)"/>
       <path id="DejaVuSans-2f" d="M 1625 4666 
L 2156 4666 
L 531 -594 
L 0 -594 
L 1625 4666 
z
" transform="scale(0.015625)"/>
       <path id="DejaVuSans-48" d="M 628 4666 
L 1259 4666 
L 1259 2753 
L 3553 2753 
L 3553 4666 
L 4184 4666 
L 4184 0 
L 3553 0 
L 3553 2222 
L 1259 2222 
L 1259 0 
L 628 0 
L 628 4666 
z
" transform="scale(0.015625)"/>
       <path id="DejaVuSans-52" d="M 2841 2188 
Q 3044 2119 3236 1894 
Q 3428 1669 3622 1275 
L 4263 0 
L 3584 0 
L 2988 1197 
Q 2756 1666 2539 1819 
Q 2322 1972 1947 1972 
L 1259 1972 
L 1259 0 
L 628 0 
L 628 4666 
L 2053 4666 
Q 2853 4666 3247 4331 
Q 3641 3997 3641 3322 
Q 3641 2881 3436 2590 
Q 3231 2300 2841 2188 
z
M 1259 4147 
L 1259 2491 
L 2053 2491 
Q 2509 2491 2742 2702 
Q 2975 2913 2975 3322 
Q 2975 3731 2742 3939 
Q 2509 4147 2053 4147 
L 1259 4147 
z
" transform="scale(0.015625)"/>
      </defs>
      <use xlink:href="#DejaVuSans-4e"/>
      <use xlink:href="#DejaVuSans-6f" x="74.804688"/>
      <use xlink:href="#DejaVuSans-72" x="135.986328"/>
      <use xlink:href="#DejaVuSans-6d" x="175.349609"/>
      <use xlink:href="#DejaVuSans-61" x="272.761719"/>
      <use xlink:href="#DejaVuSans-6c" x="334.041016"/>
      <use xlink:href="#DejaVuSans-69" x="361.824219"/>
      <use xlink:href="#DejaVuSans-7a" x="389.607422"/>
      <use xlink:href="#DejaVuSans-65" x="442.097656"/>
      <use xlink:href="#DejaVuSans-64" x="503.621094"/>
      <use xlink:href="#DejaVuSans-20" x="567.097656"/>
      <use xlink:href="#DejaVuSans-61" x="598.884766"/>
      <use xlink:href="#DejaVuSans-6d" x="660.164062"/>
      <use xlink:href="#DejaVuSans-70" x="757.576172"/>
      <use xlink:href="#DejaVuSans-6c" x="821.052734"/>
      <use xlink:href="#DejaVuSans-69" x="848.835938"/>
      <use xlink:href="#DejaVuSans-74" x="876.619141"/>
      <use xlink:href="#DejaVuSans-75" x="915.828125"/>
      <use xlink:href="#DejaVuSans-64" x="979.207031"/>
      <use xlink:href="#DejaVuSans-65" x="1042.683594"/>
      <use xlink:href="#DejaVuSans-2f" x="1104.207031"/>
      <use xlink:href="#DejaVuSans-48" x="1137.898438"/>
      <use xlink:href="#DejaVuSans-4e" x="1213.09375"/>
      <use xlink:href="#DejaVuSans-52" x="1287.898438"/>
     </g>
    </g>
   </g>
   <g id="line2d_13">
    <path d="M 92.290909 171.602176 
L 161.842212 171.602176 
L 161.85974 171.281346 
L 161.947381 171.477177 
L 162.122661 171.410511 
L 162.227829 171.218847 
L 162.262885 171.360512 
L 162.420638 171.489677 
L 162.455694 171.52301 
L 162.525806 171.452177 
L 162.718615 171.49801 
L 162.841311 171.552176 
L 163.174344 171.927172 
L 163.2094 171.881339 
L 163.244456 172.010504 
L 163.279512 172.048003 
L 163.332096 171.960504 
L 163.612545 171.677175 
L 163.770298 171.689674 
L 164.068275 171.418845 
L 164.261083 171.868839 
L 164.366251 171.748007 
L 164.418836 171.752174 
L 164.453892 171.81884 
L 164.664228 172.07717 
L 164.716812 172.098003 
L 164.73434 172.05217 
L 164.962205 171.714674 
L 165.155014 171.702174 
L 165.382878 171.389678 
L 165.417934 171.473011 
L 165.488047 171.518843 
L 165.523103 171.427178 
L 165.856136 171.143848 
L 165.99636 171.21468 
L 166.171641 171.385512 
L 166.224225 171.285513 
L 166.346921 171.223014 
L 166.364449 171.243847 
L 166.417033 171.318846 
L 166.574786 171.518843 
L 166.62737 171.49801 
L 166.679954 171.568843 
L 166.855235 171.560509 
L 167.030515 171.414678 
L 167.083099 171.356345 
L 167.153211 171.410511 
L 167.398604 171.664675 
L 167.556357 171.902172 
L 167.626469 172.006337 
L 167.643997 171.948005 
L 167.801749 171.502177 
L 167.88939 171.360512 
L 167.959502 171.473011 
L 167.994558 171.602176 
L 168.047142 171.443844 
L 168.099726 171.306346 
L 168.204894 171.218847 
L 168.222422 171.22718 
L 168.275007 171.135515 
L 168.555455 170.773019 
L 168.590512 170.818852 
L 168.87096 171.027183 
L 168.958601 170.95635 
L 169.063769 170.910517 
L 169.098825 170.989683 
L 169.799947 172.085503 
L 170.04534 172.206335 
L 170.22062 172.002171 
L 170.238148 172.031337 
L 170.378373 172.127169 
L 170.518597 171.977171 
L 170.571181 172.035504 
L 170.76399 172.160502 
L 170.85163 172.08967 
L 170.956798 171.773007 
L 171.009382 171.939671 
L 171.184663 172.164669 
L 171.307359 172.277167 
L 171.324887 172.239668 
L 171.430056 172.085503 
L 171.465112 172.135502 
L 171.57028 171.852172 
L 171.640392 172.068836 
L 171.65792 172.081336 
L 171.692976 172.010504 
L 171.763089 172.068836 
L 171.990953 171.581342 
L 172.183762 171.748007 
L 172.20129 171.714674 
L 172.359042 171.52301 
L 172.37657 171.539676 
L 172.516795 171.435511 
L 172.551851 171.410511 
L 172.604435 171.48551 
L 173.112748 171.585509 
L 173.410725 171.977171 
L 173.673646 172.198002 
L 173.691174 172.152169 
L 173.81387 172.043837 
L 174.024207 172.110503 
L 174.041735 172.085503 
L 174.199488 171.889672 
L 174.339712 171.610509 
L 174.427352 171.27718 
L 174.497464 171.406345 
L 174.812969 171.010516 
L 175.005778 170.948017 
L 175.146002 170.714687 
L 175.181058 170.718853 
L 175.198586 170.789686 
L 175.286227 170.985517 
L 175.338811 170.935517 
L 175.391395 170.918851 
L 175.408923 170.973017 
L 175.584204 171.298013 
L 175.724428 171.352179 
L 175.777012 171.248013 
L 175.829596 171.335512 
L 175.847124 171.348012 
L 175.88218 171.273013 
L 175.969821 171.202181 
L 176.004877 171.243847 
L 176.42555 171.814673 
L 176.443078 171.789673 
L 176.705999 171.623009 
L 176.898807 171.735507 
L 176.916335 171.706341 
L 177.091616 171.439678 
L 177.266896 171.402178 
L 177.424649 171.248013 
L 177.512289 171.206347 
L 177.547345 171.248013 
L 177.68757 171.293846 
L 177.705098 171.243847 
L 177.792738 171.173014 
L 177.827794 171.21468 
L 177.932962 171.289679 
L 178.125771 171.593842 
L 178.195883 171.702174 
L 178.353635 171.918838 
L 178.476332 171.764674 
L 178.511388 171.810506 
L 178.563972 171.723007 
L 178.616556 170.585522 
L 178.721725 166.735569 
L 178.774309 168.00222 
L 178.967117 173.868814 
L 179.037229 172.993825 
L 179.230038 172.068836 
L 179.247566 172.181335 
L 179.317678 173.377154 
L 179.370262 172.697995 
L 179.510487 170.198026 
L 179.563071 170.406357 
L 179.703295 173.277155 
L 179.755879 172.010504 
L 179.93116 164.843926 
L 179.983744 165.710582 
L 180.264193 172.693829 
L 180.334305 172.902159 
L 180.421945 174.697971 
L 180.64981 180.097904 
L 180.667338 180.07707 
L 180.73745 180.052071 
L 180.754978 180.072904 
L 180.790034 180.210402 
L 180.825091 180.018738 
L 181.263292 173.302154 
L 181.403516 170.664687 
L 181.4561 170.948017 
L 181.526213 171.918838 
L 181.596325 171.481344 
L 181.754077 170.356358 
L 181.806661 169.539701 
L 181.859246 170.123027 
L 181.876774 170.18136 
L 181.91183 169.918863 
L 181.946886 169.568867 
L 181.981942 170.248026 
L 182.069582 173.047991 
L 182.122166 171.964671 
L 182.314975 167.868889 
L 182.332503 167.939721 
L 182.507783 170.523022 
L 182.648008 170.010529 
L 182.700592 168.781377 
L 182.753176 167.123064 
L 182.840816 167.423061 
L 182.945985 168.293883 
L 182.998569 168.856376 
L 183.051153 168.214718 
L 183.156321 167.468893 
L 183.208905 167.535559 
L 183.243961 167.343895 
L 183.296546 167.656391 
L 183.401714 169.010541 
L 183.454298 169.581367 
L 183.489354 168.981375 
L 183.52441 168.585546 
L 183.576994 169.08554 
L 183.594522 169.181372 
L 183.647107 168.914709 
L 183.664635 168.889709 
L 183.699691 168.977208 
L 183.734747 169.210539 
L 183.769803 168.985541 
L 183.857443 167.398061 
L 183.910027 168.160552 
L 184.190476 171.093849 
L 184.208004 171.202181 
L 184.225532 171.018849 
L 184.313173 168.860543 
L 184.365757 169.87303 
L 184.400813 170.327191 
L 184.470925 169.781365 
L 184.576093 171.427178 
L 184.646205 170.839685 
L 184.78643 168.714711 
L 184.891598 168.973042 
L 184.926654 168.868876 
L 184.96171 169.081373 
L 185.014295 169.585534 
L 185.066879 169.164706 
L 185.101935 169.056374 
L 185.119463 169.202205 
L 185.207103 171.102182 
L 185.259687 170.493856 
L 185.347328 169.502202 
L 185.382384 169.839697 
L 185.50508 172.989658 
L 185.59272 172.622996 
L 185.627776 172.489665 
L 185.68036 172.610496 
L 185.750473 173.39382 
L 185.803057 174.19381 
L 185.855641 173.710483 
L 185.925753 172.802161 
L 185.960809 173.14799 
L 186.04845 175.318796 
L 186.101034 174.756303 
L 186.206202 173.877147 
L 186.258786 173.956313 
L 186.328898 173.93548 
L 186.346426 173.89798 
L 186.469123 172.497998 
L 186.521707 173.36882 
L 186.644403 174.635471 
L 186.696987 174.347975 
L 186.7671 173.67715 
L 186.802156 174.110478 
L 186.85474 174.506306 
L 186.907324 174.222976 
L 186.94238 174.018812 
L 186.977436 174.460473 
L 187.03002 175.164631 
L 187.100133 174.814636 
L 187.117661 174.835469 
L 187.240357 177.068774 
L 187.327997 176.439616 
L 187.345525 176.368783 
L 187.363053 176.485448 
L 187.608446 179.377079 
L 187.625974 179.356246 
L 187.696086 178.781253 
L 187.731142 179.181248 
L 187.818783 180.522898 
L 187.871367 179.810407 
L 187.941479 179.122916 
L 187.994063 179.556244 
L 188.011591 179.618743 
L 188.046647 179.393746 
L 188.081703 179.214581 
L 188.116759 179.381246 
L 188.327096 181.039559 
L 188.344624 181.072891 
L 188.362152 180.981226 
L 188.519905 179.627076 
L 188.554961 179.702075 
L 188.607545 180.227069 
L 188.695185 182.01038 
L 188.730241 181.272889 
L 189.55406 140.444229 
L 189.606644 140.815057 
L 189.887092 145.090004 
L 190.097429 152.848241 
L 190.53563 182.197878 
L 190.851135 192.910245 
L 190.903719 192.097755 
L 191.674954 168.55638 
L 191.79765 169.139706 
L 191.902818 169.348037 
L 191.97293 169.927196 
L 192.200795 172.602163 
L 192.358548 177.356271 
L 192.5163 179.360413 
L 192.656524 180.472899 
L 192.726637 180.010405 
L 192.831805 179.072916 
L 192.884389 179.518744 
L 192.919445 179.772908 
L 192.972029 179.318747 
L 193.375174 173.185489 
L 193.427759 173.047991 
L 193.462815 173.118823 
L 193.760792 175.668792 
L 194.67225 203.76011 
L 194.689778 203.705944 
L 194.75989 199.610162 
L 194.882587 176.068787 
L 195.145508 128.090215 
L 195.425956 95.469786 
L 195.548653 82.311616 
L 195.601237 84.874084 
L 195.794045 126.261071 
L 196.389999 224.172357 
L 196.407527 224.589018 
L 196.460111 223.472366 
L 196.582808 210.572526 
L 196.933369 174.622971 
L 197.248874 138.765083 
L 197.318986 141.756712 
L 198.09022 215.709962 
L 198.17786 211.697512 
L 198.931566 150.114942 
L 199.019207 152.669077 
L 199.790441 195.076884 
L 199.843025 193.8269 
L 200.298754 177.706267 
L 200.33381 177.868765 
L 200.438979 180.135403 
L 200.754484 195.95604 
L 200.982348 208.747548 
L 201.034932 207.051736 
L 201.122573 191.831091 
L 201.455606 108.382126 
L 201.841223 76.557521 
L 201.911335 83.174105 
L 202.104143 141.640047 
L 202.349536 196.385202 
L 202.735153 220.343238 
L 202.770209 218.843256 
L 202.875378 200.364319 
L 203.208411 135.002629 
L 203.225939 135.335959 
L 203.331107 142.873365 
L 203.892005 208.03089 
L 204.067285 226.738992 
L 204.084813 226.638993 
L 204.154925 223.243202 
L 204.663239 170.41469 
L 204.943688 143.410858 
L 204.978744 144.402513 
L 205.136496 158.402339 
L 205.469529 182.852036 
L 205.767506 192.956077 
L 205.82009 192.439417 
L 205.925258 187.731142 
L 206.328404 165.668916 
L 206.345932 165.827247 
L 206.521212 170.389691 
L 206.714021 179.952072 
L 207.187278 218.059933 
L 207.292446 217.893268 
L 207.34503 216.280788 
L 207.432671 202.639291 
L 207.853344 74.632545 
L 207.923456 78.003336 
L 208.133793 91.265672 
L 208.168849 91.057341 
L 208.203905 91.6865 
L 208.274017 99.153074 
L 208.449298 155.95237 
L 208.747274 230.576444 
L 208.799859 227.280652 
L 209.483453 128.302713 
L 209.571093 120.886138 
L 209.623677 124.16943 
L 209.781429 160.406481 
L 210.096934 220.226573 
L 210.13199 220.630734 
L 210.167047 220.14324 
L 210.237159 219.043254 
L 210.289743 219.876577 
L 210.394911 222.06405 
L 210.429967 221.734887 
L 210.517608 216.847448 
L 210.692888 188.414467 
L 210.973337 143.835853 
L 211.043449 146.352489 
L 211.832211 199.951824 
L 211.93738 195.893541 
L 212.340525 160.343982 
L 212.410637 161.468968 
L 212.91895 179.947905 
L 213.357152 204.318437 
L 213.427264 203.689278 
L 213.532432 201.660136 
L 213.655129 197.389356 
L 213.725241 198.518508 
L 213.742769 198.743506 
L 213.777825 198.181013 
L 213.847937 189.097792 
L 214.00569 119.452822 
L 214.216026 73.599224 
L 214.251082 71.828413 
L 214.286138 73.903387 
L 214.443891 110.144604 
L 214.619171 124.24443 
L 214.72434 131.602672 
L 214.952204 171.160514 
L 215.162541 220.251572 
L 215.215125 218.105766 
L 215.390406 188.822795 
L 215.653326 144.994172 
L 215.670854 145.556665 
L 216.284336 188.156137 
L 216.547257 227.67648 
L 216.564785 227.559815 
L 216.634897 223.818195 
L 216.810178 195.768543 
L 217.038042 172.3355 
L 217.300963 166.42724 
L 217.406131 163.723107 
L 217.458715 162.877284 
L 217.493772 163.556442 
L 217.633996 174.081311 
L 217.949501 197.597687 
L 218.002085 196.222704 
L 218.142309 182.914535 
L 218.440286 161.252304 
L 218.527926 160.152318 
L 218.580511 160.439814 
L 218.650623 160.310649 
L 218.685679 160.110651 
L 218.755791 160.189817 
L 218.843431 160.77731 
L 218.9486 164.264767 
L 219.386801 188.906128 
L 219.491969 188.264469 
L 219.737362 185.443671 
L 219.789946 186.085329 
L 220.175563 198.931003 
L 220.315788 203.914275 
L 220.350844 202.993453 
L 220.420956 192.414417 
L 220.824101 69.990936 
L 220.894213 77.645007 
L 221.27983 136.956772 
L 221.542751 172.218835 
L 221.8232 220.859898 
L 221.840728 221.084895 
L 221.858256 220.847398 
L 221.928368 214.118315 
L 222.349041 140.352563 
L 222.401626 142.090042 
L 222.54185 162.827284 
L 222.822299 191.264432 
L 223.207916 216.234955 
L 223.225444 216.205789 
L 223.313084 211.689178 
L 223.558477 181.947881 
L 223.80387 160.398148 
L 223.856454 161.302303 
L 224.049262 172.447998 
L 224.207015 180.164569 
L 224.224543 180.072904 
L 224.242071 180.010405 
L 224.277127 180.231235 
L 224.434879 180.693729 
L 224.557576 179.714575 
L 224.715328 177.777099 
L 224.820497 173.014658 
L 225.136001 156.544029 
L 225.153529 156.406531 
L 225.188586 156.706527 
L 225.293754 162.064794 
L 225.539147 173.597984 
L 225.731955 177.618768 
L 225.784539 176.972942 
L 225.819595 176.760445 
L 225.854651 177.18544 
L 226.310381 190.481108 
L 226.345437 190.206112 
L 226.433077 189.53112 
L 226.468133 189.906115 
L 226.555773 193.535237 
L 226.923863 213.230826 
L 226.941391 212.793331 
L 227.011503 203.080952 
L 227.221839 114.732047 
L 227.432176 53.803636 
L 227.48476 57.153595 
L 227.765209 125.269417 
L 228.010602 162.743952 
L 228.133298 172.677162 
L 228.501387 219.493248 
L 228.536443 218.347429 
L 228.659139 196.614365 
L 229.009701 121.886125 
L 229.062285 125.981908 
L 229.290149 178.368758 
L 229.518014 220.126574 
L 229.55307 219.797411 
L 229.693294 214.22248 
L 229.956215 197.326857 
L 230.043855 198.072681 
L 230.113968 194.88522 
L 230.429473 161.627299 
L 230.569697 151.519091 
L 230.604753 152.044085 
L 230.727449 161.110639 
L 231.025426 187.251981 
L 231.07801 186.468658 
L 231.288347 175.943788 
L 231.551268 163.506443 
L 231.638908 164.898092 
L 231.901829 170.002195 
L 231.989469 169.293871 
L 232.042053 168.868876 
L 232.077109 169.09804 
L 232.182278 172.59383 
L 232.585423 185.472837 
L 232.602951 185.297839 
L 232.690591 183.956189 
L 232.760703 184.272852 
L 232.830815 183.518694 
L 232.953512 182.614539 
L 232.988568 182.806203 
L 233.093736 187.06865 
L 233.549466 207.472564 
L 233.566994 207.647562 
L 233.60205 207.164235 
L 233.672162 200.468484 
L 233.812386 152.310748 
L 234.127891 58.157749 
L 234.145419 58.424412 
L 234.233059 69.582607 
L 234.478452 135.060962 
L 234.723845 176.693779 
L 235.074406 200.83098 
L 235.21463 211.960008 
L 235.249686 210.722524 
L 235.407439 195.310215 
L 235.758 127.881884 
L 235.828112 130.969346 
L 235.950808 152.12325 
L 236.318897 228.572302 
L 236.336425 228.568136 
L 236.406538 223.343201 
L 236.879795 174.160477 
L 236.897323 174.143811 
L 237.020019 176.85211 
L 237.072604 175.568793 
L 237.440693 153.26907 
L 237.528333 156.2232 
L 237.949006 186.864486 
L 238.036646 183.939523 
L 238.404735 166.435573 
L 238.439792 166.535572 
L 238.509904 167.285562 
L 238.948105 175.402128 
L 239.018217 175.772957 
L 239.140914 179.272914 
L 239.298666 180.764562 
L 239.368778 181.260389 
L 239.403834 180.943726 
L 239.614171 179.464578 
L 239.631699 179.481245 
L 239.701811 180.564564 
L 239.999788 191.464429 
L 240.245181 198.351844 
L 240.402933 203.26845 
L 240.455517 201.855967 
L 240.543158 187.576977 
L 240.963831 61.799371 
L 241.051471 67.303469 
L 241.209223 97.394762 
L 241.629897 196.147705 
L 241.735065 200.768481 
L 241.770121 200.039323 
L 241.857761 197.401856 
L 241.910345 198.264345 
L 242.015514 201.59347 
L 242.068098 200.097656 
L 242.278434 186.56449 
L 242.646524 131.17351 
L 242.68158 131.986 
L 242.76922 141.244219 
L 243.207421 230.426446 
L 243.330118 221.368225 
L 243.803375 159.568991 
L 243.908543 160.598145 
L 244.013711 162.448122 
L 244.188992 169.023041 
L 244.259104 168.268884 
L 244.29416 167.943888 
L 244.329216 168.27305 
L 244.627193 178.352092 
L 244.890114 191.964423 
L 244.942698 191.731093 
L 245.030338 188.097804 
L 245.451012 155.36071 
L 245.538652 157.569016 
L 245.73146 169.481369 
L 245.976853 177.939597 
L 245.994381 177.943764 
L 246.117077 176.464615 
L 246.222246 175.635459 
L 246.257302 175.827123 
L 246.415054 178.039596 
L 246.818199 186.689488 
L 247.16876 190.610273 
L 247.396625 202.793455 
L 247.449209 200.772647 
L 247.554378 179.977072 
L 247.975051 67.157637 
L 248.027635 68.678452 
L 248.132803 82.103285 
L 248.711229 206.393411 
L 248.781341 204.205938 
L 249.307183 177.864598 
L 249.675272 141.690047 
L 249.6928 141.877544 
L 249.78044 147.260811 
L 250.043361 192.131088 
L 250.271225 217.689104 
L 250.288753 217.668271 
L 250.341338 216.384954 
L 250.464034 204.205938 
L 250.867179 160.864809 
L 250.884707 160.902308 
L 250.937291 161.356469 
L 251.024932 165.039757 
L 251.30538 177.989596 
L 251.393021 178.818753 
L 251.445605 178.443757 
L 251.638413 175.227131 
L 251.708525 175.410462 
L 251.988974 178.939585 
L 252.006502 178.877085 
L 252.111671 175.852123 
L 252.47976 162.306458 
L 252.584928 162.923117 
L 252.637512 163.456443 
L 253.338634 177.631267 
L 253.478859 179.735408 
L 253.899532 189.464454 
L 254.355261 204.105939 
L 254.390317 203.53928 
L 254.477957 196.318536 
L 254.63571 155.198212 
L 255.003799 71.299253 
L 255.021327 71.52425 
L 255.091439 75.30337 
L 255.214136 97.882256 
L 255.687393 206.243413 
L 255.757505 209.439206 
L 255.810089 208.910046 
L 256.020426 201.280974 
L 256.70402 145.227503 
L 256.774132 147.01498 
L 256.896828 158.581504 
L 257.405142 216.580784 
L 257.42267 216.65995 
L 257.440198 216.543285 
L 257.51031 213.647488 
L 257.703119 192.501916 
L 258.05368 160.010653 
L 258.106264 160.910641 
L 258.334128 171.268846 
L 258.456825 175.002133 
L 258.491881 174.797969 
L 258.579521 173.864648 
L 258.824914 169.752199 
L 258.895026 170.40219 
L 259.087835 172.86466 
L 259.140419 172.302167 
L 259.526036 162.789785 
L 259.648732 162.939783 
L 259.66626 162.90645 
L 259.701316 163.014782 
L 259.771429 164.252267 
L 260.29727 178.102095 
L 260.332326 178.260426 
L 260.419966 178.177094 
L 260.490079 178.79792 
L 260.577719 179.860406 
L 260.647831 179.635409 
L 260.682887 179.456245 
L 260.717943 179.756241 
L 261.331425 193.547737 
L 261.489177 201.714302 
L 261.576818 205.380923 
L 261.611874 204.293437 
L 261.717042 189.876949 
L 262.242884 72.786734 
L 262.330524 77.903338 
L 262.470748 113.194567 
L 262.90895 218.476594 
L 262.926478 218.868256 
L 262.979062 217.972434 
L 263.136814 209.347541 
L 263.925576 141.327551 
L 263.960633 142.115041 
L 264.048273 149.823279 
L 264.574114 223.268202 
L 264.661755 221.109895 
L 264.801979 207.02257 
L 265.275236 154.048227 
L 265.345349 154.485721 
L 265.432989 155.919037 
L 265.590741 164.673095 
L 265.853662 174.368808 
L 266.011414 175.30213 
L 266.046471 175.097966 
L 266.186695 173.306321 
L 266.256807 173.581318 
L 266.309391 173.539652 
L 266.432088 171.452177 
L 266.730064 165.260588 
L 266.887817 162.839784 
L 266.922873 163.035615 
L 267.045569 165.077256 
L 267.711635 183.227031 
L 267.746691 183.197865 
L 267.886916 182.843703 
L 268.255005 180.064571 
L 268.325117 180.639563 
L 268.48287 186.264494 
L 268.833431 207.968391 
L 268.903543 203.930941 
L 269.043767 173.031325 
L 269.481968 68.195125 
L 269.534553 69.649273 
L 269.639721 86.440732 
L 270.18309 221.234893 
L 270.218146 220.705733 
L 270.393427 210.797523 
L 271.112077 145.44 
L 271.199717 143.523357 
L 271.234773 144.002518 
L 271.322414 151.214928 
L 271.865783 222.930706 
L 271.935895 220.564068 
L 272.111176 200.343486 
L 272.514321 153.652398 
L 272.566905 153.160738 
L 272.619489 153.564899 
L 272.70713 155.014881 
L 272.88241 163.231446 
L 273.250499 178.018763 
L 273.373196 179.372913 
L 273.408252 179.185415 
L 273.636116 175.80629 
L 274.091846 161.506467 
L 274.179486 161.068973 
L 274.197014 161.193971 
L 274.354766 163.835605 
L 274.670271 176.856277 
L 274.95072 184.064521 
L 274.968248 184.072854 
L 274.985776 183.960356 
L 275.248697 181.122891 
L 275.353865 180.231235 
L 275.388921 180.447899 
L 275.651842 183.456195 
L 275.897235 192.564416 
L 276.177684 207.972558 
L 276.247796 203.968441 
L 276.405548 165.923079 
L 276.826221 64.366005 
L 276.878806 66.374314 
L 276.983974 83.86993 
L 277.527343 218.351596 
L 277.579928 217.397441 
L 277.82532 206.651741 
L 278.333634 146.410821 
L 278.561498 130.752682 
L 278.596554 131.71517 
L 278.701723 146.489987 
L 279.17498 237.076364 
L 279.245092 234.213899 
L 279.420373 209.380874 
L 279.823518 148.494129 
L 279.858574 147.998302 
L 279.911158 148.710793 
L 280.086439 155.214879 
L 280.52464 173.727149 
L 280.875201 184.372851 
L 280.892729 184.256185 
L 280.980369 182.29371 
L 281.120594 174.247976 
L 281.488683 149.835779 
L 281.506211 149.852445 
L 281.576323 151.90242 
L 281.821716 171.106348 
L 282.119693 189.672785 
L 282.224861 190.410276 
L 282.259917 190.285277 
L 282.365085 188.372801 
L 282.908455 176.160452 
L 282.925983 176.189619 
L 283.013623 176.310451 
L 283.101263 178.052096 
L 283.276544 188.606131 
L 283.627105 214.76414 
L 283.679689 212.097507 
L 283.802385 182.931202 
L 284.258115 60.703551 
L 284.293171 61.961869 
L 284.398339 76.836684 
L 284.976765 215.814127 
L 285.081933 213.568322 
L 285.169573 212.668333 
L 285.309798 204.739265 
L 285.520134 179.552077 
L 285.940807 126.694399 
L 286.01092 129.423532 
L 286.133616 151.848254 
L 286.571817 235.851379 
L 286.624401 233.118079 
L 286.81721 203.664278 
L 287.202827 153.564899 
L 287.378108 151.764922 
L 287.395636 151.894087 
L 287.500804 155.710706 
L 287.991589 182.193711 
L 288.219454 192.860245 
L 288.236982 192.681081 
L 288.307094 190.093613 
L 288.587543 164.402265 
L 288.815408 149.47745 
L 288.832936 149.652448 
L 288.990688 155.639874 
L 289.551586 190.585273 
L 289.621698 189.651952 
L 289.972259 178.260426 
L 290.32282 165.531418 
L 290.340348 165.477252 
L 290.357876 165.56475 
L 290.445516 167.49806 
L 290.655853 180.518732 
L 291.216751 216.109957 
L 291.234279 216.089124 
L 291.304391 210.793356 
L 291.462143 163.889771 
L 291.84776 59.320235 
L 291.882817 60.953548 
L 292.023041 86.807394 
L 292.548882 202.939287 
L 292.583939 203.835109 
L 292.671579 203.518446 
L 292.916971 205.355924 
L 292.9345 205.293424 
L 292.987084 202.718456 
L 293.19742 170.864685 
L 293.512925 118.061173 
L 293.565509 120.098648 
L 293.670678 136.298447 
L 294.126407 234.280565 
L 294.178991 232.672252 
L 294.301687 215.805794 
L 294.669776 166.039745 
L 294.810001 161.256471 
L 294.845057 161.477301 
L 294.880113 161.660632 
L 294.915169 161.423135 
L 295.002809 158.752335 
L 295.195618 155.535708 
L 295.248202 156.677361 
L 295.423483 168.898042 
L 295.756516 198.468509 
L 295.791572 198.143513 
L 295.879212 193.101909 
L 296.352469 147.664972 
L 296.422582 149.285786 
L 296.61539 164.806427 
L 296.983479 187.843641 
L 297.071119 188.672797 
L 297.123704 188.531132 
L 297.263928 186.464491 
L 297.386624 180.593731 
L 297.754713 164.106435 
L 297.772241 163.985603 
L 297.807297 164.298099 
L 297.894938 167.123064 
L 298.77134 201.814301 
L 298.85898 202.693457 
L 298.911565 202.235129 
L 299.104373 198.010181 
L 299.209541 184.552015 
L 299.665271 67.370135 
L 299.752911 73.453393 
L 300.050888 142.656701 
L 300.313809 175.431295 
L 300.454033 186.239494 
L 300.804594 212.043341 
L 300.822122 211.985008 
L 300.892234 206.98507 
L 301.085043 164.864759 
L 301.330436 128.644375 
L 301.347964 128.848539 
L 301.418076 134.802632 
L 301.628412 185.002009 
L 301.873805 219.522415 
L 301.908861 218.930755 
L 302.01403 209.001712 
L 302.312006 182.706205 
L 302.434703 179.956239 
L 302.469759 180.335401 
L 302.522343 180.814561 
L 302.557399 180.497899 
L 302.662567 174.468807 
L 303.030656 149.973277 
L 303.048184 150.135775 
L 303.118297 153.902395 
L 303.53897 189.739451 
L 303.574026 189.114458 
L 303.696722 180.364567 
L 303.959643 163.585608 
L 304.012227 163.402277 
L 304.029755 163.552275 
L 304.134924 167.368895 
L 304.380316 177.552102 
L 304.415372 177.189606 
L 304.783461 170.435523 
L 304.818518 170.964683 
L 305.221663 179.747908 
L 305.256719 179.677075 
L 305.361887 178.51459 
L 305.554696 176.035454 
L 305.572224 176.139619 
L 306.027953 181.406221 
L 306.150649 181.639551 
L 306.290874 185.414504 
L 306.483682 189.397788 
L 306.518738 189.276956 
L 306.606379 188.143637 
L 306.939412 178.556256 
L 307.027052 179.377079 
L 307.13222 181.527052 
L 307.167276 180.860394 
L 307.254917 171.864672 
L 307.710646 86.744895 
L 307.798286 92.47399 
L 308.779857 211.151685 
L 308.814913 211.347516 
L 308.832441 211.118352 
L 308.920081 205.735086 
L 309.165474 164.389765 
L 309.358283 151.181595 
L 309.375811 151.264928 
L 309.445923 154.014894 
L 310.059405 187.61031 
L 310.357381 205.480922 
L 310.445022 202.601791 
L 310.63783 181.43122 
L 310.918279 154.294057 
L 310.935807 154.498221 
L 311.076031 160.881475 
L 311.35648 174.18131 
L 311.391536 174.002146 
L 311.584345 170.781352 
L 311.654457 171.943838 
L 312.005018 186.906152 
L 312.092658 184.552015 
L 312.495804 158.298174 
L 312.583444 161.01064 
L 313.004117 182.064546 
L 313.039173 181.881215 
L 313.24951 179.235414 
L 313.302094 179.747908 
L 313.51243 181.914548 
L 313.565015 181.847882 
L 313.670183 180.993726 
L 313.792879 179.481245 
L 313.96816 176.793778 
L 314.038272 177.118774 
L 314.406361 178.114595 
L 314.441417 177.94793 
L 314.581641 176.343783 
L 314.651754 176.564614 
L 314.791978 178.202094 
L 314.879618 179.05625 
L 314.932202 178.789586 
L 315.002315 178.439591 
L 315.054899 178.506257 
L 315.177595 180.052071 
L 315.195123 180.197902 
L 315.230179 179.985405 
L 315.300292 175.83129 
L 315.528156 138.544252 
L 315.791077 111.144592 
L 315.808605 111.152925 
L 315.878717 113.015402 
L 316.334447 140.569227 
L 316.562311 176.543781 
L 316.825232 209.576705 
L 316.84276 209.672537 
L 316.860288 209.489206 
L 316.965456 203.651778 
L 317.438714 173.214656 
L 317.824331 161.906462 
L 317.911971 164.006436 
L 318.069723 177.227106 
L 318.3677 197.543521 
L 318.385228 197.660186 
L 318.420284 197.422689 
L 318.542981 192.46025 
L 318.893542 179.722908 
L 319.068822 171.198014 
L 319.384327 154.989882 
L 319.401855 155.044048 
L 319.471967 156.606528 
L 319.647248 166.831401 
L 319.910169 178.081262 
L 320.155561 180.318734 
L 320.471066 186.985318 
L 320.506122 186.581156 
L 320.646347 181.218723 
L 320.944324 171.123015 
L 321.049492 172.577163 
L 321.329941 177.97293 
L 321.364997 177.822932 
L 321.627918 175.435461 
L 321.69803 175.764624 
L 321.943423 180.231235 
L 322.083647 179.714575 
L 322.223871 176.352117 
L 322.41668 173.039658 
L 322.451736 173.089657 
L 322.50432 172.952159 
L 322.59196 172.731328 
L 322.627017 172.860493 
L 323.100274 176.043787 
L 323.240498 180.206236 
L 323.293082 179.06875 
L 323.415779 168.668879 
L 323.85398 126.573567 
L 323.871508 126.6569 
L 323.994204 127.269392 
L 324.029261 127.098561 
L 324.187013 125.419415 
L 324.239597 125.977741 
L 324.344765 130.39852 
L 324.502518 148.039968 
L 324.905663 193.843566 
L 325.098472 196.043539 
L 325.133528 195.99354 
L 325.151056 196.035206 
L 325.273752 197.022694 
L 325.326336 196.556033 
L 325.431505 193.718568 
L 325.624313 177.531269 
L 325.869706 164.081435 
L 325.887234 163.956437 
L 325.92229 164.185601 
L 326.044986 167.968887 
L 326.220267 171.773007 
L 326.255323 171.668841 
L 326.342963 171.123015 
L 326.413075 171.393845 
L 326.518244 173.422986 
L 326.851277 185.168674 
L 326.921389 184.202019 
L 327.289478 172.764661 
L 327.377118 173.810482 
L 327.587455 175.706291 
L 327.657567 174.852135 
L 327.867904 171.585509 
L 327.920488 171.810506 
L 328.043184 174.385474 
L 328.411273 184.156187 
L 328.516441 184.672847 
L 328.551497 184.472849 
L 328.79689 183.91869 
L 328.954643 180.202069 
L 329.375316 168.231384 
L 329.4279 168.573046 
L 329.883629 172.906326 
L 330.181606 178.052096 
L 330.216662 177.731266 
L 330.391943 174.589639 
L 330.742504 168.29805 
L 330.847672 167.348062 
L 331.180705 162.823118 
L 331.233289 163.414777 
L 331.373514 167.752223 
L 331.513738 171.468844 
L 331.548794 171.118848 
L 331.811715 164.098102 
L 332.355084 143.723355 
L 332.477781 140.727558 
L 332.512837 140.810891 
L 332.600477 142.098375 
L 332.880926 152.164917 
L 333.284071 173.297988 
L 333.546992 184.377017 
L 333.687216 185.706167 
L 333.7398 185.46867 
L 333.809913 185.22284 
L 333.862497 185.372838 
L 334.055305 186.785321 
L 334.107889 186.506157 
L 334.230586 183.985355 
L 334.563619 177.793765 
L 334.581147 177.797932 
L 334.668787 178.927085 
L 334.844067 180.331234 
L 334.879124 180.181236 
L 335.212157 176.835444 
L 335.247213 177.035442 
L 335.440021 178.281259 
L 335.492605 178.214594 
L 335.54519 177.868765 
L 335.80811 175.847956 
L 335.825638 175.872956 
L 335.878222 175.977121 
L 336.035975 177.764599 
L 336.316424 180.172903 
L 336.52676 180.793728 
L 336.631929 181.189557 
L 336.684513 180.993726 
L 336.877321 179.747908 
L 337.140242 173.993813 
L 337.490803 166.639737 
L 337.525859 166.556405 
L 337.578443 166.668903 
L 337.648556 167.589725 
L 337.96406 173.497985 
L 338.016645 173.410486 
L 338.104285 172.681329 
L 338.367206 169.889697 
L 338.384734 169.998029 
L 338.700239 172.59383 
L 338.752823 171.956338 
L 339.120912 164.885592 
L 339.191024 165.06059 
L 339.331248 166.435573 
L 339.506529 167.623058 
L 339.524057 167.610558 
L 339.664281 167.073065 
L 340.049898 163.056448 
L 340.400459 158.544004 
L 340.680908 157.498184 
L 340.838661 157.731514 
L 340.978885 158.644003 
L 341.38203 162.06896 
L 341.487199 163.093948 
L 341.83776 168.431382 
L 342.188321 178.21876 
L 342.486297 186.168662 
L 342.55641 186.468658 
L 342.591466 186.289493 
L 342.942027 183.485362 
L 343.748317 178.052096 
L 343.923597 177.402104 
L 343.941126 177.389604 
L 343.976182 177.493769 
L 344.624719 180.11457 
L 344.659776 180.006238 
L 344.8 179.102083 
L 345.097977 174.335475 
L 345.34337 171.464677 
L 345.360898 171.473011 
L 345.395954 171.560509 
L 345.641346 173.91048 
L 345.764043 174.947967 
L 345.816627 174.881302 
L 345.939323 173.777149 
L 346.14966 172.156335 
L 346.184716 172.177168 
L 346.254828 172.264667 
L 346.32494 172.56883 
L 346.377525 172.318833 
L 346.482693 171.010516 
L 346.675501 165.660583 
L 347.253927 150.835766 
L 347.411679 149.914945 
L 347.516848 150.219107 
L 347.744712 152.531579 
L 347.937521 156.606528 
L 348.358194 170.760519 
L 348.84898 186.147829 
L 348.884036 186.351993 
L 348.93662 186.226994 
L 349.357293 183.718692 
L 349.602686 182.197878 
L 350.28628 171.49801 
L 350.303808 171.514677 
L 350.391448 171.710508 
L 350.444032 171.527176 
L 350.601785 170.660521 
L 350.847177 168.468881 
L 350.882233 168.53138 
L 350.969874 168.80221 
L 351.215266 169.468869 
L 351.320435 169.518868 
L 351.337963 169.502202 
L 351.425603 169.043874 
L 351.443131 168.943875 
L 351.513243 169.09804 
L 351.583355 169.518868 
L 352.056613 174.135477 
L 352.126725 173.63965 
L 352.302005 172.772994 
L 352.407174 172.822994 
L 352.459758 172.881326 
L 352.862903 176.777111 
L 352.933015 176.572947 
L 353.178408 174.235476 
L 353.33616 173.402153 
L 353.353688 173.460486 
L 353.704249 175.335463 
L 353.826946 175.047966 
L 354.265147 174.052145 
L 354.282675 174.085478 
L 354.300203 174.135477 
L 354.352787 174.043812 
L 354.370315 174.060478 
L 354.405371 173.968813 
L 354.615708 172.418832 
L 355.579751 163.356444 
L 355.614807 163.556442 
L 355.930312 165.439752 
L 355.982896 165.285587 
L 356.263345 163.935604 
L 356.280873 163.973104 
L 356.421097 164.252267 
L 356.491209 164.656428 
L 356.719074 165.731415 
L 356.824242 165.148089 
L 357.017051 164.410598 
L 357.034579 164.443931 
L 357.315028 167.385561 
L 357.525364 169.248038 
L 357.542892 169.227205 
L 357.718173 169.685533 
L 357.910982 171.193847 
L 358.086262 174.956301 
L 358.384239 179.552077 
L 358.419295 179.710408 
L 358.471879 179.443745 
L 358.664688 178.522923 
L 358.7348 178.660421 
L 358.82244 178.985417 
L 358.997721 180.472899 
L 359.173001 181.68955 
L 359.190529 181.585385 
L 359.435922 178.531256 
L 359.716371 175.814623 
L 359.751427 175.860456 
L 359.961763 177.052108 
L 360.031876 177.002109 
L 360.101988 176.806278 
L 360.452549 174.264643 
L 360.522661 174.46464 
L 360.785582 175.702125 
L 360.838166 175.58546 
L 360.89075 175.506294 
L 361.328951 171.723007 
L 361.942433 166.139743 
L 362.292994 163.98977 
L 362.608499 161.464801 
L 362.643555 161.327303 
L 362.713667 161.493968 
L 362.924004 163.093948 
L 364.028271 176.60628 
L 364.39636 178.697921 
L 364.448944 178.406258 
L 364.536585 177.7146 
L 365.185122 171.514677 
L 365.272763 171.26468 
L 365.588268 168.931375 
L 365.781076 167.735557 
L 365.798604 167.698057 
L 365.851188 167.773056 
L 365.868716 167.773056 
L 365.956357 168.210551 
L 366.359502 171.560509 
L 366.482198 171.785507 
L 366.517254 171.752174 
L 366.55231 171.74384 
L 366.569838 171.693841 
L 367.130736 170.385524 
L 367.165792 170.406357 
L 367.18332 170.364691 
L 367.463769 169.406369 
L 367.481297 169.473035 
L 367.919498 171.614675 
L 367.972082 171.560509 
L 368.147363 170.348024 
L 368.252531 169.948029 
L 368.287587 170.010529 
L 368.340171 170.114694 
L 368.53298 171.49801 
L 368.760845 173.360487 
L 368.866013 173.622984 
L 368.918597 173.568818 
L 368.971181 173.66465 
L 369.146462 174.239643 
L 369.25163 175.010467 
L 369.532079 176.985442 
L 369.689831 177.002109 
L 369.830056 176.314617 
L 370.636346 171.193847 
L 370.951851 169.973029 
L 371.162187 169.631367 
L 371.214772 169.814698 
L 371.31994 170.248026 
L 371.705557 172.043837 
L 371.793197 171.973004 
L 372.75724 170.46469 
L 373.125329 167.160564 
L 373.38825 165.698082 
L 373.423306 165.781414 
L 373.493418 165.668916 
L 373.949147 166.493906 
L 374.19454 167.523059 
L 374.352293 167.76889 
L 374.755438 170.19386 
L 374.930718 171.077182 
L 374.965774 170.989683 
L 375.193639 171.406345 
L 376.034985 178.531256 
L 376.368018 179.793741 
L 376.438131 179.902073 
L 376.648467 180.714563 
L 377.507342 175.189631 
L 378.103295 170.848018 
L 378.120823 170.860518 
L 378.225992 170.460523 
L 378.4188 168.823043 
L 378.821945 166.38974 
L 378.944642 166.273075 
L 378.96217 166.285575 
L 378.997226 166.331408 
L 379.04981 166.218909 
L 379.242619 165.881413 
L 379.277675 165.923079 
L 379.295203 165.877247 
L 379.435427 165.660583 
L 379.488011 165.989745 
L 379.750932 167.114731 
L 379.838572 167.377228 
L 379.978797 167.848055 
L 380.013853 167.793889 
L 380.189133 167.452227 
L 380.452054 168.210551 
L 380.697447 169.523035 
L 380.820143 170.335525 
L 380.907783 170.243859 
L 380.977896 170.360524 
L 381.03048 170.185526 
L 381.20576 170.71052 
L 381.258344 170.618854 
L 381.381041 170.748019 
L 381.486209 171.060516 
L 381.556321 171.398011 
L 381.626433 171.339679 
L 381.643961 171.289679 
L 381.679018 171.393845 
L 382.134747 173.218822 
L 382.152275 173.193822 
L 382.187331 173.272988 
L 382.432724 174.214643 
L 382.800813 175.339629 
L 382.941037 175.527127 
L 382.976093 175.468794 
L 383.028677 175.364629 
L 383.09879 175.406295 
L 383.168902 175.285463 
L 383.18643 175.389629 
L 383.256542 175.610459 
L 383.309126 175.481294 
L 383.431823 175.389629 
L 383.466879 175.347962 
L 383.519463 175.389629 
L 383.572047 175.493794 
L 383.607103 175.364629 
L 383.887552 174.618805 
L 383.975192 174.627138 
L 383.99272 174.656304 
L 384.010248 174.685471 
L 384.045304 174.572972 
L 384.08036 174.506306 
L 384.132945 174.589639 
L 384.220585 174.739637 
L 384.238113 174.702137 
L 384.308225 173.322988 
L 384.413393 170.135527 
L 384.44845 171.014683 
L 384.553618 173.918814 
L 384.588674 173.272988 
L 384.728898 168.148052 
L 384.781482 169.268871 
L 384.869123 172.023004 
L 384.921707 171.102182 
L 385.009347 169.677199 
L 385.061931 170.164693 
L 385.219684 172.227168 
L 385.25474 171.843839 
L 385.34238 170.098028 
L 385.412492 170.681354 
L 385.465076 171.198014 
L 385.535189 170.94385 
L 385.710469 169.398036 
L 385.727997 169.502202 
L 385.833165 170.398024 
L 385.868222 170.102194 
L 385.990918 169.152206 
L 386.025974 169.318871 
L 386.096086 169.506368 
L 386.131142 169.377203 
L 386.288895 168.818877 
L 386.306423 168.877209 
L 386.429119 169.831364 
L 386.481703 169.610534 
L 386.569344 169.277204 
L 386.621928 169.414703 
L 386.77968 169.698033 
L 386.849792 169.548034 
L 386.937433 169.456369 
L 386.954961 169.481369 
L 387.007545 169.768865 
L 387.095185 169.677199 
L 387.130241 169.598034 
L 387.165297 169.748032 
L 387.32305 170.45219 
L 387.393162 170.218859 
L 387.445746 169.981362 
L 387.515858 170.127194 
L 387.603499 170.481356 
L 387.656083 170.335525 
L 387.761251 169.631367 
L 387.831363 169.948029 
L 387.95406 170.743853 
L 388.006644 170.693853 
L 388.094284 170.773019 
L 388.199452 171.348012 
L 388.567541 172.739661 
L 388.690238 172.810494 
L 388.707766 172.789661 
L 388.93563 172.293834 
L 389.023271 172.02717 
L 389.075855 172.177168 
L 389.426416 173.239655 
L 389.549112 173.872981 
L 389.584168 173.777149 
L 389.706865 173.585484 
L 389.724393 173.63965 
L 389.829561 174.435474 
L 389.882145 174.102145 
L 389.934729 173.672983 
L 389.987313 173.931313 
L 390.127538 174.743803 
L 390.162594 174.581305 
L 390.267762 173.968813 
L 390.302818 174.172977 
L 390.390459 175.181298 
L 390.443043 174.781303 
L 390.530683 174.085478 
L 390.565739 174.335475 
L 390.705963 175.514627 
L 390.74102 175.235464 
L 390.863716 173.531318 
L 390.933828 173.810482 
L 390.968884 173.927147 
L 391.038996 173.814648 
L 391.442142 171.402178 
L 391.792703 168.652212 
L 391.915399 168.773044 
L 391.932927 168.673045 
L 392.108207 167.089732 
L 392.213376 167.210563 
L 392.248432 167.164731 
L 392.423712 165.839747 
L 392.528881 166.181409 
L 392.563937 166.289741 
L 392.634049 166.16891 
L 392.721689 165.868913 
L 392.774273 165.939746 
L 393.142362 167.973054 
L 393.282587 168.718878 
L 393.440339 170.885518 
L 393.52798 170.852185 
L 393.61562 171.773007 
L 393.843484 173.539652 
L 394.492022 176.285451 
L 394.562134 176.87711 
L 394.614719 176.568781 
L 394.719887 175.881289 
L 394.754943 176.043787 
L 394.895167 177.206273 
L 394.96528 176.90211 
L 395.05292 176.364617 
L 395.123032 176.447949 
L 395.210672 176.32295 
L 395.2282 176.37295 
L 395.280785 176.539614 
L 395.315841 176.343783 
L 395.543705 174.689637 
L 395.578761 174.77297 
L 395.648874 175.197964 
L 395.701458 174.939634 
L 395.894266 173.918814 
L 395.94685 173.827148 
L 396.595388 171.023016 
L 396.647972 170.931351 
L 396.683029 171.068849 
L 397.03359 173.435486 
L 397.051118 173.402153 
L 397.12123 172.393832 
L 397.20887 170.056361 
L 397.261454 170.618854 
L 397.349094 172.343833 
L 397.384151 171.652175 
L 398.050216 148.077467 
L 398.260553 146.027493 
L 398.348193 145.123337 
L 398.383249 145.564998 
L 398.73381 159.323161 
L 399.329764 192.885245 
L 399.592685 198.66434 
L 399.697853 199.960157 
L 399.732909 199.672661 
L 400.048414 193.918565 
L 400.398975 180.460399 
L 400.977401 162.318957 
L 401.100097 161.256471 
L 401.117625 161.356469 
L 401.590883 166.67307 
L 402.081668 174.339642 
L 402.134252 174.210477 
L 402.169308 174.118811 
L 402.221892 174.239643 
L 402.379645 175.589626 
L 402.449757 175.093799 
L 402.940542 172.173002 
L 403.080767 170.72302 
L 403.115823 170.856351 
L 403.168407 171.018849 
L 403.203463 170.868851 
L 403.361216 168.973042 
L 403.448856 169.214705 
L 403.50144 169.39387 
L 403.571552 169.277204 
L 403.676721 169.439702 
L 403.764361 169.677199 
L 403.816945 169.543868 
L 403.834473 169.535535 
L 403.852001 169.593867 
L 404.04481 170.764686 
L 404.114922 170.577188 
L 404.185034 170.173027 
L 404.255146 170.393857 
L 404.430427 171.323012 
L 404.465483 171.27718 
L 404.518067 171.081349 
L 404.588179 170.814685 
L 404.640763 170.99385 
L 404.798516 171.952171 
L 404.8511 171.902172 
L 404.886156 171.827173 
L 405.02638 171.035516 
L 405.078965 171.21468 
L 405.131549 171.310513 
L 405.166605 171.481344 
L 405.219189 171.281346 
L 405.48211 169.235538 
L 405.587278 169.323037 
L 405.762559 168.493881 
L 405.815143 168.81471 
L 406.007951 172.418832 
L 406.043007 171.639675 
L 406.148176 166.989733 
L 406.20076 168.139719 
L 406.305928 172.647996 
L 406.358512 170.898018 
L 406.516265 163.298112 
L 406.568849 163.852272 
L 406.603905 164.089769 
L 406.638961 163.623108 
L 407.00705 151.235761 
L 407.09469 152.43158 
L 407.129746 152.739909 
L 407.182331 152.16075 
L 407.305027 148.827458 
L 407.357611 150.339939 
L 408.058733 183.0937 
L 408.26907 193.122742 
L 408.391766 196.206037 
L 408.426822 196.068539 
L 408.44435 196.056039 
L 408.461878 196.101872 
L 408.549519 197.251857 
L 408.654687 198.885171 
L 408.707271 198.235179 
L 409.180528 185.181174 
L 409.70637 166.864734 
L 410.039403 163.068948 
L 410.144571 162.818951 
L 410.197155 163.035615 
L 411.459175 176.456282 
L 411.494231 176.543781 
L 411.564343 176.518781 
L 411.669511 175.931289 
L 411.687039 175.802123 
L 411.757152 175.952122 
L 411.77468 175.952122 
L 411.844792 176.231285 
L 411.879848 176.085453 
L 412.0376 174.868802 
L 412.090185 175.118799 
L 412.247937 175.58546 
L 412.318049 175.318796 
L 412.370633 175.097966 
L 412.423218 175.331296 
L 412.66861 176.560447 
L 412.703666 176.514615 
L 412.721194 176.572947 
L 412.756251 176.722945 
L 412.808835 176.447949 
L 412.896475 175.756291 
L 412.931531 176.135453 
L 413.071755 177.839598 
L 413.106812 177.597935 
L 413.21198 176.818778 
L 413.247036 177.089608 
L 413.474901 182.685371 
L 413.545013 185.431171 
L 413.580069 183.952022 
L 413.720293 167.118898 
L 413.772877 171.618842 
L 413.84299 178.143761 
L 413.895574 175.514627 
L 414.246135 146.369155 
L 414.456471 127.369391 
L 414.544112 120.031982 
L 414.596696 121.673628 
L 414.719392 127.769386 
L 414.754448 126.844397 
L 414.859617 120.069481 
L 414.912201 122.390286 
L 415.683435 196.585199 
L 415.806131 207.730894 
L 415.928828 215.205802 
L 415.963884 214.49331 
L 416.104108 210.439194 
L 416.156692 210.772523 
L 416.209276 211.06002 
L 416.226804 210.893355 
L 416.331973 206.043415 
L 416.927926 161.81063 
L 417.050623 171.602176 
L 486.496758 171.602176 
L 486.496758 171.602176 
" clip-path="url(#p5dd8899388)" style="fill: none; stroke: #1f77b4; stroke-width: 1.5; stroke-linecap: square"/>
   </g>
   <g id="LineCollection_1">
    <path d="M 92.290909 246.24 
L 92.290909 44.64 
" clip-path="url(#p5dd8899388)" style="fill: none; stroke: #444444; stroke-width: 0.8"/>
    <path d="M 115.480519 246.24 
L 115.480519 44.64 
" clip-path="url(#p5dd8899388)" style="fill: none; stroke: #444444; stroke-width: 0.8"/>
    <path d="M 138.67013 246.24 
L 138.67013 44.64 
" clip-path="url(#p5dd8899388)" style="fill: none; stroke: #444444; stroke-width: 0.8"/>
    <path d="M 161.85974 246.24 
L 161.85974 44.64 
" clip-path="url(#p5dd8899388)" style="fill: none; stroke: #444444; stroke-width: 0.8"/>
    <path d="M 185.049351 246.24 
L 185.049351 44.64 
" clip-path="url(#p5dd8899388)" style="fill: none; stroke: #444444; stroke-width: 0.8"/>
    <path d="M 208.238961 246.24 
L 208.238961 44.64 
" clip-path="url(#p5dd8899388)" style="fill: none; stroke: #444444; stroke-width: 0.8"/>
    <path d="M 231.428571 246.24 
L 231.428571 44.64 
" clip-path="url(#p5dd8899388)" style="fill: none; stroke: #444444; stroke-width: 0.8"/>
    <path d="M 254.618182 246.24 
L 254.618182 44.64 
" clip-path="url(#p5dd8899388)" style="fill: none; stroke: #444444; stroke-width: 0.8"/>
    <path d="M 277.807792 246.24 
L 277.807792 44.64 
" clip-path="url(#p5dd8899388)" style="fill: none; stroke: #444444; stroke-width: 0.8"/>
    <path d="M 300.997403 246.24 
L 300.997403 44.64 
" clip-path="url(#p5dd8899388)" style="fill: none; stroke: #444444; stroke-width: 0.8"/>
    <path d="M 324.187013 246.24 
L 324.187013 44.64 
" clip-path="url(#p5dd8899388)" style="fill: none; stroke: #444444; stroke-width: 0.8"/>
    <path d="M 347.376623 246.24 
L 347.376623 44.64 
" clip-path="url(#p5dd8899388)" style="fill: none; stroke: #444444; stroke-width: 0.8"/>
    <path d="M 370.566234 246.24 
L 370.566234 44.64 
" clip-path="url(#p5dd8899388)" style="fill: none; stroke: #444444; stroke-width: 0.8"/>
    <path d="M 393.755844 246.24 
L 393.755844 44.64 
" clip-path="url(#p5dd8899388)" style="fill: none; stroke: #444444; stroke-width: 0.8"/>
    <path d="M 416.945455 246.24 
L 416.945455 44.64 
" clip-path="url(#p5dd8899388)" style="fill: none; stroke: #444444; stroke-width: 0.8"/>
    <path d="M 440.135065 246.24 
L 440.135065 44.64 
" clip-path="url(#p5dd8899388)" style="fill: none; stroke: #444444; stroke-width: 0.8"/>
    <path d="M 463.324675 246.24 
L 463.324675 44.64 
" clip-path="url(#p5dd8899388)" style="fill: none; stroke: #444444; stroke-width: 0.8"/>
   </g>
   <g id="line2d_14">
    <defs>
     <path id="m7bbece2ccb" d="M 0 1.5 
C 0.397805 1.5 0.77937 1.341951 1.06066 1.06066 
C 1.341951 0.77937 1.5 0.397805 1.5 0 
C 1.5 -0.397805 1.341951 -0.77937 1.06066 -1.06066 
C 0.77937 -1.341951 0.397805 -1.5 0 -1.5 
C -0.397805 -1.5 -0.77937 -1.341951 -1.06066 -1.06066 
C -1.341951 -0.77937 -1.5 -0.397805 -1.5 0 
C -1.5 0.397805 -1.341951 0.77937 -1.06066 1.06066 
C -0.77937 1.341951 -0.397805 1.5 0 1.5 
z
" style="stroke: #ff7f0e"/>
    </defs>
    <g clip-path="url(#p5dd8899388)">
     <use xlink:href="#m7bbece2ccb" x="127.075325" y="171.602176" style="fill: #ff7f0e; stroke: #ff7f0e"/>
     <use xlink:href="#m7bbece2ccb" x="150.264935" y="171.602176" style="fill: #ff7f0e; stroke: #ff7f0e"/>
     <use xlink:href="#m7bbece2ccb" x="173.454545" y="156.802553" style="fill: #ff7f0e; stroke: #ff7f0e"/>
     <use xlink:href="#m7bbece2ccb" x="196.644156" y="104.69223" style="fill: #ff7f0e; stroke: #ff7f0e"/>
     <use xlink:href="#m7bbece2ccb" x="219.833766" y="75.529034" style="fill: #ff7f0e; stroke: #ff7f0e"/>
     <use xlink:href="#m7bbece2ccb" x="243.023377" y="53.803636" style="fill: #ff7f0e; stroke: #ff7f0e"/>
     <use xlink:href="#m7bbece2ccb" x="266.212987" y="54.969946" style="fill: #ff7f0e; stroke: #ff7f0e"/>
     <use xlink:href="#m7bbece2ccb" x="289.402597" y="56.706904" style="fill: #ff7f0e; stroke: #ff7f0e"/>
     <use xlink:href="#m7bbece2ccb" x="312.592208" y="107.929599" style="fill: #ff7f0e; stroke: #ff7f0e"/>
     <use xlink:href="#m7bbece2ccb" x="335.781818" y="136.158568" style="fill: #ff7f0e; stroke: #ff7f0e"/>
     <use xlink:href="#m7bbece2ccb" x="358.971429" y="108.012327" style="fill: #ff7f0e; stroke: #ff7f0e"/>
     <use xlink:href="#m7bbece2ccb" x="382.161039" y="125.997889" style="fill: #ff7f0e; stroke: #ff7f0e"/>
     <use xlink:href="#m7bbece2ccb" x="405.350649" y="171.602176" style="fill: #ff7f0e; stroke: #ff7f0e"/>
     <use xlink:href="#m7bbece2ccb" x="428.54026" y="171.602176" style="fill: #ff7f0e; stroke: #ff7f0e"/>
     <use xlink:href="#m7bbece2ccb" x="451.72987" y="171.602176" style="fill: #ff7f0e; stroke: #ff7f0e"/>
     <use xlink:href="#m7bbece2ccb" x="474.919481" y="171.602176" style="fill: #ff7f0e; stroke: #ff7f0e"/>
     <use xlink:href="#m7bbece2ccb" x="498.109091" y="171.602176" style="fill: #ff7f0e; stroke: #ff7f0e"/>
    </g>
   </g>
   <g id="line2d_15">
    <defs>
     <path id="me2c14fc678" d="M 0 -3 
L -0.673542 -0.927051 
L -2.85317 -0.927051 
L -1.089814 0.354102 
L -1.763356 2.427051 
L -0 1.145898 
L 1.763356 2.427051 
L 1.089814 0.354102 
L 2.85317 -0.927051 
L 0.673542 -0.927051 
z
" style="stroke: #ff0000; stroke-linejoin: bevel"/>
    </defs>
    <g clip-path="url(#p5dd8899388)">
     <use xlink:href="#me2c14fc678" x="243.023377" y="53.803636" style="fill: #ff0000; stroke: #ff0000; stroke-linejoin: bevel"/>
    </g>
   </g>
   <g id="patch_3">
    <path d="M 72 256.32 
L 72 34.56 
" style="fill: none; stroke: #000000; stroke-width: 0.8; stroke-linejoin: miter; stroke-linecap: square"/>
   </g>
   <g id="patch_4">
    <path d="M 518.4 256.32 
L 518.4 34.56 
" style="fill: none; stroke: #000000; stroke-width: 0.8; stroke-linejoin: miter; stroke-linecap: square"/>
   </g>
   <g id="patch_5">
    <path d="M 72 256.32 
L 518.4 256.32 
" style="fill: none; stroke: #000000; stroke-width: 0.8; stroke-linejoin: miter; stroke-linecap: square"/>
   </g>
   <g id="patch_6">
    <path d="M 72 34.56 
L 518.4 34.56 
" style="fill: none; stroke: #000000; stroke-width: 0.8; stroke-linejoin: miter; stroke-linecap: square"/>
   </g>
   <g id="text_15">
    <!-- Signal and HNR: 'dag' -->
    <g transform="translate(230.162812 28.56) scale(0.12 -0.12)">
     <defs>
      <path id="DejaVuSans-53" d="M 3425 4513 
L 3425 3897 
Q 3066 4069 2747 4153 
Q 2428 4238 2131 4238 
Q 1616 4238 1336 4038 
Q 1056 3838 1056 3469 
Q 1056 3159 1242 3001 
Q 1428 2844 1947 2747 
L 2328 2669 
Q 3034 2534 3370 2195 
Q 3706 1856 3706 1288 
Q 3706 609 3251 259 
Q 2797 -91 1919 -91 
Q 1588 -91 1214 -16 
Q 841 59 441 206 
L 441 856 
Q 825 641 1194 531 
Q 1563 422 1919 422 
Q 2459 422 2753 634 
Q 3047 847 3047 1241 
Q 3047 1584 2836 1778 
Q 2625 1972 2144 2069 
L 1759 2144 
Q 1053 2284 737 2584 
Q 422 2884 422 3419 
Q 422 4038 858 4394 
Q 1294 4750 2059 4750 
Q 2388 4750 2728 4690 
Q 3069 4631 3425 4513 
z
" transform="scale(0.015625)"/>
      <path id="DejaVuSans-67" d="M 2906 1791 
Q 2906 2416 2648 2759 
Q 2391 3103 1925 3103 
Q 1463 3103 1205 2759 
Q 947 2416 947 1791 
Q 947 1169 1205 825 
Q 1463 481 1925 481 
Q 2391 481 2648 825 
Q 2906 1169 2906 1791 
z
M 3481 434 
Q 3481 -459 3084 -895 
Q 2688 -1331 1869 -1331 
Q 1566 -1331 1297 -1286 
Q 1028 -1241 775 -1147 
L 775 -588 
Q 1028 -725 1275 -790 
Q 1522 -856 1778 -856 
Q 2344 -856 2625 -561 
Q 2906 -266 2906 331 
L 2906 616 
Q 2728 306 2450 153 
Q 2172 0 1784 0 
Q 1141 0 747 490 
Q 353 981 353 1791 
Q 353 2603 747 3093 
Q 1141 3584 1784 3584 
Q 2172 3584 2450 3431 
Q 2728 3278 2906 2969 
L 2906 3500 
L 3481 3500 
L 3481 434 
z
" transform="scale(0.015625)"/>
      <path id="DejaVuSans-6e" d="M 3513 2113 
L 3513 0 
L 2938 0 
L 2938 2094 
Q 2938 2591 2744 2837 
Q 2550 3084 2163 3084 
Q 1697 3084 1428 2787 
Q 1159 2491 1159 1978 
L 1159 0 
L 581 0 
L 581 3500 
L 1159 3500 
L 1159 2956 
Q 1366 3272 1645 3428 
Q 1925 3584 2291 3584 
Q 2894 3584 3203 3211 
Q 3513 2838 3513 2113 
z
" transform="scale(0.015625)"/>
      <path id="DejaVuSans-3a" d="M 750 794 
L 1409 794 
L 1409 0 
L 750 0 
L 750 794 
z
M 750 3309 
L 1409 3309 
L 1409 2516 
L 750 2516 
L 750 3309 
z
" transform="scale(0.015625)"/>
      <path id="DejaVuSans-27" d="M 1147 4666 
L 1147 2931 
L 616 2931 
L 616 4666 
L 1147 4666 
z
" transform="scale(0.015625)"/>
     </defs>
     <use xlink:href="#DejaVuSans-53"/>
     <use xlink:href="#DejaVuSans-69" x="63.476562"/>
     <use xlink:href="#DejaVuSans-67" x="91.259766"/>
     <use xlink:href="#DejaVuSans-6e" x="154.736328"/>
     <use xlink:href="#DejaVuSans-61" x="218.115234"/>
     <use xlink:href="#DejaVuSans-6c" x="279.394531"/>
     <use xlink:href="#DejaVuSans-20" x="307.177734"/>
     <use xlink:href="#DejaVuSans-61" x="338.964844"/>
     <use xlink:href="#DejaVuSans-6e" x="400.244141"/>
     <use xlink:href="#DejaVuSans-64" x="463.623047"/>
     <use xlink:href="#DejaVuSans-20" x="527.099609"/>
     <use xlink:href="#DejaVuSans-48" x="558.886719"/>
     <use xlink:href="#DejaVuSans-4e" x="634.082031"/>
     <use xlink:href="#DejaVuSans-52" x="708.886719"/>
     <use xlink:href="#DejaVuSans-3a" x="775.244141"/>
     <use xlink:href="#DejaVuSans-20" x="808.935547"/>
     <use xlink:href="#DejaVuSans-27" x="840.722656"/>
     <use xlink:href="#DejaVuSans-64" x="868.212891"/>
     <use xlink:href="#DejaVuSans-61" x="931.689453"/>
     <use xlink:href="#DejaVuSans-67" x="992.96875"/>
     <use xlink:href="#DejaVuSans-27" x="1056.445312"/>
    </g>
   </g>
   <g id="legend_1">
    <g id="patch_7">
     <path d="M 405.73125 251.32 
L 511.4 251.32 
Q 513.4 251.32 513.4 249.32 
L 513.4 206.285625 
Q 513.4 204.285625 511.4 204.285625 
L 405.73125 204.285625 
Q 403.73125 204.285625 403.73125 206.285625 
L 403.73125 249.32 
Q 403.73125 251.32 405.73125 251.32 
z
" style="fill: #ffffff; opacity: 0.8; stroke: #cccccc; stroke-linejoin: miter"/>
    </g>
    <g id="line2d_16">
     <path d="M 407.73125 212.384062 
L 417.73125 212.384062 
L 427.73125 212.384062 
" style="fill: none; stroke: #1f77b4; stroke-width: 1.5; stroke-linecap: square"/>
    </g>
    <g id="text_16">
     <!-- segment (dag) -->
     <g transform="translate(435.73125 215.884062) scale(0.1 -0.1)">
      <use xlink:href="#DejaVuSans-73"/>
      <use xlink:href="#DejaVuSans-65" x="52.099609"/>
      <use xlink:href="#DejaVuSans-67" x="113.623047"/>
      <use xlink:href="#DejaVuSans-6d" x="177.099609"/>
      <use xlink:href="#DejaVuSans-65" x="274.511719"/>
      <use xlink:href="#DejaVuSans-6e" x="336.035156"/>
      <use xlink:href="#DejaVuSans-74" x="399.414062"/>
      <use xlink:href="#DejaVuSans-20" x="438.623047"/>
      <use xlink:href="#DejaVuSans-28" x="470.410156"/>
      <use xlink:href="#DejaVuSans-64" x="509.423828"/>
      <use xlink:href="#DejaVuSans-61" x="572.900391"/>
      <use xlink:href="#DejaVuSans-67" x="634.179688"/>
      <use xlink:href="#DejaVuSans-29" x="697.65625"/>
     </g>
    </g>
    <g id="line2d_17">
     <g>
      <use xlink:href="#m7bbece2ccb" x="417.73125" y="227.062187" style="fill: #ff7f0e; stroke: #ff7f0e"/>
     </g>
    </g>
    <g id="text_17">
     <!-- HNR -->
     <g transform="translate(435.73125 230.562187) scale(0.1 -0.1)">
      <use xlink:href="#DejaVuSans-48"/>
      <use xlink:href="#DejaVuSans-4e" x="75.195312"/>
      <use xlink:href="#DejaVuSans-52" x="150"/>
     </g>
    </g>
    <g id="line2d_18">
     <g>
      <use xlink:href="#me2c14fc678" x="417.73125" y="241.740313" style="fill: #ff0000; stroke: #ff0000; stroke-linejoin: bevel"/>
     </g>
    </g>
    <g id="text_18">
     <!-- chosen peaks -->
     <g transform="translate(435.73125 245.240313) scale(0.1 -0.1)">
      <defs>
       <path id="DejaVuSans-63" d="M 3122 3366 
L 3122 2828 
Q 2878 2963 2633 3030 
Q 2388 3097 2138 3097 
Q 1578 3097 1268 2742 
Q 959 2388 959 1747 
Q 959 1106 1268 751 
Q 1578 397 2138 397 
Q 2388 397 2633 464 
Q 2878 531 3122 666 
L 3122 134 
Q 2881 22 2623 -34 
Q 2366 -91 2075 -91 
Q 1284 -91 818 406 
Q 353 903 353 1747 
Q 353 2603 823 3093 
Q 1294 3584 2113 3584 
Q 2378 3584 2631 3529 
Q 2884 3475 3122 3366 
z
" transform="scale(0.015625)"/>
       <path id="DejaVuSans-68" d="M 3513 2113 
L 3513 0 
L 2938 0 
L 2938 2094 
Q 2938 2591 2744 2837 
Q 2550 3084 2163 3084 
Q 1697 3084 1428 2787 
Q 1159 2491 1159 1978 
L 1159 0 
L 581 0 
L 581 4863 
L 1159 4863 
L 1159 2956 
Q 1366 3272 1645 3428 
Q 1925 3584 2291 3584 
Q 2894 3584 3203 3211 
Q 3513 2838 3513 2113 
z
" transform="scale(0.015625)"/>
       <path id="DejaVuSans-6b" d="M 581 4863 
L 1159 4863 
L 1159 1991 
L 2875 3500 
L 3609 3500 
L 1753 1863 
L 3688 0 
L 2938 0 
L 1159 1709 
L 1159 0 
L 581 0 
L 581 4863 
z
" transform="scale(0.015625)"/>
      </defs>
      <use xlink:href="#DejaVuSans-63"/>
      <use xlink:href="#DejaVuSans-68" x="54.980469"/>
      <use xlink:href="#DejaVuSans-6f" x="118.359375"/>
      <use xlink:href="#DejaVuSans-73" x="179.541016"/>
      <use xlink:href="#DejaVuSans-65" x="231.640625"/>
      <use xlink:href="#DejaVuSans-6e" x="293.164062"/>
      <use xlink:href="#DejaVuSans-20" x="356.542969"/>
      <use xlink:href="#DejaVuSans-70" x="388.330078"/>
      <use xlink:href="#DejaVuSans-65" x="451.806641"/>
      <use xlink:href="#DejaVuSans-61" x="513.330078"/>
      <use xlink:href="#DejaVuSans-6b" x="574.609375"/>
      <use xlink:href="#DejaVuSans-73" x="632.519531"/>
     </g>
    </g>
   </g>
  </g>
 </g>
 <defs>
  <clipPath id="p5dd8899388">
   <rect x="72" y="34.56" width="446.4" height="221.76"/>
  </clipPath>
 </defs>
</svg>
