<?xml version="1.0" encoding="utf-8" standalone="no"?>
<!DOCTYPE svg PUBLIC "-//W3C//DTD SVG 1.1//EN"
  "http://www.w3.org/Graphics/SVG/1.1/DTD/svg11.dtd">
<svg xmlns:xlink="http://www.w3.org/1999/xlink" width="576pt" height="288pt" viewBox="0 0 576 288" xmlns="http://www.w3.org/2000/svg" version="1.1">
 <metadata>
  <rdf:RDF xmlns:dc="http://purl.org/dc/elements/1.1/" xmlns:cc="http://creativecommons.org/ns#" xmlns:rdf="http://www.w3.org/1999/02/22-rdf-syntax-ns#">
   <cc:Work>
    <dc:type rdf:resource="http://purl.org/dc/dcmitype/StillImage"/>
    <dc:date>2024-04-03T16:18:23.691932</dc:date>
    <dc:format>image/svg+xml</dc:format>
    <dc:creator>
     <cc:Agent>
      <dc:title>Matplotlib v3.8.0, https://matplotlib.org/</dc:title>
     </cc:Agent>
    </dc:creator>
   </cc:Work>
  </rdf:RDF>
 </metadata>
 <defs>
  <style type="text/css">*{stroke-linejoin: round; stroke-linecap: butt}</style>
 </defs>
 <g id="figure_1">
  <g id="patch_1">
   <path d="M 0 288 
L 576 288 
L 576 0 
L 0 0 
z
" style="fill: #ffffff"/>
  </g>
  <g id="axes_1">
   <g id="patch_2">
    <path d="M 72 256.32 
L 518.4 256.32 
L 518.4 34.56 
L 72 34.56 
z
" style="fill: #ffffff"/>
   </g>
   <g id="matplotlib.axis_1">
    <g id="xtick_1">
     <g id="line2d_1">
      <defs>
       <path id="ma4ac3d2823" d="M 0 0 
L 0 3.5 
" style="stroke: #000000; stroke-width: 0.8"/>
      </defs>
      <g>
       <use xlink:href="#ma4ac3d2823" x="92.290909" y="256.32" style="stroke: #000000; stroke-width: 0.8"/>
      </g>
     </g>
     <g id="text_1">
      <!-- 0 -->
      <g transform="translate(89.109659 270.918437) scale(0.1 -0.1)">
       <defs>
        <path id="DejaVuSans-30" d="M 2034 4250 
Q 1547 4250 1301 3770 
Q 1056 3291 1056 2328 
Q 1056 1369 1301 889 
Q 1547 409 2034 409 
Q 2525 409 2770 889 
Q 3016 1369 3016 2328 
Q 3016 3291 2770 3770 
Q 2525 4250 2034 4250 
z
M 2034 4750 
Q 2819 4750 3233 4129 
Q 3647 3509 3647 2328 
Q 3647 1150 3233 529 
Q 2819 -91 2034 -91 
Q 1250 -91 836 529 
Q 422 1150 422 2328 
Q 422 3509 836 4129 
Q 1250 4750 2034 4750 
z
" transform="scale(0.015625)"/>
       </defs>
       <use xlink:href="#DejaVuSans-30"/>
      </g>
     </g>
    </g>
    <g id="xtick_2">
     <g id="line2d_2">
      <g>
       <use xlink:href="#ma4ac3d2823" x="148.061978" y="256.32" style="stroke: #000000; stroke-width: 0.8"/>
      </g>
     </g>
     <g id="text_2">
      <!-- 5000 -->
      <g transform="translate(135.336978 270.918437) scale(0.1 -0.1)">
       <defs>
        <path id="DejaVuSans-35" d="M 691 4666 
L 3169 4666 
L 3169 4134 
L 1269 4134 
L 1269 2991 
Q 1406 3038 1543 3061 
Q 1681 3084 1819 3084 
Q 2600 3084 3056 2656 
Q 3513 2228 3513 1497 
Q 3513 744 3044 326 
Q 2575 -91 1722 -91 
Q 1428 -91 1123 -41 
Q 819 9 494 109 
L 494 744 
Q 775 591 1075 516 
Q 1375 441 1709 441 
Q 2250 441 2565 725 
Q 2881 1009 2881 1497 
Q 2881 1984 2565 2268 
Q 2250 2553 1709 2553 
Q 1456 2553 1204 2497 
Q 953 2441 691 2322 
L 691 4666 
z
" transform="scale(0.015625)"/>
       </defs>
       <use xlink:href="#DejaVuSans-35"/>
       <use xlink:href="#DejaVuSans-30" x="63.623047"/>
       <use xlink:href="#DejaVuSans-30" x="127.246094"/>
       <use xlink:href="#DejaVuSans-30" x="190.869141"/>
      </g>
     </g>
    </g>
    <g id="xtick_3">
     <g id="line2d_3">
      <g>
       <use xlink:href="#ma4ac3d2823" x="203.833047" y="256.32" style="stroke: #000000; stroke-width: 0.8"/>
      </g>
     </g>
     <g id="text_3">
      <!-- 10000 -->
      <g transform="translate(187.926797 270.918437) scale(0.1 -0.1)">
       <defs>
        <path id="DejaVuSans-31" d="M 794 531 
L 1825 531 
L 1825 4091 
L 703 3866 
L 703 4441 
L 1819 4666 
L 2450 4666 
L 2450 531 
L 3481 531 
L 3481 0 
L 794 0 
L 794 531 
z
" transform="scale(0.015625)"/>
       </defs>
       <use xlink:href="#DejaVuSans-31"/>
       <use xlink:href="#DejaVuSans-30" x="63.623047"/>
       <use xlink:href="#DejaVuSans-30" x="127.246094"/>
       <use xlink:href="#DejaVuSans-30" x="190.869141"/>
       <use xlink:href="#DejaVuSans-30" x="254.492188"/>
      </g>
     </g>
    </g>
    <g id="xtick_4">
     <g id="line2d_4">
      <g>
       <use xlink:href="#ma4ac3d2823" x="259.604115" y="256.32" style="stroke: #000000; stroke-width: 0.8"/>
      </g>
     </g>
     <g id="text_4">
      <!-- 15000 -->
      <g transform="translate(243.697865 270.918437) scale(0.1 -0.1)">
       <use xlink:href="#DejaVuSans-31"/>
       <use xlink:href="#DejaVuSans-35" x="63.623047"/>
       <use xlink:href="#DejaVuSans-30" x="127.246094"/>
       <use xlink:href="#DejaVuSans-30" x="190.869141"/>
       <use xlink:href="#DejaVuSans-30" x="254.492188"/>
      </g>
     </g>
    </g>
    <g id="xtick_5">
     <g id="line2d_5">
      <g>
       <use xlink:href="#ma4ac3d2823" x="315.375184" y="256.32" style="stroke: #000000; stroke-width: 0.8"/>
      </g>
     </g>
     <g id="text_5">
      <!-- 20000 -->
      <g transform="translate(299.468934 270.918437) scale(0.1 -0.1)">
       <defs>
        <path id="DejaVuSans-32" d="M 1228 531 
L 3431 531 
L 3431 0 
L 469 0 
L 469 531 
Q 828 903 1448 1529 
Q 2069 2156 2228 2338 
Q 2531 2678 2651 2914 
Q 2772 3150 2772 3378 
Q 2772 3750 2511 3984 
Q 2250 4219 1831 4219 
Q 1534 4219 1204 4116 
Q 875 4013 500 3803 
L 500 4441 
Q 881 4594 1212 4672 
Q 1544 4750 1819 4750 
Q 2544 4750 2975 4387 
Q 3406 4025 3406 3419 
Q 3406 3131 3298 2873 
Q 3191 2616 2906 2266 
Q 2828 2175 2409 1742 
Q 1991 1309 1228 531 
z
" transform="scale(0.015625)"/>
       </defs>
       <use xlink:href="#DejaVuSans-32"/>
       <use xlink:href="#DejaVuSans-30" x="63.623047"/>
       <use xlink:href="#DejaVuSans-30" x="127.246094"/>
       <use xlink:href="#DejaVuSans-30" x="190.869141"/>
       <use xlink:href="#DejaVuSans-30" x="254.492188"/>
      </g>
     </g>
    </g>
    <g id="xtick_6">
     <g id="line2d_6">
      <g>
       <use xlink:href="#ma4ac3d2823" x="371.146253" y="256.32" style="stroke: #000000; stroke-width: 0.8"/>
      </g>
     </g>
     <g id="text_6">
      <!-- 25000 -->
      <g transform="translate(355.240003 270.918437) scale(0.1 -0.1)">
       <use xlink:href="#DejaVuSans-32"/>
       <use xlink:href="#DejaVuSans-35" x="63.623047"/>
       <use xlink:href="#DejaVuSans-30" x="127.246094"/>
       <use xlink:href="#DejaVuSans-30" x="190.869141"/>
       <use xlink:href="#DejaVuSans-30" x="254.492188"/>
      </g>
     </g>
    </g>
    <g id="xtick_7">
     <g id="line2d_7">
      <g>
       <use xlink:href="#ma4ac3d2823" x="426.917322" y="256.32" style="stroke: #000000; stroke-width: 0.8"/>
      </g>
     </g>
     <g id="text_7">
      <!-- 30000 -->
      <g transform="translate(411.011072 270.918437) scale(0.1 -0.1)">
       <defs>
        <path id="DejaVuSans-33" d="M 2597 2516 
Q 3050 2419 3304 2112 
Q 3559 1806 3559 1356 
Q 3559 666 3084 287 
Q 2609 -91 1734 -91 
Q 1441 -91 1130 -33 
Q 819 25 488 141 
L 488 750 
Q 750 597 1062 519 
Q 1375 441 1716 441 
Q 2309 441 2620 675 
Q 2931 909 2931 1356 
Q 2931 1769 2642 2001 
Q 2353 2234 1838 2234 
L 1294 2234 
L 1294 2753 
L 1863 2753 
Q 2328 2753 2575 2939 
Q 2822 3125 2822 3475 
Q 2822 3834 2567 4026 
Q 2313 4219 1838 4219 
Q 1578 4219 1281 4162 
Q 984 4106 628 3988 
L 628 4550 
Q 988 4650 1302 4700 
Q 1616 4750 1894 4750 
Q 2613 4750 3031 4423 
Q 3450 4097 3450 3541 
Q 3450 3153 3228 2886 
Q 3006 2619 2597 2516 
z
" transform="scale(0.015625)"/>
       </defs>
       <use xlink:href="#DejaVuSans-33"/>
       <use xlink:href="#DejaVuSans-30" x="63.623047"/>
       <use xlink:href="#DejaVuSans-30" x="127.246094"/>
       <use xlink:href="#DejaVuSans-30" x="190.869141"/>
       <use xlink:href="#DejaVuSans-30" x="254.492188"/>
      </g>
     </g>
    </g>
    <g id="xtick_8">
     <g id="line2d_8">
      <g>
       <use xlink:href="#ma4ac3d2823" x="482.68839" y="256.32" style="stroke: #000000; stroke-width: 0.8"/>
      </g>
     </g>
     <g id="text_8">
      <!-- 35000 -->
      <g transform="translate(466.78214 270.918437) scale(0.1 -0.1)">
       <use xlink:href="#DejaVuSans-33"/>
       <use xlink:href="#DejaVuSans-35" x="63.623047"/>
       <use xlink:href="#DejaVuSans-30" x="127.246094"/>
       <use xlink:href="#DejaVuSans-30" x="190.869141"/>
       <use xlink:href="#DejaVuSans-30" x="254.492188"/>
      </g>
     </g>
    </g>
    <g id="text_9">
     <!-- Time from word start (samples) -->
     <g transform="translate(216.357031 284.596563) scale(0.1 -0.1)">
      <defs>
       <path id="DejaVuSans-54" d="M -19 4666 
L 3928 4666 
L 3928 4134 
L 2272 4134 
L 2272 0 
L 1638 0 
L 1638 4134 
L -19 4134 
L -19 4666 
z
" transform="scale(0.015625)"/>
       <path id="DejaVuSans-69" d="M 603 3500 
L 1178 3500 
L 1178 0 
L 603 0 
L 603 3500 
z
M 603 4863 
L 1178 4863 
L 1178 4134 
L 603 4134 
L 603 4863 
z
" transform="scale(0.015625)"/>
       <path id="DejaVuSans-6d" d="M 3328 2828 
Q 3544 3216 3844 3400 
Q 4144 3584 4550 3584 
Q 5097 3584 5394 3201 
Q 5691 2819 5691 2113 
L 5691 0 
L 5113 0 
L 5113 2094 
Q 5113 2597 4934 2840 
Q 4756 3084 4391 3084 
Q 3944 3084 3684 2787 
Q 3425 2491 3425 1978 
L 3425 0 
L 2847 0 
L 2847 2094 
Q 2847 2600 2669 2842 
Q 2491 3084 2119 3084 
Q 1678 3084 1418 2786 
Q 1159 2488 1159 1978 
L 1159 0 
L 581 0 
L 581 3500 
L 1159 3500 
L 1159 2956 
Q 1356 3278 1631 3431 
Q 1906 3584 2284 3584 
Q 2666 3584 2933 3390 
Q 3200 3197 3328 2828 
z
" transform="scale(0.015625)"/>
       <path id="DejaVuSans-65" d="M 3597 1894 
L 3597 1613 
L 953 1613 
Q 991 1019 1311 708 
Q 1631 397 2203 397 
Q 2534 397 2845 478 
Q 3156 559 3463 722 
L 3463 178 
Q 3153 47 2828 -22 
Q 2503 -91 2169 -91 
Q 1331 -91 842 396 
Q 353 884 353 1716 
Q 353 2575 817 3079 
Q 1281 3584 2069 3584 
Q 2775 3584 3186 3129 
Q 3597 2675 3597 1894 
z
M 3022 2063 
Q 3016 2534 2758 2815 
Q 2500 3097 2075 3097 
Q 1594 3097 1305 2825 
Q 1016 2553 972 2059 
L 3022 2063 
z
" transform="scale(0.015625)"/>
       <path id="DejaVuSans-20" transform="scale(0.015625)"/>
       <path id="DejaVuSans-66" d="M 2375 4863 
L 2375 4384 
L 1825 4384 
Q 1516 4384 1395 4259 
Q 1275 4134 1275 3809 
L 1275 3500 
L 2222 3500 
L 2222 3053 
L 1275 3053 
L 1275 0 
L 697 0 
L 697 3053 
L 147 3053 
L 147 3500 
L 697 3500 
L 697 3744 
Q 697 4328 969 4595 
Q 1241 4863 1831 4863 
L 2375 4863 
z
" transform="scale(0.015625)"/>
       <path id="DejaVuSans-72" d="M 2631 2963 
Q 2534 3019 2420 3045 
Q 2306 3072 2169 3072 
Q 1681 3072 1420 2755 
Q 1159 2438 1159 1844 
L 1159 0 
L 581 0 
L 581 3500 
L 1159 3500 
L 1159 2956 
Q 1341 3275 1631 3429 
Q 1922 3584 2338 3584 
Q 2397 3584 2469 3576 
Q 2541 3569 2628 3553 
L 2631 2963 
z
" transform="scale(0.015625)"/>
       <path id="DejaVuSans-6f" d="M 1959 3097 
Q 1497 3097 1228 2736 
Q 959 2375 959 1747 
Q 959 1119 1226 758 
Q 1494 397 1959 397 
Q 2419 397 2687 759 
Q 2956 1122 2956 1747 
Q 2956 2369 2687 2733 
Q 2419 3097 1959 3097 
z
M 1959 3584 
Q 2709 3584 3137 3096 
Q 3566 2609 3566 1747 
Q 3566 888 3137 398 
Q 2709 -91 1959 -91 
Q 1206 -91 779 398 
Q 353 888 353 1747 
Q 353 2609 779 3096 
Q 1206 3584 1959 3584 
z
" transform="scale(0.015625)"/>
       <path id="DejaVuSans-77" d="M 269 3500 
L 844 3500 
L 1563 769 
L 2278 3500 
L 2956 3500 
L 3675 769 
L 4391 3500 
L 4966 3500 
L 4050 0 
L 3372 0 
L 2619 2869 
L 1863 0 
L 1184 0 
L 269 3500 
z
" transform="scale(0.015625)"/>
       <path id="DejaVuSans-64" d="M 2906 2969 
L 2906 4863 
L 3481 4863 
L 3481 0 
L 2906 0 
L 2906 525 
Q 2725 213 2448 61 
Q 2172 -91 1784 -91 
Q 1150 -91 751 415 
Q 353 922 353 1747 
Q 353 2572 751 3078 
Q 1150 3584 1784 3584 
Q 2172 3584 2448 3432 
Q 2725 3281 2906 2969 
z
M 947 1747 
Q 947 1113 1208 752 
Q 1469 391 1925 391 
Q 2381 391 2643 752 
Q 2906 1113 2906 1747 
Q 2906 2381 2643 2742 
Q 2381 3103 1925 3103 
Q 1469 3103 1208 2742 
Q 947 2381 947 1747 
z
" transform="scale(0.015625)"/>
       <path id="DejaVuSans-73" d="M 2834 3397 
L 2834 2853 
Q 2591 2978 2328 3040 
Q 2066 3103 1784 3103 
Q 1356 3103 1142 2972 
Q 928 2841 928 2578 
Q 928 2378 1081 2264 
Q 1234 2150 1697 2047 
L 1894 2003 
Q 2506 1872 2764 1633 
Q 3022 1394 3022 966 
Q 3022 478 2636 193 
Q 2250 -91 1575 -91 
Q 1294 -91 989 -36 
Q 684 19 347 128 
L 347 722 
Q 666 556 975 473 
Q 1284 391 1588 391 
Q 1994 391 2212 530 
Q 2431 669 2431 922 
Q 2431 1156 2273 1281 
Q 2116 1406 1581 1522 
L 1381 1569 
Q 847 1681 609 1914 
Q 372 2147 372 2553 
Q 372 3047 722 3315 
Q 1072 3584 1716 3584 
Q 2034 3584 2315 3537 
Q 2597 3491 2834 3397 
z
" transform="scale(0.015625)"/>
       <path id="DejaVuSans-74" d="M 1172 4494 
L 1172 3500 
L 2356 3500 
L 2356 3053 
L 1172 3053 
L 1172 1153 
Q 1172 725 1289 603 
Q 1406 481 1766 481 
L 2356 481 
L 2356 0 
L 1766 0 
Q 1100 0 847 248 
Q 594 497 594 1153 
L 594 3053 
L 172 3053 
L 172 3500 
L 594 3500 
L 594 4494 
L 1172 4494 
z
" transform="scale(0.015625)"/>
       <path id="DejaVuSans-61" d="M 2194 1759 
Q 1497 1759 1228 1600 
Q 959 1441 959 1056 
Q 959 750 1161 570 
Q 1363 391 1709 391 
Q 2188 391 2477 730 
Q 2766 1069 2766 1631 
L 2766 1759 
L 2194 1759 
z
M 3341 1997 
L 3341 0 
L 2766 0 
L 2766 531 
Q 2569 213 2275 61 
Q 1981 -91 1556 -91 
Q 1019 -91 701 211 
Q 384 513 384 1019 
Q 384 1609 779 1909 
Q 1175 2209 1959 2209 
L 2766 2209 
L 2766 2266 
Q 2766 2663 2505 2880 
Q 2244 3097 1772 3097 
Q 1472 3097 1187 3025 
Q 903 2953 641 2809 
L 641 3341 
Q 956 3463 1253 3523 
Q 1550 3584 1831 3584 
Q 2591 3584 2966 3190 
Q 3341 2797 3341 1997 
z
" transform="scale(0.015625)"/>
       <path id="DejaVuSans-28" d="M 1984 4856 
Q 1566 4138 1362 3434 
Q 1159 2731 1159 2009 
Q 1159 1288 1364 580 
Q 1569 -128 1984 -844 
L 1484 -844 
Q 1016 -109 783 600 
Q 550 1309 550 2009 
Q 550 2706 781 3412 
Q 1013 4119 1484 4856 
L 1984 4856 
z
" transform="scale(0.015625)"/>
       <path id="DejaVuSans-70" d="M 1159 525 
L 1159 -1331 
L 581 -1331 
L 581 3500 
L 1159 3500 
L 1159 2969 
Q 1341 3281 1617 3432 
Q 1894 3584 2278 3584 
Q 2916 3584 3314 3078 
Q 3713 2572 3713 1747 
Q 3713 922 3314 415 
Q 2916 -91 2278 -91 
Q 1894 -91 1617 61 
Q 1341 213 1159 525 
z
M 3116 1747 
Q 3116 2381 2855 2742 
Q 2594 3103 2138 3103 
Q 1681 3103 1420 2742 
Q 1159 2381 1159 1747 
Q 1159 1113 1420 752 
Q 1681 391 2138 391 
Q 2594 391 2855 752 
Q 3116 1113 3116 1747 
z
" transform="scale(0.015625)"/>
       <path id="DejaVuSans-6c" d="M 603 4863 
L 1178 4863 
L 1178 0 
L 603 0 
L 603 4863 
z
" transform="scale(0.015625)"/>
       <path id="DejaVuSans-29" d="M 513 4856 
L 1013 4856 
Q 1481 4119 1714 3412 
Q 1947 2706 1947 2009 
Q 1947 1309 1714 600 
Q 1481 -109 1013 -844 
L 513 -844 
Q 928 -128 1133 580 
Q 1338 1288 1338 2009 
Q 1338 2731 1133 3434 
Q 928 4138 513 4856 
z
" transform="scale(0.015625)"/>
      </defs>
      <use xlink:href="#DejaVuSans-54"/>
      <use xlink:href="#DejaVuSans-69" x="57.958984"/>
      <use xlink:href="#DejaVuSans-6d" x="85.742188"/>
      <use xlink:href="#DejaVuSans-65" x="183.154297"/>
      <use xlink:href="#DejaVuSans-20" x="244.677734"/>
      <use xlink:href="#DejaVuSans-66" x="276.464844"/>
      <use xlink:href="#DejaVuSans-72" x="311.669922"/>
      <use xlink:href="#DejaVuSans-6f" x="350.533203"/>
      <use xlink:href="#DejaVuSans-6d" x="411.714844"/>
      <use xlink:href="#DejaVuSans-20" x="509.126953"/>
      <use xlink:href="#DejaVuSans-77" x="540.914062"/>
      <use xlink:href="#DejaVuSans-6f" x="622.701172"/>
      <use xlink:href="#DejaVuSans-72" x="683.882812"/>
      <use xlink:href="#DejaVuSans-64" x="723.246094"/>
      <use xlink:href="#DejaVuSans-20" x="786.722656"/>
      <use xlink:href="#DejaVuSans-73" x="818.509766"/>
      <use xlink:href="#DejaVuSans-74" x="870.609375"/>
      <use xlink:href="#DejaVuSans-61" x="909.818359"/>
      <use xlink:href="#DejaVuSans-72" x="971.097656"/>
      <use xlink:href="#DejaVuSans-74" x="1012.210938"/>
      <use xlink:href="#DejaVuSans-20" x="1051.419922"/>
      <use xlink:href="#DejaVuSans-28" x="1083.207031"/>
      <use xlink:href="#DejaVuSans-73" x="1122.220703"/>
      <use xlink:href="#DejaVuSans-61" x="1174.320312"/>
      <use xlink:href="#DejaVuSans-6d" x="1235.599609"/>
      <use xlink:href="#DejaVuSans-70" x="1333.011719"/>
      <use xlink:href="#DejaVuSans-6c" x="1396.488281"/>
      <use xlink:href="#DejaVuSans-65" x="1424.271484"/>
      <use xlink:href="#DejaVuSans-73" x="1485.794922"/>
      <use xlink:href="#DejaVuSans-29" x="1537.894531"/>
     </g>
    </g>
   </g>
   <g id="matplotlib.axis_2">
    <g id="ytick_1">
     <g id="line2d_9">
      <defs>
       <path id="m32137ddc11" d="M 0 0 
L -3.5 0 
" style="stroke: #000000; stroke-width: 0.8"/>
      </defs>
      <g>
       <use xlink:href="#m32137ddc11" x="72" y="249.326808" style="stroke: #000000; stroke-width: 0.8"/>
      </g>
     </g>
     <g id="text_10">
      <!-- −0.75 -->
      <g transform="translate(34.354687 253.126027) scale(0.1 -0.1)">
       <defs>
        <path id="DejaVuSans-2212" d="M 678 2272 
L 4684 2272 
L 4684 1741 
L 678 1741 
L 678 2272 
z
" transform="scale(0.015625)"/>
        <path id="DejaVuSans-2e" d="M 684 794 
L 1344 794 
L 1344 0 
L 684 0 
L 684 794 
z
" transform="scale(0.015625)"/>
        <path id="DejaVuSans-37" d="M 525 4666 
L 3525 4666 
L 3525 4397 
L 1831 0 
L 1172 0 
L 2766 4134 
L 525 4134 
L 525 4666 
z
" transform="scale(0.015625)"/>
       </defs>
       <use xlink:href="#DejaVuSans-2212"/>
       <use xlink:href="#DejaVuSans-30" x="83.789062"/>
       <use xlink:href="#DejaVuSans-2e" x="147.412109"/>
       <use xlink:href="#DejaVuSans-37" x="179.199219"/>
       <use xlink:href="#DejaVuSans-35" x="242.822266"/>
      </g>
     </g>
    </g>
    <g id="ytick_2">
     <g id="line2d_10">
      <g>
       <use xlink:href="#m32137ddc11" x="72" y="221.394926" style="stroke: #000000; stroke-width: 0.8"/>
      </g>
     </g>
     <g id="text_11">
      <!-- −0.50 -->
      <g transform="translate(34.354687 225.194145) scale(0.1 -0.1)">
       <use xlink:href="#DejaVuSans-2212"/>
       <use xlink:href="#DejaVuSans-30" x="83.789062"/>
       <use xlink:href="#DejaVuSans-2e" x="147.412109"/>
       <use xlink:href="#DejaVuSans-35" x="179.199219"/>
       <use xlink:href="#DejaVuSans-30" x="242.822266"/>
      </g>
     </g>
    </g>
    <g id="ytick_3">
     <g id="line2d_11">
      <g>
       <use xlink:href="#m32137ddc11" x="72" y="193.463045" style="stroke: #000000; stroke-width: 0.8"/>
      </g>
     </g>
     <g id="text_12">
      <!-- −0.25 -->
      <g transform="translate(34.354687 197.262263) scale(0.1 -0.1)">
       <use xlink:href="#DejaVuSans-2212"/>
       <use xlink:href="#DejaVuSans-30" x="83.789062"/>
       <use xlink:href="#DejaVuSans-2e" x="147.412109"/>
       <use xlink:href="#DejaVuSans-32" x="179.199219"/>
       <use xlink:href="#DejaVuSans-35" x="242.822266"/>
      </g>
     </g>
    </g>
    <g id="ytick_4">
     <g id="line2d_12">
      <g>
       <use xlink:href="#m32137ddc11" x="72" y="165.531163" style="stroke: #000000; stroke-width: 0.8"/>
      </g>
     </g>
     <g id="text_13">
      <!-- 0.00 -->
      <g transform="translate(42.734375 169.330382) scale(0.1 -0.1)">
       <use xlink:href="#DejaVuSans-30"/>
       <use xlink:href="#DejaVuSans-2e" x="63.623047"/>
       <use xlink:href="#DejaVuSans-30" x="95.410156"/>
       <use xlink:href="#DejaVuSans-30" x="159.033203"/>
      </g>
     </g>
    </g>
    <g id="ytick_5">
     <g id="line2d_13">
      <g>
       <use xlink:href="#m32137ddc11" x="72" y="137.599281" style="stroke: #000000; stroke-width: 0.8"/>
      </g>
     </g>
     <g id="text_14">
      <!-- 0.25 -->
      <g transform="translate(42.734375 141.3985) scale(0.1 -0.1)">
       <use xlink:href="#DejaVuSans-30"/>
       <use xlink:href="#DejaVuSans-2e" x="63.623047"/>
       <use xlink:href="#DejaVuSans-32" x="95.410156"/>
       <use xlink:href="#DejaVuSans-35" x="159.033203"/>
      </g>
     </g>
    </g>
    <g id="ytick_6">
     <g id="line2d_14">
      <g>
       <use xlink:href="#m32137ddc11" x="72" y="109.6674" style="stroke: #000000; stroke-width: 0.8"/>
      </g>
     </g>
     <g id="text_15">
      <!-- 0.50 -->
      <g transform="translate(42.734375 113.466618) scale(0.1 -0.1)">
       <use xlink:href="#DejaVuSans-30"/>
       <use xlink:href="#DejaVuSans-2e" x="63.623047"/>
       <use xlink:href="#DejaVuSans-35" x="95.410156"/>
       <use xlink:href="#DejaVuSans-30" x="159.033203"/>
      </g>
     </g>
    </g>
    <g id="ytick_7">
     <g id="line2d_15">
      <g>
       <use xlink:href="#m32137ddc11" x="72" y="81.735518" style="stroke: #000000; stroke-width: 0.8"/>
      </g>
     </g>
     <g id="text_16">
      <!-- 0.75 -->
      <g transform="translate(42.734375 85.534737) scale(0.1 -0.1)">
       <use xlink:href="#DejaVuSans-30"/>
       <use xlink:href="#DejaVuSans-2e" x="63.623047"/>
       <use xlink:href="#DejaVuSans-37" x="95.410156"/>
       <use xlink:href="#DejaVuSans-35" x="159.033203"/>
      </g>
     </g>
    </g>
    <g id="ytick_8">
     <g id="line2d_16">
      <g>
       <use xlink:href="#m32137ddc11" x="72" y="53.803636" style="stroke: #000000; stroke-width: 0.8"/>
      </g>
     </g>
     <g id="text_17">
      <!-- 1.00 -->
      <g transform="translate(42.734375 57.602855) scale(0.1 -0.1)">
       <use xlink:href="#DejaVuSans-31"/>
       <use xlink:href="#DejaVuSans-2e" x="63.623047"/>
       <use xlink:href="#DejaVuSans-30" x="95.410156"/>
       <use xlink:href="#DejaVuSans-30" x="159.033203"/>
      </g>
     </g>
    </g>
    <g id="text_18">
     <!-- Normalized amplitude/HNR -->
     <g transform="translate(28.275 213.310313) rotate(-90) scale(0.1 -0.1)">
      <defs>
       <path id="DejaVuSans-4e" d="M 628 4666 
L 1478 4666 
L 3547 763 
L 3547 4666 
L 4159 4666 
L 4159 0 
L 3309 0 
L 1241 3903 
L 1241 0 
L 628 0 
L 628 4666 
z
" transform="scale(0.015625)"/>
       <path id="DejaVuSans-7a" d="M 353 3500 
L 3084 3500 
L 3084 2975 
L 922 459 
L 3084 459 
L 3084 0 
L 275 0 
L 275 525 
L 2438 3041 
L 353 3041 
L 353 3500 
z
" transform="scale(0.015625)"/>
       <path id="DejaVuSans-75" d="M 544 1381 
L 544 3500 
L 1119 3500 
L 1119 1403 
Q 1119 906 1312 657 
Q 1506 409 1894 409 
Q 2359 409 2629 706 
Q 2900 1003 2900 1516 
L 2900 3500 
L 3475 3500 
L 3475 0 
L 2900 0 
L 2900 538 
Q 2691 219 2414 64 
Q 2138 -91 1772 -91 
Q 1169 -91 856 284 
Q 544 659 544 1381 
z
M 1991 3584 
L 1991 3584 
z
" transform="scale(0.015625)"/>
       <path id="DejaVuSans-2f" d="M 1625 4666 
L 2156 4666 
L 531 -594 
L 0 -594 
L 1625 4666 
z
" transform="scale(0.015625)"/>
       <path id="DejaVuSans-48" d="M 628 4666 
L 1259 4666 
L 1259 2753 
L 3553 2753 
L 3553 4666 
L 4184 4666 
L 4184 0 
L 3553 0 
L 3553 2222 
L 1259 2222 
L 1259 0 
L 628 0 
L 628 4666 
z
" transform="scale(0.015625)"/>
       <path id="DejaVuSans-52" d="M 2841 2188 
Q 3044 2119 3236 1894 
Q 3428 1669 3622 1275 
L 4263 0 
L 3584 0 
L 2988 1197 
Q 2756 1666 2539 1819 
Q 2322 1972 1947 1972 
L 1259 1972 
L 1259 0 
L 628 0 
L 628 4666 
L 2053 4666 
Q 2853 4666 3247 4331 
Q 3641 3997 3641 3322 
Q 3641 2881 3436 2590 
Q 3231 2300 2841 2188 
z
M 1259 4147 
L 1259 2491 
L 2053 2491 
Q 2509 2491 2742 2702 
Q 2975 2913 2975 3322 
Q 2975 3731 2742 3939 
Q 2509 4147 2053 4147 
L 1259 4147 
z
" transform="scale(0.015625)"/>
      </defs>
      <use xlink:href="#DejaVuSans-4e"/>
      <use xlink:href="#DejaVuSans-6f" x="74.804688"/>
      <use xlink:href="#DejaVuSans-72" x="135.986328"/>
      <use xlink:href="#DejaVuSans-6d" x="175.349609"/>
      <use xlink:href="#DejaVuSans-61" x="272.761719"/>
      <use xlink:href="#DejaVuSans-6c" x="334.041016"/>
      <use xlink:href="#DejaVuSans-69" x="361.824219"/>
      <use xlink:href="#DejaVuSans-7a" x="389.607422"/>
      <use xlink:href="#DejaVuSans-65" x="442.097656"/>
      <use xlink:href="#DejaVuSans-64" x="503.621094"/>
      <use xlink:href="#DejaVuSans-20" x="567.097656"/>
      <use xlink:href="#DejaVuSans-61" x="598.884766"/>
      <use xlink:href="#DejaVuSans-6d" x="660.164062"/>
      <use xlink:href="#DejaVuSans-70" x="757.576172"/>
      <use xlink:href="#DejaVuSans-6c" x="821.052734"/>
      <use xlink:href="#DejaVuSans-69" x="848.835938"/>
      <use xlink:href="#DejaVuSans-74" x="876.619141"/>
      <use xlink:href="#DejaVuSans-75" x="915.828125"/>
      <use xlink:href="#DejaVuSans-64" x="979.207031"/>
      <use xlink:href="#DejaVuSans-65" x="1042.683594"/>
      <use xlink:href="#DejaVuSans-2f" x="1104.207031"/>
      <use xlink:href="#DejaVuSans-48" x="1137.898438"/>
      <use xlink:href="#DejaVuSans-4e" x="1213.09375"/>
      <use xlink:href="#DejaVuSans-52" x="1287.898438"/>
     </g>
    </g>
   </g>
   <g id="line2d_17">
    <path d="M 92.290909 165.531163 
L 136.550829 165.531163 
L 136.6066 156.764812 
L 136.662371 156.991695 
L 136.796222 157.706133 
L 137.075077 161.867253 
L 137.599325 170.850832 
L 138.023185 174.746451 
L 138.056648 174.480951 
L 138.16819 173.954776 
L 138.759364 166.491793 
L 138.770518 166.515929 
L 138.926677 167.732405 
L 138.971294 168.379261 
L 139.038219 167.766196 
L 139.060527 167.674478 
L 139.09399 168.046179 
L 139.116298 168.248925 
L 139.149761 167.582759 
L 139.841322 145.285527 
L 139.897093 146.40063 
L 140.131332 156.856531 
L 140.800585 190.222729 
L 140.86751 189.966883 
L 140.945589 187.649786 
L 141.79331 151.034824 
L 141.860235 151.208606 
L 142.016394 153.525703 
L 142.518334 168.142724 
L 142.696801 170.247421 
L 142.719109 170.203975 
L 142.808343 169.861238 
L 143.455288 159.101218 
L 143.511059 159.139837 
L 143.611447 160.090812 
L 144.671097 173.138965 
L 144.693405 173.129311 
L 144.70456 173.143792 
L 144.738022 173.008628 
L 144.760331 173.071383 
L 144.771485 173.124483 
L 144.816102 172.805882 
L 144.972261 170.03502 
L 145.574588 158.159898 
L 145.663822 158.879163 
L 146.020757 163.691967 
L 146.065374 163.653349 
L 146.10999 163.889886 
L 146.132299 163.600249 
L 146.634238 151.903735 
L 146.723472 152.159582 
L 146.846169 155.00768 
L 147.191949 172.617618 
L 147.515421 185.955409 
L 147.638118 187.418076 
L 147.660426 187.273258 
L 147.805431 184.217586 
L 148.017361 175.596054 
L 148.474684 157.064104 
L 148.608534 155.437309 
L 148.653151 155.726946 
L 149.09932 164.285723 
L 149.400483 170.141221 
L 149.433946 170.276385 
L 149.567797 170.908759 
L 149.601259 170.686704 
L 149.723956 169.779174 
L 150.303975 162.678237 
L 150.359746 162.446527 
L 150.460134 162.654101 
L 150.538213 163.083729 
L 150.593984 162.914774 
L 150.616293 162.798919 
L 150.672064 163.156138 
L 150.895148 164.194005 
L 150.939765 164.305032 
L 151.00669 164.203659 
L 151.017844 164.174696 
L 151.051307 164.324341 
L 151.21862 164.671906 
L 151.229775 164.691215 
L 151.263237 164.536742 
L 151.43055 164.189177 
L 151.452859 164.227796 
L 151.497476 164.092632 
L 151.609018 163.600249 
L 152.233654 161.495552 
L 152.255962 161.514861 
L 152.300579 161.408661 
L 152.334042 161.601752 
L 152.947523 165.946309 
L 153.293304 168.635108 
L 153.817552 171.661816 
L 153.839861 171.401142 
L 154.520268 150.547268 
L 154.642964 148.693591 
L 154.676427 149.026673 
L 154.787969 151.203779 
L 154.966436 158.883991 
L 155.546455 187.065684 
L 155.635689 188.137342 
L 155.680306 187.727022 
L 155.814156 184.454123 
L 156.104166 170.60464 
L 156.494563 154.206351 
L 156.650722 153.120211 
L 156.684185 152.92712 
L 156.739956 153.182966 
L 156.862652 155.268354 
L 157.476134 172.366599 
L 157.643447 173.472048 
L 157.654602 173.481702 
L 157.665756 173.399639 
L 157.96692 168.606144 
L 158.691944 154.689079 
L 158.859257 153.593285 
L 158.937336 154.177387 
L 159.138112 155.615918 
L 159.294271 158.502635 
L 159.517355 163.426466 
L 159.930061 173.327229 
L 160.264688 177.623513 
L 160.286996 177.41594 
L 160.387384 177.285603 
L 160.844707 171.159778 
L 161.123562 167.925497 
L 161.157025 167.819296 
L 161.190487 168.017215 
L 161.22395 167.968942 
L 161.357801 169.050254 
L 161.447034 171.005305 
L 161.502805 169.904684 
L 161.737044 163.817476 
L 161.792815 161.775535 
L 162.172058 136.393667 
L 162.227829 135.119263 
L 162.272446 136.099202 
L 162.57361 152.965738 
L 162.975162 186.780874 
L 163.220554 194.54315 
L 163.276325 195.243106 
L 163.320942 194.354886 
L 163.599798 182.793536 
L 164.157508 151.276188 
L 164.302513 149.142528 
L 164.358284 149.716975 
L 164.692911 160.332176 
L 164.971766 170.633604 
L 165.183696 174.080286 
L 165.19485 174.070631 
L 165.239467 173.978913 
L 165.40678 172.318327 
L 166.020262 156.180711 
L 166.165267 154.689079 
L 166.209884 155.036644 
L 166.354888 155.765564 
L 166.388351 156.079338 
L 167.436847 175.238834 
L 167.459156 175.156771 
L 167.838399 169.663319 
L 168.340338 161.007996 
L 168.429572 160.013575 
L 168.753044 156.943422 
L 168.81997 156.764812 
L 168.864586 156.933767 
L 168.875741 156.914458 
L 168.898049 157.025486 
L 169.399989 163.387848 
L 169.734615 170.879795 
L 169.980008 173.969258 
L 170.191938 173.776167 
L 170.548873 169.354373 
L 170.80542 166.173192 
L 171.140046 163.339575 
L 171.307359 162.871329 
L 171.318514 162.914774 
L 171.508135 163.860922 
L 171.775836 166.511102 
L 171.909687 167.027621 
L 171.820453 166.458002 
L 171.943149 166.897285 
L 172.121617 165.424963 
L 172.523169 157.146168 
L 172.690482 156.117956 
L 172.735099 156.426902 
L 172.947029 160.375622 
L 173.63859 176.098091 
L 173.738978 176.233255 
L 173.761286 176.131882 
L 173.805903 176.228428 
L 174.017833 173.332057 
L 174.307843 166.274565 
L 174.597852 161.901044 
L 174.709395 161.263842 
L 174.742857 161.341079 
L 175.612886 169.808138 
L 175.679811 169.576428 
L 175.757891 169.489537 
L 175.869433 168.818544 
L 177.152167 153.028493 
L 177.163322 153.023666 
L 177.174476 153.100902 
L 177.464485 157.257195 
L 177.832574 166.950385 
L 178.144892 172.5259 
L 178.334514 174.065804 
L 178.434902 173.93064 
L 178.490673 173.703758 
L 178.758374 171.753534 
L 178.914533 171.06806 
L 179.17108 169.69711 
L 179.182234 169.721247 
L 179.226851 170.155703 
L 179.316085 169.92882 
L 179.371856 170.165357 
L 179.416473 169.895029 
L 179.561477 169.475055 
L 179.628403 169.016463 
L 179.695328 169.166109 
L 179.706482 169.127491 
L 179.739945 169.281964 
L 179.762253 169.233691 
L 179.985338 170.628777 
L 179.996492 170.556367 
L 180.342272 163.112693 
L 180.643436 145.613782 
L 180.877675 140.19274 
L 180.888829 140.202395 
L 180.955754 142.369846 
L 181.334997 166.26491 
L 181.680778 187.794604 
L 181.892708 193.070828 
L 181.915017 192.9598 
L 182.08233 189.875164 
L 182.361185 175.407789 
L 182.829662 152.796783 
L 182.996975 150.363831 
L 183.019284 150.460377 
L 183.153134 151.314807 
L 183.43199 157.894397 
L 183.9897 168.96819 
L 184.06778 169.513674 
L 184.134705 169.233691 
L 184.157014 169.3061 
L 184.20163 169.156454 
L 184.246247 169.238518 
L 184.357789 168.673726 
L 184.826266 165.888382 
L 184.848575 165.99941 
L 185.004734 166.327665 
L 184.882037 165.984928 
L 185.015888 166.322838 
L 185.038196 166.448347 
L 185.060505 166.626957 
L 185.12743 166.371111 
L 185.149739 166.506275 
L 185.238972 166.689711 
L 185.283589 166.641439 
L 185.428594 166.361456 
L 185.439748 166.375938 
L 185.473211 166.472484 
L 185.495519 166.588338 
L 185.55129 166.31801 
L 185.941688 162.504455 
L 185.986305 162.065172 
L 186.332085 157.175131 
L 186.465936 156.171056 
L 186.510553 156.53793 
L 186.800562 159.439128 
L 187.124034 167.051758 
L 187.458661 173.863058 
L 187.637128 175.528472 
L 187.715208 175.446408 
L 187.74867 175.610535 
L 187.793287 175.345035 
L 188.551774 165.53599 
L 188.663316 166.10561 
L 188.75255 165.854591 
L 188.774858 166.076646 
L 188.852938 166.472484 
L 188.908709 166.429038 
L 188.96448 166.327665 
L 188.997942 166.071819 
L 189.053713 166.520756 
L 189.076022 166.44352 
L 189.265643 162.639619 
L 189.667195 148.225344 
L 189.745275 146.661303 
L 189.801046 147.332296 
L 189.923742 150.107985 
L 190.369911 172.772091 
L 190.782617 185.945754 
L 190.849542 186.457446 
L 190.894159 186.090573 
L 191.139551 180.626085 
L 191.50764 163.865749 
L 191.831113 153.062284 
L 192.065351 146.598549 
L 192.098814 145.10209 
L 192.143431 148.201207 
L 192.232664 152.212682 
L 192.277281 150.957588 
L 192.310744 150.272113 
L 192.344206 151.918217 
L 192.611908 168.031697 
L 192.734604 178.854471 
L 192.768067 180.312312 
L 192.834992 178.313815 
L 192.890763 175.967754 
L 192.93538 177.792468 
L 192.991151 180.611603 
L 193.046922 179.018599 
L 193.169618 171.285287 
L 193.258852 171.45907 
L 193.459628 164.57536 
L 193.548862 166.293874 
L 193.582324 167.027621 
L 193.626941 165.99941 
L 193.716175 162.451355 
L 193.771946 164.116768 
L 193.838871 166.091128 
L 193.883488 164.705697 
L 193.961567 161.442452 
L 194.017339 162.461009 
L 194.061955 163.281648 
L 194.117726 162.321018 
L 194.307348 156.967558 
L 194.340811 157.165477 
L 194.374273 157.315123 
L 194.396582 157.059277 
L 194.530432 152.569901 
L 194.597358 154.66977 
L 194.664283 156.185538 
L 194.720054 155.340763 
L 194.753517 155.046298 
L 194.775825 155.509718 
L 195.177377 172.801055 
L 195.255456 170.377758 
L 195.277765 170.237766 
L 195.300073 170.778422 
L 195.400461 173.858231 
L 195.445078 172.245917 
L 195.813167 152.246473 
L 195.880092 151.527207 
L 195.935863 151.869944 
L 195.958172 151.971317 
L 195.98048 151.802362 
L 196.047405 151.107233 
L 196.092022 151.546516 
L 196.181256 157.913706 
L 196.527037 177.454558 
L 196.683196 180.959168 
L 196.761275 182.634236 
L 196.805892 181.581888 
L 197.218598 168.07997 
L 197.296677 168.625453 
L 197.352448 168.369607 
L 197.397065 167.809642 
L 197.441682 168.215134 
L 197.921313 180.22542 
L 197.954776 180.601949 
L 198.077472 182.392872 
L 198.122089 182.045307 
L 198.189014 181.07985 
L 198.233631 181.765325 
L 198.545949 189.542082 
L 198.579412 187.751159 
L 198.646337 163.875404 
L 198.702108 147.124723 
L 198.757879 160.756977 
L 198.780188 163.764376 
L 198.824805 152.632656 
L 198.947501 102.752313 
L 199.014426 110.847671 
L 199.036735 112.044838 
L 199.070197 107.121006 
L 199.170585 85.711995 
L 199.226356 91.432328 
L 199.850992 220.538083 
L 199.873301 218.776124 
L 200.286007 156.499311 
L 200.352932 160.216321 
L 200.37524 160.834214 
L 200.397549 159.366719 
L 200.509091 142.833266 
L 200.564862 149.557675 
L 200.676404 163.518185 
L 200.754484 163.305784 
L 200.854872 176.855975 
L 200.944105 186.98362 
L 200.999876 183.189374 
L 201.044493 181.007441 
L 201.100264 184.038976 
L 201.156035 187.413249 
L 201.200652 183.981049 
L 201.457199 159.646702 
L 201.602204 146.50683 
L 201.646821 147.921225 
L 201.713746 150.576232 
L 201.769517 149.253556 
L 201.80298 148.403953 
L 201.847597 149.905239 
L 202.22684 174.509914 
L 202.260302 174.954025 
L 202.304919 174.080286 
L 202.405307 171.961107 
L 202.461078 172.574173 
L 202.505695 172.75761 
L 202.539158 172.318327 
L 202.695317 166.766948 
L 202.751088 167.804814 
L 202.795705 168.398571 
L 202.840322 167.775851 
L 202.918401 166.646266 
L 202.951864 167.587587 
L 203.342261 179.404782 
L 203.375724 179.148936 
L 203.442649 178.000042 
L 203.49842 178.878608 
L 203.654579 180.331621 
L 203.721504 181.818425 
L 203.799584 184.381713 
L 203.833047 182.682509 
L 203.933435 149.808694 
L 203.966897 145.908247 
L 204.011514 154.080841 
L 204.044977 158.145416 
L 204.089594 147.824679 
L 204.21229 105.127337 
L 204.279215 112.421366 
L 204.301524 113.396478 
L 204.334986 110.012551 
L 204.435374 94.739019 
L 204.491145 100.662098 
L 205.015393 203.753611 
L 205.104627 215.170141 
L 205.149244 209.893918 
L 205.539641 150.851387 
L 205.550796 150.841733 
L 205.651183 158.946745 
L 205.718109 153.390539 
L 205.751571 151.68168 
L 205.796188 155.046298 
L 206.164277 194.47074 
L 206.186586 195.315515 
L 206.231203 192.718436 
L 206.677371 153.926368 
L 206.844684 146.55993 
L 206.91161 149.132874 
L 207.368932 176.358765 
L 207.447012 176.855975 
L 207.491629 176.479447 
L 207.603171 173.056901 
L 207.870872 166.795912 
L 207.948951 168.934399 
L 208.562433 190.010328 
L 208.618204 189.566218 
L 208.640513 189.546909 
L 208.651667 189.657937 
L 208.696284 192.588099 
L 208.740901 197.927077 
L 208.774363 193.177028 
L 208.874751 136.644686 
L 208.963985 158.72469 
L 209.008602 143.760105 
L 209.131298 84.915492 
L 209.187069 94.063199 
L 209.220532 98.480165 
L 209.276303 91.432328 
L 209.365537 82.477713 
L 209.410153 86.720897 
L 209.767088 216.753491 
L 209.800551 222.435206 
L 209.856322 213.67851 
L 209.912093 208.020931 
L 209.967864 213.210263 
L 210.012481 218.109958 
L 210.057098 213.277845 
L 210.469804 131.952564 
L 210.480958 132.49322 
L 210.860201 189.662764 
L 210.927127 194.605904 
L 210.982898 192.525344 
L 211.01636 191.444032 
L 211.049823 193.205992 
L 211.127902 200.466229 
L 211.172519 195.363788 
L 211.5183 145.584819 
L 211.562917 142.360192 
L 211.607534 145.927556 
L 211.696767 153.42433 
L 211.752538 151.454798 
L 211.797155 149.948685 
L 211.830618 151.449971 
L 212.209861 185.96989 
L 212.221015 185.892654 
L 212.287941 179.699246 
L 212.388329 172.144544 
L 212.4441 173.216202 
L 212.466408 173.520321 
L 212.499871 172.627273 
L 212.633721 162.205163 
L 212.700647 166.086301 
L 212.778726 171.082541 
L 212.845651 169.450919 
L 212.856806 169.335064 
L 212.879114 169.798483 
L 213.336437 195.928581 
L 213.403362 192.308116 
L 213.414516 191.936415 
L 213.470287 193.674238 
L 213.548367 202.551617 
L 213.581829 196.797492 
L 213.693372 123.417923 
L 213.793759 147.018522 
L 213.882993 94.507309 
L 213.961073 65.504977 
L 214.00569 76.549806 
L 214.083769 92.084012 
L 214.13954 87.807037 
L 214.195311 82.810796 
L 214.228774 85.866468 
L 214.318008 141.312671 
L 214.407241 171.410797 
L 214.463012 169.726074 
L 214.507629 178.115897 
L 214.630326 229.555453 
L 214.697251 216.425236 
L 214.808793 195.474816 
L 214.875718 195.508607 
L 214.953798 180.674358 
L 215.076494 141.82919 
L 215.143419 153.844304 
L 215.19919 160.037712 
L 215.254961 154.124287 
L 215.310733 147.955016 
L 215.344195 152.758165 
L 215.533817 192.057098 
L 215.578434 189.976537 
L 215.600742 189.160726 
L 215.634205 191.11095 
L 215.745747 205.322479 
L 215.790364 200.857239 
L 216.147299 140.694778 
L 216.191915 137.764616 
L 216.247687 139.594157 
L 216.359229 148.746691 
L 216.448462 148.708072 
L 216.582313 168.442016 
L 216.738472 173.800303 
L 216.816551 176.986312 
L 216.894631 179.477191 
L 216.928094 178.37657 
L 217.05079 168.977845 
L 217.140024 171.014959 
L 217.162332 171.072887 
L 217.173486 170.952205 
L 217.273874 167.988251 
L 217.318491 169.291618 
L 217.720043 190.082738 
L 217.742351 189.851028 
L 217.853893 184.28034 
L 217.920819 186.467101 
L 218.010052 191.405414 
L 218.054669 188.692479 
L 218.11044 184.314131 
L 218.166211 188.581452 
L 218.244291 202.044752 
L 218.288908 190.768212 
L 218.40045 115.641166 
L 218.467375 141.274052 
L 218.489683 144.368343 
L 218.523146 136.258503 
L 218.668151 63.52579 
L 218.735076 83.814871 
L 218.846618 102.279239 
L 218.880081 100.131097 
L 218.924698 96.081004 
L 218.95816 102.448194 
L 219.270478 195.247933 
L 219.359712 214.701895 
L 219.415483 208.667788 
L 219.582796 165.449099 
L 219.660876 172.299017 
L 219.67203 172.690028 
L 219.694339 171.299769 
L 219.805881 144.223524 
L 219.872806 156.571721 
L 219.995502 185.776799 
L 220.051273 182.865946 
L 220.062428 182.774227 
L 220.084736 183.411429 
L 220.17397 197.149884 
L 220.252049 211.168322 
L 220.30782 204.612868 
L 220.709372 131.600172 
L 220.776297 138.228035 
L 220.843223 142.50501 
L 220.898994 141.066479 
L 220.932456 140.183086 
L 220.965919 141.515417 
L 221.066307 166.245601 
L 221.133232 175.219525 
L 221.189003 171.79698 
L 221.211312 171.193569 
L 221.244774 172.714164 
L 221.356316 183.927949 
L 221.423242 179.293754 
L 221.579401 164.222968 
L 221.624018 165.603572 
L 221.65748 166.414556 
L 221.702097 164.589842 
L 221.802485 156.996522 
L 221.847102 160.264594 
L 222.248654 201.277213 
L 222.270962 201.909588 
L 222.326733 200.302101 
L 222.37135 198.829779 
L 222.427121 200.654493 
L 222.516355 203.840502 
L 222.560971 202.068888 
L 222.661359 194.567286 
L 222.728285 196.90852 
L 222.784056 200.886203 
L 222.817518 195.050015 
L 223.21907 58.027511 
L 223.230224 58.452312 
L 223.319458 92.518467 
L 223.431 123.668942 
L 223.486771 119.324385 
L 223.50908 121.018762 
L 223.598313 163.17062 
L 223.698701 199.399399 
L 223.743318 192.409489 
L 223.821398 176.836666 
L 223.888323 180.230248 
L 223.966402 187.437385 
L 224.011019 181.277769 
L 224.14487 140.593405 
L 224.200641 152.376809 
L 224.301029 177.082857 
L 224.3568 172.511418 
L 224.367954 172.120408 
L 224.412571 174.360268 
L 224.546422 207.209947 
L 224.602193 213.224745 
L 224.657964 209.309817 
L 225.104132 148.963919 
L 225.126441 149.504575 
L 225.226829 154.640806 
L 225.271445 152.149927 
L 225.338371 148.119144 
L 225.382988 151.198952 
L 225.527992 174.76576 
L 225.594918 167.553796 
L 225.684151 159.125355 
L 225.728768 162.808574 
L 225.806848 170.020539 
L 225.851465 166.868321 
L 225.974161 151.247225 
L 226.029932 155.953828 
L 226.13032 165.395999 
L 226.186091 162.427218 
L 226.253016 157.686824 
L 226.297633 160.515613 
L 226.453792 181.712224 
L 226.531872 178.791717 
L 226.543026 178.719307 
L 226.565334 179.250309 
L 226.643414 188.919362 
L 226.76611 199.254581 
L 226.799573 198.795988 
L 226.877652 196.261663 
L 226.911115 197.738813 
L 227.167662 214.281921 
L 227.18997 213.480591 
L 227.245741 191.197841 
L 227.357283 102.057184 
L 227.424209 121.042898 
L 227.446517 124.605435 
L 227.491134 117.581734 
L 227.624985 62.338277 
L 227.703064 82.463231 
L 227.981919 150.151431 
L 228.126924 202.401971 
L 228.193849 184.521705 
L 228.338854 152.550592 
L 228.372317 155.157326 
L 228.428088 159.921857 
L 228.483859 155.886246 
L 228.595401 142.152618 
L 228.640018 148.867373 
L 228.82964 200.62553 
L 228.896565 196.102363 
L 228.930028 195.050015 
L 228.96349 197.188502 
L 229.063878 206.799628 
L 229.108495 203.700511 
L 229.320425 164.000913 
L 229.420813 165.791836 
L 229.532355 161.876908 
L 229.59928 163.97195 
L 229.788902 178.057969 
L 229.855827 176.300837 
L 230.268533 150.093503 
L 230.301996 150.914142 
L 230.614314 164.657424 
L 230.982403 176.590474 
L 231.484342 224.93574 
L 231.528959 217.492066 
L 231.685118 94.830737 
L 231.852432 107.425125 
L 231.963974 71.843203 
L 232.030899 80.952291 
L 232.120133 125.633647 
L 232.220521 169.388164 
L 232.276292 166.351801 
L 232.343217 161.331424 
L 232.37668 165.30428 
L 232.477068 193.109446 
L 232.555147 185.24097 
L 232.733614 140.076886 
L 232.822848 154.17256 
L 232.923236 172.323154 
L 232.990161 172.202472 
L 233.090549 185.405098 
L 233.2244 212.635816 
L 233.280171 207.900249 
L 233.625952 166.979349 
L 233.737494 156.031065 
L 233.793265 158.946745 
L 234.027503 177.145612 
L 234.094429 173.829267 
L 234.183662 167.872396 
L 234.239433 169.407473 
L 234.306359 171.208051 
L 234.350975 169.634356 
L 234.529443 156.924113 
L 234.585214 159.328101 
L 234.719064 165.830455 
L 234.763681 165.294626 
L 234.875223 162.489973 
L 234.930995 163.831958 
L 235.410626 190.058601 
L 235.71179 212.737189 
L 235.734098 211.042812 
L 235.801023 172.709337 
L 235.934874 98.427065 
L 235.979491 101.511701 
L 236.05757 108.197491 
L 236.102187 103.592261 
L 236.2695 82.139803 
L 236.302963 85.234093 
L 236.425659 152.000281 
L 236.526047 175.021607 
L 236.570664 171.739052 
L 236.615281 169.513674 
L 236.671052 171.772843 
L 236.782594 179.660628 
L 236.849519 188.243542 
L 236.90529 181.712224 
L 237.050295 153.506394 
L 237.094912 159.651529 
L 237.295688 201.035849 
L 237.351459 196.850592 
L 237.451847 192.805327 
L 237.496464 193.490801 
L 237.585697 198.694615 
L 237.630314 195.706526 
L 237.886861 160.322522 
L 237.976095 165.733909 
L 238.04302 170.841177 
L 238.098791 168.548216 
L 238.221488 162.113445 
L 238.266104 164.305032 
L 238.399955 173.081038 
L 238.455726 172.091444 
L 238.600731 165.806318 
L 238.701119 165.931828 
L 238.790353 167.968942 
L 238.857278 166.805566 
L 239.002283 163.730585 
L 239.069208 164.633288 
L 239.247675 167.283468 
L 239.314601 166.308356 
L 239.414988 165.004989 
L 239.448451 165.598745 
L 239.928082 188.05045 
L 239.961545 185.892654 
L 240.541564 107.994745 
L 240.563872 108.549883 
L 240.831574 135.708192 
L 241.210817 178.806198 
L 241.567752 201.243422 
L 241.612369 200.374511 
L 242.047383 180.206111 
L 242.237005 174.094768 
L 242.315084 170.894277 
L 242.448935 163.083729 
L 242.493551 164.353305 
L 242.571631 166.694539 
L 242.616248 165.415308 
L 242.72779 160.814905 
L 242.794715 161.596925 
L 242.850486 162.306536 
L 242.962028 164.329169 
L 243.006645 163.802995 
L 243.252038 160.829387 
L 243.285501 160.674914 
L 243.330118 160.404586 
L 243.374734 160.790768 
L 243.463968 163.614731 
L 243.564356 166.274565 
L 243.620127 165.666327 
L 243.631281 165.6615 
L 243.642435 165.777354 
L 243.742823 170.37293 
L 244.066296 188.233887 
L 244.155529 192.356389 
L 244.2113 189.884819 
L 244.635161 136.803986 
L 244.902862 105.01631 
L 244.969787 102.955059 
L 245.014404 104.6784 
L 245.315568 137.055005 
L 245.862124 206.722391 
L 246.0629 217.052783 
L 246.096363 216.685909 
L 246.219059 208.981561 
L 246.9887 152.285091 
L 247.234092 145.203463 
L 247.289863 146.564758 
L 248.293743 197.666404 
L 248.360668 193.934912 
L 249.108 100.271088 
L 249.18608 103.346069 
L 249.442627 134.361379 
L 249.877641 194.504531 
L 250.145342 213.190954 
L 250.156496 213.239227 
L 250.178805 212.94959 
L 250.256884 208.938116 
L 250.569202 184.415504 
L 250.948445 157.831642 
L 250.993062 157.846124 
L 251.071142 156.07451 
L 251.216147 153.607767 
L 251.249609 153.824995 
L 251.405768 155.446963 
L 251.706932 168.528907 
L 252.030404 181.248805 
L 252.041558 181.263287 
L 252.052713 181.142605 
L 252.09733 180.553676 
L 252.141946 181.215014 
L 252.387339 192.013652 
L 252.454264 188.547661 
L 253.212751 100.034551 
L 253.246214 101.043454 
L 253.446989 123.012431 
L 254.183167 208.667788 
L 254.205476 208.793297 
L 254.238939 208.407114 
L 254.305864 205.925889 
L 254.774341 169.407473 
L 255.008579 152.946429 
L 255.164738 151.324461 
L 255.253972 148.920473 
L 255.287435 148.341199 
L 255.332051 149.436993 
L 256.28016 191.453687 
L 256.347085 192.003997 
L 256.436319 194.074903 
L 256.469781 193.201164 
L 256.570169 179.433746 
L 257.161343 103.244696 
L 257.26173 101.685483 
L 257.295193 102.786104 
L 257.529432 125.387455 
L 258.154068 211.424168 
L 258.276764 213.707474 
L 258.321381 213.273018 
L 258.488694 203.449492 
L 258.61139 193.621138 
L 259.079867 151.923045 
L 259.291797 145.608955 
L 259.336414 144.653152 
L 259.392185 145.835837 
L 259.8272 167.761369 
L 260.228751 191.569542 
L 260.373756 197.656749 
L 260.440681 201.01654 
L 260.485298 199.182171 
L 260.831079 152.101654 
L 261.199168 99.127021 
L 261.243785 98.282246 
L 261.288402 99.624232 
L 261.433406 113.560606 
L 261.60072 137.919089 
L 262.124968 211.037985 
L 262.292281 215.54667 
L 262.325744 215.512879 
L 262.381515 214.021247 
L 262.626907 198.231196 
L 263.195772 150.50865 
L 263.363085 144.416615 
L 263.396548 145.160017 
L 263.865025 165.410481 
L 264.422736 197.318839 
L 264.445044 196.884383 
L 264.523124 187.558067 
L 265.170068 98.538093 
L 265.236993 96.360987 
L 265.28161 98.055364 
L 265.49354 121.472527 
L 266.118176 213.828156 
L 266.218564 215.310133 
L 266.274335 215.049459 
L 266.430494 211.144185 
L 266.608962 197.758122 
L 267.077439 158.502635 
L 267.378602 146.608203 
L 267.412065 146.748194 
L 267.501299 148.471535 
L 267.635149 152.946429 
L 267.847079 166.462829 
L 268.215168 192.095716 
L 268.360173 200.080046 
L 268.415944 196.980929 
L 268.772879 146.979904 
L 269.152122 94.936937 
L 269.185585 94.314218 
L 269.219048 95.578966 
L 269.397515 113.068222 
L 269.654062 157.295814 
L 270.077922 213.437146 
L 270.211773 217.158983 
L 270.256389 216.603845 
L 270.401394 211.723459 
L 270.557553 197.946386 
L 271.070647 153.747759 
L 271.282577 147.312987 
L 271.338348 148.403953 
L 271.728746 163.860922 
L 272.007601 182.547345 
L 272.308765 203.106754 
L 272.342227 202.324734 
L 272.420307 192.438453 
L 273.123022 93.184633 
L 273.134177 93.324624 
L 273.212256 98.142255 
L 273.468803 133.304204 
L 273.981897 207.808531 
L 274.138056 212.775808 
L 274.160364 212.742017 
L 274.216135 213.046136 
L 274.249598 212.693744 
L 274.36114 210.091837 
L 274.550762 193.399083 
L 274.985776 158.179207 
L 275.253477 149.301829 
L 275.309248 148.775654 
L 275.353865 149.287347 
L 275.576949 156.716539 
L 276.21274 201.335141 
L 276.279665 197.309184 
L 277.038151 96.529942 
L 277.049306 96.640969 
L 277.116231 100.637962 
L 277.372778 133.555223 
L 277.852409 204.994223 
L 278.019722 210.362165 
L 278.12011 211.124876 
L 278.187035 210.569738 
L 278.231652 210.004946 
L 278.354349 202.184743 
L 278.945522 153.65604 
L 279.101681 151.276188 
L 279.112835 151.300325 
L 279.391691 155.881419 
L 279.670546 169.518501 
L 280.116714 198.491869 
L 280.194794 192.882563 
L 280.897509 100.720026 
L 280.919818 100.213161 
L 280.964435 101.260682 
L 281.165211 122.713139 
L 281.778692 203.613619 
L 282.001777 208.764333 
L 282.035239 209.015352 
L 282.079856 208.513314 
L 282.180244 205.974162 
L 282.369866 188.108378 
L 282.760263 158.739172 
L 282.961039 152.203027 
L 283.01681 151.778226 
L 283.083735 151.923045 
L 283.217586 154.341515 
L 283.607983 175.055398 
L 283.987227 199.737309 
L 284.009535 199.090453 
L 284.098769 187.196021 
L 284.734559 98.349828 
L 284.79033 96.640969 
L 284.834947 98.002264 
L 285.024569 120.270533 
L 285.704976 206.587227 
L 285.883443 208.981561 
L 285.905751 208.942943 
L 285.972677 207.948522 
L 286.06191 204.048075 
L 286.865014 151.850635 
L 286.898476 152.038899 
L 287.021173 154.273933 
L 287.311182 167.611723 
L 287.846585 198.279469 
L 287.902356 194.403158 
L 288.638534 95.207265 
L 288.671996 96.095486 
L 288.828155 114.752945 
L 289.631259 208.701579 
L 289.68703 208.967079 
L 289.731647 208.701579 
L 289.865497 204.048075 
L 290.099736 182.281844 
L 290.501287 156.455866 
L 290.679755 154.481506 
L 290.791297 155.91521 
L 290.936302 160.235631 
L 291.683634 198.009141 
L 291.739405 195.329997 
L 292.09634 139.647257 
L 292.38635 97.47609 
L 292.442121 96.380296 
L 292.509046 94.608682 
L 292.531354 95.699649 
L 292.743284 125.923284 
L 293.300995 206.794801 
L 293.356766 208.141613 
L 293.434846 207.967831 
L 293.546388 208.614687 
L 293.602159 208.21885 
L 293.691393 205.003878 
L 294.550267 153.154002 
L 294.572575 153.240894 
L 294.650655 153.984296 
L 294.829122 161.857599 
L 295.186057 186.901557 
L 295.487221 205.520397 
L 295.509529 205.80038 
L 295.531838 204.781823 
L 295.609917 188.948326 
L 295.899927 125.773638 
L 296.111857 80.952291 
L 296.156474 83.679707 
L 296.546871 147.41436 
L 296.803418 180.703322 
L 296.859189 184.492741 
L 297.004194 198.931152 
L 297.071119 197.439521 
L 298.097307 170.821868 
L 298.141924 170.329485 
L 298.298083 166.009064 
L 298.387317 167.394495 
L 298.409625 167.650341 
L 298.47655 167.196576 
L 298.498859 167.27864 
L 298.565784 168.23927 
L 299.056569 178.926881 
L 299.368887 191.487478 
L 299.40235 190.266175 
L 299.502738 172.554864 
L 299.993523 100.604171 
L 300.149682 97.683663 
L 300.183145 98.354656 
L 300.272379 106.440359 
L 301.086636 204.719068 
L 301.17587 207.118229 
L 301.265104 206.649982 
L 301.332029 205.365924 
L 301.443571 199.317335 
L 302.135132 158.758481 
L 302.179749 158.22748 
L 302.23552 158.647454 
L 302.614764 167.288295 
L 302.994007 182.53769 
L 303.228245 192.44328 
L 303.284016 190.483402 
L 303.529409 160.298385 
L 303.930961 95.728612 
L 303.986732 93.184633 
L 304.042503 95.289329 
L 304.232125 120.009859 
L 304.834452 205.911407 
L 305.024074 210.236655 
L 305.035228 210.178728 
L 305.124462 208.566415 
L 305.280621 199.384917 
L 305.894102 158.555735 
L 306.027953 155.157326 
L 306.083724 156.103474 
L 307.087603 193.360465 
L 307.098758 193.259092 
L 307.154529 189.908955 
L 307.489155 139.796903 
L 307.84609 93.744598 
L 307.868398 94.236981 
L 307.968786 103.268832 
L 308.225333 143.586322 
L 308.727273 207.074783 
L 308.894586 209.869782 
L 308.961511 208.672615 
L 309.073053 203.908084 
L 309.307292 185.038224 
L 309.664227 160.728014 
L 309.876157 155.5242 
L 309.898465 155.591782 
L 309.931928 155.707637 
L 309.998853 156.41242 
L 310.166166 160.853523 
L 310.556564 175.345035 
L 310.980424 193.872157 
L 311.013887 193.133582 
L 311.10312 181.876352 
L 311.73891 92.846723 
L 311.772373 93.628743 
L 311.906224 106.247268 
L 312.765098 212.515134 
L 312.787407 212.635816 
L 312.832023 212.172397 
L 312.95472 208.257468 
L 313.177804 190.005501 
L 313.579356 159.574292 
L 313.791286 153.042975 
L 313.847057 153.293994 
L 314.047833 157.976461 
L 314.315534 168.591662 
L 314.895553 195.368616 
L 314.929016 194.456259 
L 315.174408 165.096707 
L 315.564806 99.653196 
L 315.642885 93.725289 
L 315.698656 95.39553 
L 315.877124 116.09493 
L 316.479451 204.767341 
L 316.691381 212.50548 
L 316.735998 212.32687 
L 316.791769 211.346931 
L 316.947928 203.550865 
L 317.661798 152.265782 
L 317.706415 152.502319 
L 317.829111 153.448467 
L 318.085658 162.152063 
L 318.855299 193.408738 
L 318.888761 192.592926 
L 319.000304 177.25664 
L 319.346084 125.908802 
L 319.569168 98.745666 
L 319.636094 95.791367 
L 319.680711 97.249207 
L 319.848024 116.756269 
L 320.539585 206.963756 
L 320.695744 212.399279 
L 320.740361 212.128951 
L 320.829595 209.420844 
L 321.041525 194.823132 
L 321.510002 157.194441 
L 321.710778 152.777474 
L 321.733086 152.714719 
L 321.766549 152.907811 
L 321.922708 155.326281 
L 322.045404 159.63222 
L 322.870816 193.872157 
L 322.893124 193.022555 
L 323.149671 166.018719 
L 323.528914 104.461172 
L 323.629302 96.969225 
L 323.673919 98.499474 
L 323.841232 117.282443 
L 324.477023 202.870217 
L 324.677798 209.797372 
L 324.744724 208.696751 
L 324.878574 204.11083 
L 325.692832 155.620745 
L 325.737449 155.408345 
L 325.782066 155.659364 
L 326.105538 162.480318 
L 326.730174 184.758242 
L 326.85287 193.104619 
L 326.908641 190.662012 
L 327.35481 125.662611 
L 327.577894 100.256606 
L 327.633665 98.456029 
L 327.678282 100.348325 
L 327.834441 118.1948 
L 328.481385 203.599138 
L 328.715624 210.255965 
L 328.737932 210.004946 
L 328.816012 207.292011 
L 329.195255 176.416692 
L 329.518727 157.614414 
L 329.708349 153.70914 
L 329.819891 153.458121 
L 329.842199 153.665695 
L 330.054129 157.570969 
L 330.600686 181.161914 
L 330.868387 197.603649 
L 330.913004 194.292131 
L 331.559948 108.791247 
L 331.660336 104.49979 
L 331.704953 106.073485 
L 331.805341 116.814196 
L 332.139967 159.352237 
L 332.508056 194.084558 
L 332.586136 197.178848 
L 332.742295 204.685277 
L 332.786912 204.154275 
L 333.166155 186.134018 
L 333.556553 160.322522 
L 333.723866 152.975393 
L 333.757328 153.472603 
L 333.902333 156.060028 
L 333.958104 155.205599 
L 334.013875 154.698734 
L 334.047338 155.331108 
L 334.437735 171.111505 
L 334.79467 206.949274 
L 334.839287 212.046888 
L 334.883904 205.510743 
L 335.140451 148.775654 
L 335.21853 131.841536 
L 335.385844 91.963329 
L 335.43046 98.663602 
L 335.586619 130.161641 
L 335.653545 128.660355 
L 335.664699 128.612082 
L 335.675853 128.785864 
L 335.731624 134.892381 
L 335.921246 177.174576 
L 335.999325 168.924745 
L 336.088559 158.324025 
L 336.133176 162.137581 
L 336.267026 180.968822 
L 336.322798 177.319394 
L 336.412031 171.642507 
L 336.456648 173.925813 
L 336.635116 198.057414 
L 336.713195 191.03854 
L 336.802429 185.574053 
L 336.847046 187.046375 
L 336.947434 192.134334 
L 336.99205 189.986192 
L 337.181672 168.953708 
L 337.28206 170.49844 
L 337.304368 170.276385 
L 337.371294 165.8739 
L 337.49399 157.315123 
L 337.538607 159.463265 
L 337.694766 168.326161 
L 337.750537 167.051758 
L 337.828616 165.415308 
L 337.873233 166.303529 
L 337.99593 170.841177 
L 338.040546 169.388164 
L 338.196705 162.625137 
L 338.241322 163.238202 
L 338.564795 173.742376 
L 338.944038 213.91022 
L 338.9775 209.657381 
L 339.412515 90.476526 
L 339.468286 82.834932 
L 339.512903 89.037994 
L 339.69137 152.989875 
L 339.780604 147.211614 
L 339.791758 146.955768 
L 339.825221 148.519808 
L 339.992534 179.008944 
L 340.081768 167.679305 
L 340.19331 150.624505 
L 340.237927 156.204847 
L 340.394086 183.459702 
L 340.461011 181.552924 
L 340.472165 181.538442 
L 340.516782 183.667275 
L 340.695249 207.123056 
L 340.773329 200.05591 
L 340.907179 182.262535 
L 340.974105 183.744512 
L 341.018722 184.970642 
L 341.063338 183.068692 
L 341.241806 167.061412 
L 341.308731 169.412301 
L 341.375656 171.932144 
L 341.420273 170.633604 
L 341.565278 161.674162 
L 341.621049 164.329169 
L 341.732591 169.677801 
L 341.777208 168.548216 
L 341.877596 165.656672 
L 341.944521 166.911767 
L 342.033755 169.166109 
L 342.078372 168.002733 
L 342.245685 159.120528 
L 342.301456 160.848696 
L 342.39069 162.953392 
L 342.446461 162.369291 
L 342.479924 161.886562 
L 342.52454 162.649273 
L 342.624928 169.817793 
L 343.115714 210.053219 
L 343.126868 209.710481 
L 343.171485 198.264987 
L 343.327644 108.685047 
L 343.405723 118.378237 
L 343.45034 121.549763 
L 343.483803 118.049981 
L 343.639962 88.965585 
L 343.684579 95.390702 
L 343.851892 153.448467 
L 343.929971 144.590398 
L 343.974588 140.520996 
L 344.030359 145.768255 
L 344.175364 171.545961 
L 344.231135 165.154635 
L 344.342677 151.647889 
L 344.387294 155.900728 
L 344.576916 191.279905 
L 344.654995 190.304793 
L 344.833463 204.878368 
L 344.900388 199.722827 
L 345.067701 176.088437 
L 345.134626 178.617934 
L 345.212706 181.229496 
L 345.257323 179.491673 
L 345.391173 168.205479 
L 345.446944 171.613543 
L 345.525024 177.049066 
L 345.580795 174.780242 
L 345.748108 161.19626 
L 345.815033 163.474739 
L 345.881959 165.270489 
L 345.926576 164.227796 
L 346.026964 161.147988 
L 346.082735 162.074826 
L 346.216585 169.161282 
L 346.28351 166.313183 
L 346.406207 161.471416 
L 346.450824 161.925181 
L 346.57352 164.029877 
L 346.640445 163.822304 
L 346.673908 164.150559 
L 346.763142 168.422707 
L 347.07546 191.825388 
L 347.28739 209.382226 
L 347.354315 213.73161 
L 347.376623 211.511059 
L 347.443549 167.080722 
L 347.555091 104.210153 
L 347.610862 110.784916 
L 347.688941 120.43466 
L 347.733558 113.478542 
L 347.878563 87.966337 
L 347.912026 92.914305 
L 348.090493 156.856531 
L 348.168573 144.793144 
L 348.213189 140.583751 
L 348.257806 144.793144 
L 348.402811 172.076962 
L 348.469736 165.516681 
L 348.581278 149.842485 
L 348.625895 154.79528 
L 348.804363 192.259844 
L 348.882442 189.97171 
L 348.960522 193.765957 
L 349.083218 204.627349 
L 349.138989 201.349622 
L 349.295148 176.79322 
L 349.384382 181.330869 
L 349.428999 182.808018 
L 349.48477 181.210187 
L 349.953247 158.883991 
L 350.04248 155.876592 
L 350.098252 157.059277 
L 350.432878 169.513674 
L 350.499803 167.722751 
L 350.6225 161.925181 
L 350.700579 162.953392 
L 350.745196 163.001665 
L 350.75635 162.929256 
L 350.789813 162.654101 
L 350.845584 163.146484 
L 350.945972 168.557871 
L 351.481374 207.48993 
L 351.514837 206.828592 
L 351.537145 206.563091 
L 351.570608 207.475448 
L 351.60407 208.638824 
L 351.626379 207.523721 
L 351.68215 181.485342 
L 351.816 102.433712 
L 351.871772 108.361619 
L 351.949851 118.175491 
L 351.994468 112.759276 
L 352.139473 89.602787 
L 352.172935 94.483173 
L 352.351403 158.51229 
L 352.429482 148.230171 
L 352.474099 144.184906 
L 352.52987 148.9784 
L 352.674875 176.175328 
L 352.7418 169.190245 
L 352.853342 153.197448 
L 352.897959 159.192937 
L 353.065272 196.015472 
L 353.132198 193.312192 
L 353.176815 192.559135 
L 353.221431 193.524592 
L 353.344128 203.912911 
L 353.411053 198.404978 
L 353.578366 171.164605 
L 353.656446 173.356193 
L 353.745679 179.303409 
L 353.790296 176.464965 
L 354.024535 162.900292 
L 354.314544 148.58739 
L 354.370315 150.904487 
L 354.72725 169.354373 
L 354.838792 172.815537 
L 354.883409 172.019035 
L 354.983797 167.828951 
L 355.050722 168.86199 
L 355.463428 180.693667 
L 355.94306 204.048075 
L 355.965368 202.952281 
L 356.021139 173.964431 
L 356.15499 98.127773 
L 356.199606 104.34049 
L 356.28884 117.485189 
L 356.333457 111.117999 
L 356.478462 83.752117 
L 356.523079 93.841144 
L 356.701546 165.468408 
L 356.757317 157.517869 
L 356.813088 151.826499 
L 356.868859 156.166229 
L 357.013864 184.01484 
L 357.080789 173.911331 
L 357.192331 153.076766 
L 357.236948 159.0626 
L 357.404262 200.808966 
L 357.460033 194.871405 
L 357.538112 190.275829 
L 357.582729 191.743324 
L 357.694271 200.799312 
L 357.738888 197.989832 
L 357.92851 164.058841 
L 358.028898 170.315003 
L 358.073514 172.516245 
L 358.129285 169.706765 
L 358.27429 158.295062 
L 358.330061 160.636295 
L 358.430449 166.038028 
L 358.475066 164.107114 
L 358.608917 154.727698 
L 358.653533 157.353741 
L 358.843155 169.161282 
L 358.887772 169.069563 
L 358.91008 169.161282 
L 359.032777 172.617618 
L 359.144319 178.120724 
L 359.20009 175.291935 
L 359.333941 165.560127 
L 359.400866 166.240774 
L 359.501254 165.116016 
L 359.568179 165.700118 
L 359.679721 171.516997 
L 359.925114 181.108814 
L 360.025502 182.132198 
L 360.326666 197.695367 
L 360.360128 199.988328 
L 360.393591 194.065248 
L 360.54975 109.438104 
L 360.672446 121.535281 
L 360.694755 122.577975 
L 360.728217 119.36783 
L 360.884376 90.215852 
L 360.940147 101.236545 
L 361.118615 166.26491 
L 361.174386 161.244533 
L 361.241311 155.891073 
L 361.297082 157.807506 
L 361.442087 183.821748 
L 361.520166 172.603136 
L 361.620554 153.853959 
L 361.665171 158.381953 
L 361.82133 194.016976 
L 361.888255 188.803507 
L 361.988643 183.174892 
L 362.022106 185.129943 
L 362.144802 195.054842 
L 362.178265 192.993591 
L 362.367887 161.355561 
L 362.45712 168.760617 
L 362.524046 173.641003 
L 362.579817 170.247421 
L 362.691359 160.829387 
L 362.74713 165.03878 
L 362.869826 175.171252 
L 362.914443 173.206547 
L 363.059448 161.046615 
L 363.115219 163.894713 
L 363.24907 173.457566 
L 363.304841 171.430106 
L 363.38292 168.437189 
L 363.438691 169.764692 
L 363.561388 175.750527 
L 363.606004 174.229932 
L 363.817934 159.289483 
L 363.88486 160.554231 
L 364.319874 176.812529 
L 364.587575 191.994343 
L 364.743734 196.67681 
L 364.788351 198.940807 
L 364.821814 196.392 
L 364.911047 152.497492 
L 365.011435 127.844544 
L 365.056052 128.428645 
L 365.15644 121.583554 
L 365.334908 92.238485 
L 365.390679 100.473834 
L 365.647226 153.216757 
L 365.736459 160.887314 
L 365.892618 185.29407 
L 365.959543 179.163418 
L 366.093394 161.567961 
L 366.160319 166.279392 
L 366.29417 178.984808 
L 366.361095 177.20354 
L 366.450329 174.60646 
L 366.494946 176.286355 
L 366.639951 191.096468 
L 366.71803 187.55324 
L 366.863035 179.650973 
L 366.907652 180.717804 
L 366.985731 183.237647 
L 367.019194 181.886007 
L 367.253432 167.037276 
L 367.298049 167.833778 
L 367.364974 168.833026 
L 367.409591 168.142724 
L 367.532288 162.639619 
L 367.610367 165.000161 
L 367.744218 168.644762 
L 367.77768 168.171688 
L 367.933839 166.057337 
L 367.978456 166.400074 
L 368.000765 166.279392 
L 368.112307 162.668583 
L 368.27962 158.917782 
L 368.324237 159.221901 
L 368.56963 163.653349 
L 368.670017 165.434617 
L 369.071569 179.805447 
L 369.093878 179.583391 
L 369.138494 179.375818 
L 369.171957 179.829583 
L 369.294653 185.950581 
L 369.350424 182.151507 
L 369.908135 117.996881 
L 369.919289 118.276864 
L 369.986215 120.294669 
L 370.064294 119.551267 
L 370.153528 124.320625 
L 370.365458 152.087172 
L 370.588542 170.21363 
L 370.722393 177.049066 
L 370.923169 186.732602 
L 371.213178 194.88106 
L 371.280103 192.983936 
L 371.570113 182.25288 
L 372.127824 153.453294 
L 372.239366 151.643062 
L 372.295137 151.923045 
L 372.406679 154.254624 
L 373.455175 181.606024 
L 373.5221 182.43149 
L 373.60018 182.064616 
L 373.644797 182.035653 
L 373.667105 182.165989 
L 373.73403 184.077594 
L 373.81211 186.935348 
L 373.856727 185.284416 
L 374.113274 160.057021 
L 374.548288 105.441111 
L 374.570597 105.769366 
L 374.693293 112.054492 
L 374.815989 127.747998 
L 375.418317 208.252641 
L 375.518705 209.922882 
L 375.563322 209.869782 
L 375.619093 209.483599 
L 375.686018 206.915483 
L 376.611818 144.812453 
L 376.667589 145.367591 
L 376.879519 152.3575 
L 377.057986 160.404586 
L 377.336842 171.28046 
L 377.626851 177.304913 
L 377.749547 179.612355 
L 377.805318 179.231 
L 377.838781 179.129627 
L 377.872244 179.346854 
L 378.106482 185.154079 
L 378.162253 186.669847 
L 378.218024 185.192697 
L 378.452263 167.428286 
L 378.931894 110.982835 
L 378.943048 111.026281 
L 379.032282 113.324069 
L 379.154978 122.660039 
L 379.924619 207.084438 
L 379.946928 207.195465 
L 379.98039 206.847901 
L 380.114241 200.794485 
L 381.028886 148.881855 
L 381.04004 148.886682 
L 381.318896 152.791956 
L 381.876607 172.429354 
L 381.910069 172.4197 
L 381.943532 172.366599 
L 382.032766 172.830019 
L 382.367392 177.430422 
L 382.579322 183.816921 
L 382.623939 182.885255 
L 382.880486 167.95446 
L 383.404734 115.086028 
L 383.427042 115.158437 
L 383.505122 118.267209 
L 383.705898 140.945797 
L 384.363996 209.67669 
L 384.37515 209.715309 
L 384.397459 209.493253 
L 384.520155 203.903257 
L 384.821319 184.294822 
L 385.30095 149.229419 
L 385.445955 147.694342 
L 385.468263 147.790888 
L 385.524034 148.370162 
L 385.72481 152.507146 
L 386.048282 164.493296 
L 386.327138 170.65774 
L 386.472143 172.588655 
L 386.94062 183.208683 
L 386.951774 183.16041 
L 387.041007 179.115145 
L 387.36448 158.719863 
L 387.71026 124.15167 
L 387.844111 120.309151 
L 387.877574 120.922216 
L 387.977961 129.838213 
L 388.769911 209.078107 
L 388.781065 208.986388 
L 388.870299 205.616943 
L 389.684556 148.959091 
L 389.796098 152.222336 
L 389.929949 153.10573 
L 389.952257 153.042975 
L 390.008028 152.656792 
L 390.041491 153.038148 
L 390.554585 169.943302 
L 390.610356 167.920669 
L 390.688435 164.179523 
L 390.733052 165.878727 
L 391.301917 202.995727 
L 391.33538 205.776243 
L 391.379997 201.702014 
L 391.881936 86.55677 
L 391.926553 90.920636 
L 392.439647 198.549797 
L 392.540035 194.692796 
L 392.796582 181.190878 
L 392.941587 162.823056 
L 392.986203 163.991259 
L 393.131208 169.895029 
L 393.198133 168.625453 
L 393.220442 168.398571 
L 393.24275 169.0937 
L 393.343138 180.939859 
L 393.443526 188.243542 
L 393.488143 187.326358 
L 393.588531 182.981801 
L 394.034699 150.663123 
L 394.135087 151.768571 
L 394.146242 151.744435 
L 394.16855 151.879599 
L 394.190858 151.850635 
L 394.24663 154.196696 
L 394.637027 178.178651 
L 394.681644 178.627589 
L 394.726261 178.115897 
L 395.150121 165.270489 
L 395.183584 165.830455 
L 395.261663 170.817041 
L 395.65206 206.365172 
L 395.663215 205.636252 
L 395.718986 186.283664 
L 395.919762 127.385952 
L 396.109383 78.249011 
L 396.165154 68.02482 
L 396.209771 76.506361 
L 396.689402 222.440034 
L 396.722865 219.548489 
L 397.180188 144.701425 
L 397.202496 145.840665 
L 397.670973 204.091521 
L 397.726744 200.152456 
L 398.195221 144.778662 
L 398.239838 146.236502 
L 398.541002 160.211494 
L 398.752932 179.028254 
L 398.875628 182.069444 
L 398.920245 181.18605 
L 399.020633 175.045743 
L 399.266026 159.651529 
L 399.377568 156.586203 
L 399.433339 157.826815 
L 399.544881 168.311679 
L 399.901816 201.349622 
L 399.924124 201.46065 
L 399.979895 204.419776 
L 400.035666 210.058046 
L 400.069129 206.490682 
L 400.169517 143.311167 
L 400.314522 120.724297 
L 400.481835 77.394581 
L 400.54876 59.277778 
L 400.593377 68.135847 
L 401.073008 232.504924 
L 401.139934 217.39552 
L 401.363018 183.116965 
L 401.563794 127.231478 
L 401.641873 142.673965 
L 401.820341 159.221901 
L 401.943037 185.940927 
L 402.065733 214.026075 
L 402.11035 209.478772 
L 402.288818 199.606972 
L 402.411514 177.913151 
L 402.578827 143.986987 
L 402.634598 145.411036 
L 402.645753 145.507582 
L 402.668061 145.145536 
L 402.757295 142.114 
L 402.801912 143.904923 
L 402.980379 172.313499 
L 403.136538 178.984808 
L 403.24808 187.364976 
L 403.303851 184.555496 
L 403.727711 151.855463 
L 403.761174 152.603692 
L 403.895024 168.070315 
L 404.240805 207.982313 
L 404.296576 205.756934 
L 404.341193 203.782574 
L 404.38581 205.587979 
L 404.430427 208.37815 
L 404.463889 204.144621 
L 404.564277 139.169356 
L 404.720436 110.24426 
L 404.865441 74.768538 
L 404.943521 56.748281 
L 404.988137 68.517203 
L 405.44546 233.451072 
L 405.467769 232.176669 
L 405.858166 140.752706 
L 405.936246 123.306895 
L 405.992017 132.044282 
L 406.203947 163.127175 
L 406.438185 220.528428 
L 406.527419 207.214775 
L 406.951279 139.458993 
L 406.995896 141.872636 
L 407.051667 144.069051 
L 407.107438 142.422946 
L 407.129746 141.862981 
L 407.174363 143.818032 
L 407.620532 188.615243 
L 407.64284 187.895977 
L 407.732074 173.41412 
L 407.93285 154.360824 
L 408.022084 151.831326 
L 408.089009 148.239826 
L 408.133626 150.030749 
L 408.546332 201.084122 
L 408.635565 210.758002 
L 408.691336 206.76101 
L 408.758262 201.90476 
L 408.802879 205.781071 
L 408.847495 209.522217 
L 408.880958 203.536383 
L 409.315972 57.037918 
L 409.338281 53.803636 
L 409.382898 64.167819 
L 409.817912 234.358602 
L 409.84022 237.076364 
L 409.884837 228.874805 
L 410.107922 186.756738 
L 410.331006 119.589885 
L 410.409085 140.337559 
L 410.487165 156.475175 
L 410.55409 154.635979 
L 410.609861 162.924429 
L 410.821791 220.538083 
L 410.888716 208.991216 
L 410.966796 199.563527 
L 411.022567 201.349622 
L 411.033721 201.56685 
L 411.05603 200.736557 
L 411.134109 182.981801 
L 411.312577 140.791324 
L 411.357193 143.069803 
L 411.424119 147.298505 
L 411.47989 144.81728 
L 411.524507 142.673965 
L 411.569124 146.004792 
L 411.792208 183.464529 
L 411.881442 181.581888 
L 411.937213 184.541014 
L 412.004138 188.465597 
L 412.048755 185.033397 
L 412.361073 151.821672 
L 412.472615 145.613782 
L 412.517232 148.099834 
L 413.019171 200.060737 
L 413.164176 197.328494 
L 413.219947 194.770032 
L 413.264564 197.473312 
L 413.298027 200.321411 
L 413.331489 196.845765 
L 413.799966 63.723708 
L 413.81112 64.867775 
L 413.8892 105.219056 
L 414.056513 145.942038 
L 414.17921 192.346735 
L 414.290752 230.347127 
L 414.346523 219.418153 
L 414.458065 189.040044 
L 414.52499 192.192262 
L 414.569607 186.838802 
L 414.770383 126.922532 
L 414.848462 143.620113 
L 414.926542 159.617738 
L 414.993467 156.204847 
L 415.015776 156.87584 
L 415.093855 175.485026 
L 415.261168 217.038301 
L 415.305785 212.225497 
L 415.406173 197.024375 
L 415.461944 200.031774 
L 415.473098 200.417956 
L 415.506561 198.491869 
L 415.629257 164.348478 
L 415.763108 141.853327 
L 415.807725 144.392479 
L 415.852342 146.854395 
L 415.908113 143.567013 
L 415.963884 138.768691 
L 416.008501 142.282955 
L 416.242739 177.855223 
L 416.29851 177.609032 
L 416.343127 179.689592 
L 416.443515 190.324102 
L 416.499286 185.361652 
L 416.744679 158.270925 
L 416.766987 158.232307 
L 416.811604 156.446211 
L 416.911992 146.777158 
L 416.967763 151.430662 
L 417.202001 175.489853 
L 417.347006 191.492305 
L 417.413932 196.980929 
L 417.469703 193.592174 
L 417.503165 192.452935 
L 417.547782 193.97353 
L 417.603553 196.474064 
L 417.64817 194.567286 
L 417.692787 192.520517 
L 417.737404 195.349306 
L 417.759712 196.951965 
L 417.793175 193.085309 
L 418.205881 75.613313 
L 418.250498 68.855113 
L 418.295114 78.548303 
L 418.652049 199.351126 
L 418.741283 224.288884 
L 418.797054 215.570806 
L 418.897442 189.91861 
L 418.964367 195.774108 
L 418.975521 195.788589 
L 419.031293 184.560323 
L 419.220914 130.388523 
L 419.265531 136.239194 
L 419.377073 158.217825 
L 419.432844 153.467776 
L 419.443998 153.081593 
L 419.466307 154.259451 
L 419.555541 182.624581 
L 419.7117 213.205436 
L 419.734008 212.032406 
L 420.068634 163.663003 
L 420.235948 143.533222 
L 420.247102 143.634595 
L 420.26941 143.798723 
L 420.302873 143.103594 
L 420.403261 136.784677 
L 420.436723 139.792076 
L 420.838275 191.603333 
L 420.871738 193.418392 
L 420.916355 190.319275 
L 421.273289 152.01959 
L 421.340215 147.240578 
L 421.395986 150.585887 
L 421.797538 190.570294 
L 421.819846 190.913031 
L 421.853309 189.682073 
L 421.964851 183.585211 
L 422.009468 185.70439 
L 422.098701 192.028134 
L 422.143318 189.093144 
L 422.221398 182.677682 
L 422.266015 186.240218 
L 422.299477 189.817237 
L 422.33294 185.660944 
L 422.723337 88.289765 
L 422.790263 75.864332 
L 422.834879 85.644413 
L 423.225277 209.580145 
L 423.281048 219.060934 
L 423.336819 211.192458 
L 423.437207 193.254264 
L 423.504132 194.13283 
L 423.571058 181.070195 
L 423.749525 135.307527 
L 423.794142 137.986671 
L 424.24031 209.314644 
L 424.329544 204.067384 
L 424.563783 177.029757 
L 424.775713 144.913826 
L 424.876101 140.221704 
L 424.931872 137.460497 
L 424.976488 140.236186 
L 425.389194 188.62007 
L 425.400349 188.615243 
L 425.444965 185.743008 
L 425.824209 151.773399 
L 425.846517 151.010688 
L 425.902288 152.931947 
L 426.326148 185.96989 
L 426.370765 185.018915 
L 426.471153 181.610851 
L 426.526924 183.112137 
L 426.605004 185.656117 
L 426.660775 184.74376 
L 426.750008 182.32529 
L 426.783471 183.619002 
L 426.872705 194.036285 
L 426.906167 188.233887 
L 427.040018 124.272352 
L 427.140406 129.939586 
L 427.251948 98.953239 
L 427.352336 73.904454 
L 427.396953 83.718326 
L 427.820813 217.907212 
L 427.843121 218.756815 
L 427.876584 214.605349 
L 427.976972 196.923002 
L 428.032743 203.357773 
L 428.066206 205.901753 
L 428.110823 199.746964 
L 428.300444 140.70926 
L 428.378524 149.65422 
L 428.434295 155.166981 
L 428.490066 150.315559 
L 428.545837 145.3869 
L 428.579299 149.610775 
L 428.79123 201.817869 
L 428.880463 198.211887 
L 428.891617 198.096032 
L 428.913926 198.641515 
L 429.014314 207.277529 
L 429.058931 201.967515 
L 429.415866 138.4694 
L 429.482791 130.094059 
L 429.538562 135.288218 
L 429.806263 169.122663 
L 429.951268 188.760061 
L 430.007039 185.501644 
L 430.118581 174.558187 
L 430.19666 174.910579 
L 430.263586 168.63028 
L 430.408591 152.2513 
L 430.453207 153.94085 
L 430.888222 184.859615 
L 430.932839 183.744512 
L 431.022072 182.156335 
L 431.066689 182.841809 
L 431.133614 184.01484 
L 431.178231 182.861118 
L 431.267465 179.187554 
L 431.323236 180.896413 
L 431.479395 189.184863 
L 431.501703 186.843629 
L 431.947872 83.066642 
L 431.959026 83.766598 
L 432.037106 108.844347 
L 432.126339 132.729757 
L 432.193265 132.304956 
L 432.271344 160.013575 
L 432.438657 211.36624 
L 432.47212 209.710481 
L 432.572508 200.311756 
L 432.617125 204.772168 
L 432.650588 207.784394 
L 432.695204 202.802635 
L 432.907134 146.362012 
L 432.996368 147.375742 
L 433.007522 147.41436 
L 433.018677 147.317814 
L 433.119064 142.770511 
L 433.152527 145.314491 
L 433.576387 208.131959 
L 433.587541 208.214023 
L 433.598696 207.919558 
L 433.654467 199.761446 
L 433.977939 138.411472 
L 434.067173 128.737592 
L 434.11179 131.991182 
L 434.53565 191.135086 
L 434.602575 188.528352 
L 434.870276 165.888382 
L 434.981818 151.517553 
L 435.037589 153.038148 
L 435.294136 164.662251 
L 435.439141 184.941679 
L 435.51722 184.521705 
L 435.651071 191.328177 
L 435.717996 188.344915 
L 435.885309 174.524396 
L 435.952235 177.613859 
L 436.008006 179.303409 
L 436.086085 179.124799 
L 436.119548 175.721563 
L 436.242244 122.761412 
L 436.342632 138.493536 
L 436.431866 116.104585 
L 436.543408 94.130781 
L 436.588025 98.82773 
L 437.034194 200.751039 
L 437.112273 196.778183 
L 437.15689 194.716932 
L 437.201507 197.463658 
L 437.257278 204.622522 
L 437.301895 198.52566 
L 437.469208 148.452226 
L 437.558442 150.518305 
L 437.647675 147.066795 
L 437.725755 142.804302 
L 437.759217 146.101338 
L 438.138461 206.099672 
L 438.171923 206.954101 
L 438.21654 204.810786 
L 438.316928 182.687336 
L 438.595783 137.89978 
L 438.651555 134.52068 
L 438.707326 137.426706 
L 438.997335 171.806634 
L 439.120031 188.446288 
L 439.164648 187.302221 
L 439.432349 171.777671 
L 439.5662 154.153251 
L 439.621971 156.335184 
L 439.64428 156.909631 
L 439.688896 155.311799 
L 439.755822 151.787881 
L 439.800439 153.892577 
L 440.224299 192.670163 
L 440.268916 191.154395 
L 440.503154 172.308672 
L 440.558925 173.520321 
L 440.715084 177.121476 
L 440.726238 176.600129 
L 440.782009 156.25312 
L 440.860089 126.043966 
L 440.91586 137.151551 
L 440.949323 142.157446 
L 441.005094 134.05726 
L 441.161253 99.209085 
L 441.205869 103.423306 
L 441.328566 133.019394 
L 441.428954 127.511461 
L 441.507033 157.295814 
L 441.640884 193.186682 
L 441.685501 191.685397 
L 441.741272 189.643455 
L 441.785889 191.154395 
L 441.886276 203.874293 
L 441.930893 196.155463 
L 442.064744 156.470348 
L 442.142823 160.790768 
L 442.176286 161.587271 
L 442.209749 159.656356 
L 442.343599 149.017019 
L 442.377062 151.478934 
L 442.767459 202.672299 
L 442.778614 202.932972 
L 442.812076 201.991651 
L 442.912464 185.921618 
L 443.235936 138.474227 
L 443.258245 137.957707 
L 443.302862 140.216877 
L 443.648642 173.298266 
L 443.726722 179.868201 
L 443.782493 179.042735 
L 443.804801 178.854471 
L 443.82711 179.308236 
L 443.905189 182.402526 
L 443.949806 181.118468 
L 444.117119 163.841613 
L 444.184045 159.984612 
L 444.25097 160.814905 
L 444.284432 160.279076 
L 444.362512 156.354493 
L 444.407129 158.444708 
L 444.786372 187.949077 
L 444.830989 189.334508 
L 444.875606 186.998102 
L 445.199078 165.318762 
L 445.254849 164.092632 
L 445.288312 165.212562 
L 445.433316 179.322718 
L 445.466779 174.567842 
L 445.567167 137.219133 
L 445.645247 149.239074 
L 445.667555 150.716223 
L 445.712172 144.81728 
L 445.890639 107.463744 
L 445.94641 114.569508 
L 446.046798 132.271165 
L 446.102569 127.183206 
L 446.113724 126.647377 
L 446.147186 128.4914 
L 446.258728 166.260083 
L 446.37027 182.460454 
L 446.414887 181.441896 
L 446.44835 182.054962 
L 446.559892 165.531163 
L 490.719424 165.531163 
L 490.719424 165.531163 
" clip-path="url(#p8763e552f3)" style="fill: none; stroke: #1f77b4; stroke-width: 1.5; stroke-linecap: square"/>
   </g>
   <g id="LineCollection_1">
    <path d="M 92.290909 246.24 
L 92.290909 44.64 
" clip-path="url(#p8763e552f3)" style="fill: none; stroke: #444444; stroke-width: 0.8"/>
    <path d="M 107.047934 246.24 
L 107.047934 44.64 
" clip-path="url(#p8763e552f3)" style="fill: none; stroke: #444444; stroke-width: 0.8"/>
    <path d="M 121.804959 246.24 
L 121.804959 44.64 
" clip-path="url(#p8763e552f3)" style="fill: none; stroke: #444444; stroke-width: 0.8"/>
    <path d="M 136.561983 246.24 
L 136.561983 44.64 
" clip-path="url(#p8763e552f3)" style="fill: none; stroke: #444444; stroke-width: 0.8"/>
    <path d="M 151.319008 246.24 
L 151.319008 44.64 
" clip-path="url(#p8763e552f3)" style="fill: none; stroke: #444444; stroke-width: 0.8"/>
    <path d="M 166.076033 246.24 
L 166.076033 44.64 
" clip-path="url(#p8763e552f3)" style="fill: none; stroke: #444444; stroke-width: 0.8"/>
    <path d="M 180.833058 246.24 
L 180.833058 44.64 
" clip-path="url(#p8763e552f3)" style="fill: none; stroke: #444444; stroke-width: 0.8"/>
    <path d="M 195.590083 246.24 
L 195.590083 44.64 
" clip-path="url(#p8763e552f3)" style="fill: none; stroke: #444444; stroke-width: 0.8"/>
    <path d="M 210.347107 246.24 
L 210.347107 44.64 
" clip-path="url(#p8763e552f3)" style="fill: none; stroke: #444444; stroke-width: 0.8"/>
    <path d="M 225.104132 246.24 
L 225.104132 44.64 
" clip-path="url(#p8763e552f3)" style="fill: none; stroke: #444444; stroke-width: 0.8"/>
    <path d="M 239.861157 246.24 
L 239.861157 44.64 
" clip-path="url(#p8763e552f3)" style="fill: none; stroke: #444444; stroke-width: 0.8"/>
    <path d="M 254.618182 246.24 
L 254.618182 44.64 
" clip-path="url(#p8763e552f3)" style="fill: none; stroke: #444444; stroke-width: 0.8"/>
    <path d="M 269.375207 246.24 
L 269.375207 44.64 
" clip-path="url(#p8763e552f3)" style="fill: none; stroke: #444444; stroke-width: 0.8"/>
    <path d="M 284.132231 246.24 
L 284.132231 44.64 
" clip-path="url(#p8763e552f3)" style="fill: none; stroke: #444444; stroke-width: 0.8"/>
    <path d="M 298.889256 246.24 
L 298.889256 44.64 
" clip-path="url(#p8763e552f3)" style="fill: none; stroke: #444444; stroke-width: 0.8"/>
    <path d="M 313.646281 246.24 
L 313.646281 44.64 
" clip-path="url(#p8763e552f3)" style="fill: none; stroke: #444444; stroke-width: 0.8"/>
    <path d="M 328.403306 246.24 
L 328.403306 44.64 
" clip-path="url(#p8763e552f3)" style="fill: none; stroke: #444444; stroke-width: 0.8"/>
    <path d="M 343.160331 246.24 
L 343.160331 44.64 
" clip-path="url(#p8763e552f3)" style="fill: none; stroke: #444444; stroke-width: 0.8"/>
    <path d="M 357.917355 246.24 
L 357.917355 44.64 
" clip-path="url(#p8763e552f3)" style="fill: none; stroke: #444444; stroke-width: 0.8"/>
    <path d="M 372.67438 246.24 
L 372.67438 44.64 
" clip-path="url(#p8763e552f3)" style="fill: none; stroke: #444444; stroke-width: 0.8"/>
    <path d="M 387.431405 246.24 
L 387.431405 44.64 
" clip-path="url(#p8763e552f3)" style="fill: none; stroke: #444444; stroke-width: 0.8"/>
    <path d="M 402.18843 246.24 
L 402.18843 44.64 
" clip-path="url(#p8763e552f3)" style="fill: none; stroke: #444444; stroke-width: 0.8"/>
    <path d="M 416.945455 246.24 
L 416.945455 44.64 
" clip-path="url(#p8763e552f3)" style="fill: none; stroke: #444444; stroke-width: 0.8"/>
    <path d="M 431.702479 246.24 
L 431.702479 44.64 
" clip-path="url(#p8763e552f3)" style="fill: none; stroke: #444444; stroke-width: 0.8"/>
    <path d="M 446.459504 246.24 
L 446.459504 44.64 
" clip-path="url(#p8763e552f3)" style="fill: none; stroke: #444444; stroke-width: 0.8"/>
    <path d="M 461.216529 246.24 
L 461.216529 44.64 
" clip-path="url(#p8763e552f3)" style="fill: none; stroke: #444444; stroke-width: 0.8"/>
    <path d="M 475.973554 246.24 
L 475.973554 44.64 
" clip-path="url(#p8763e552f3)" style="fill: none; stroke: #444444; stroke-width: 0.8"/>
   </g>
   <g id="line2d_18">
    <defs>
     <path id="mb1d673ec24" d="M 0 1.5 
C 0.397805 1.5 0.77937 1.341951 1.06066 1.06066 
C 1.341951 0.77937 1.5 0.397805 1.5 0 
C 1.5 -0.397805 1.341951 -0.77937 1.06066 -1.06066 
C 0.77937 -1.341951 0.397805 -1.5 0 -1.5 
C -0.397805 -1.5 -0.77937 -1.341951 -1.06066 -1.06066 
C -1.341951 -0.77937 -1.5 -0.397805 -1.5 0 
C -1.5 0.397805 -1.341951 0.77937 -1.06066 1.06066 
C -0.77937 1.341951 -0.397805 1.5 0 1.5 
z
" style="stroke: #ff7f0e"/>
    </defs>
    <g clip-path="url(#p8763e552f3)">
     <use xlink:href="#mb1d673ec24" x="114.426446" y="165.531163" style="fill: #ff7f0e; stroke: #ff7f0e"/>
     <use xlink:href="#mb1d673ec24" x="129.183471" y="165.531163" style="fill: #ff7f0e; stroke: #ff7f0e"/>
     <use xlink:href="#mb1d673ec24" x="143.940496" y="165.437071" style="fill: #ff7f0e; stroke: #ff7f0e"/>
     <use xlink:href="#mb1d673ec24" x="158.697521" y="165.531163" style="fill: #ff7f0e; stroke: #ff7f0e"/>
     <use xlink:href="#mb1d673ec24" x="173.454545" y="142.87238" style="fill: #ff7f0e; stroke: #ff7f0e"/>
     <use xlink:href="#mb1d673ec24" x="188.21157" y="107.145596" style="fill: #ff7f0e; stroke: #ff7f0e"/>
     <use xlink:href="#mb1d673ec24" x="202.968595" y="135.533323" style="fill: #ff7f0e; stroke: #ff7f0e"/>
     <use xlink:href="#mb1d673ec24" x="217.72562" y="125.193223" style="fill: #ff7f0e; stroke: #ff7f0e"/>
     <use xlink:href="#mb1d673ec24" x="232.482645" y="126.802846" style="fill: #ff7f0e; stroke: #ff7f0e"/>
     <use xlink:href="#mb1d673ec24" x="247.239669" y="74.196894" style="fill: #ff7f0e; stroke: #ff7f0e"/>
     <use xlink:href="#mb1d673ec24" x="261.996694" y="67.177584" style="fill: #ff7f0e; stroke: #ff7f0e"/>
     <use xlink:href="#mb1d673ec24" x="276.753719" y="53.803636" style="fill: #ff7f0e; stroke: #ff7f0e"/>
     <use xlink:href="#mb1d673ec24" x="291.510744" y="83.472436" style="fill: #ff7f0e; stroke: #ff7f0e"/>
     <use xlink:href="#mb1d673ec24" x="306.267769" y="77.280581" style="fill: #ff7f0e; stroke: #ff7f0e"/>
     <use xlink:href="#mb1d673ec24" x="321.024793" y="82.477415" style="fill: #ff7f0e; stroke: #ff7f0e"/>
     <use xlink:href="#mb1d673ec24" x="335.781818" y="109.273241" style="fill: #ff7f0e; stroke: #ff7f0e"/>
     <use xlink:href="#mb1d673ec24" x="350.538843" y="119.38561" style="fill: #ff7f0e; stroke: #ff7f0e"/>
     <use xlink:href="#mb1d673ec24" x="365.295868" y="106.541649" style="fill: #ff7f0e; stroke: #ff7f0e"/>
     <use xlink:href="#mb1d673ec24" x="380.052893" y="111.341679" style="fill: #ff7f0e; stroke: #ff7f0e"/>
     <use xlink:href="#mb1d673ec24" x="394.809917" y="112.768899" style="fill: #ff7f0e; stroke: #ff7f0e"/>
     <use xlink:href="#mb1d673ec24" x="409.566942" y="69.736688" style="fill: #ff7f0e; stroke: #ff7f0e"/>
     <use xlink:href="#mb1d673ec24" x="424.323967" y="88.600344" style="fill: #ff7f0e; stroke: #ff7f0e"/>
     <use xlink:href="#mb1d673ec24" x="439.080992" y="112.606602" style="fill: #ff7f0e; stroke: #ff7f0e"/>
     <use xlink:href="#mb1d673ec24" x="453.838017" y="154.303743" style="fill: #ff7f0e; stroke: #ff7f0e"/>
     <use xlink:href="#mb1d673ec24" x="468.595041" y="165.531163" style="fill: #ff7f0e; stroke: #ff7f0e"/>
     <use xlink:href="#mb1d673ec24" x="483.352066" y="165.531163" style="fill: #ff7f0e; stroke: #ff7f0e"/>
     <use xlink:href="#mb1d673ec24" x="498.109091" y="165.531163" style="fill: #ff7f0e; stroke: #ff7f0e"/>
    </g>
   </g>
   <g id="line2d_19">
    <defs>
     <path id="mfe261d03bc" d="M 0 -3 
L -0.673542 -0.927051 
L -2.85317 -0.927051 
L -1.089814 0.354102 
L -1.763356 2.427051 
L -0 1.145898 
L 1.763356 2.427051 
L 1.089814 0.354102 
L 2.85317 -0.927051 
L 0.673542 -0.927051 
z
" style="stroke: #ff0000; stroke-linejoin: bevel"/>
    </defs>
    <g clip-path="url(#p8763e552f3)">
     <use xlink:href="#mfe261d03bc" x="188.21157" y="107.145596" style="fill: #ff0000; stroke: #ff0000; stroke-linejoin: bevel"/>
     <use xlink:href="#mfe261d03bc" x="276.753719" y="53.803636" style="fill: #ff0000; stroke: #ff0000; stroke-linejoin: bevel"/>
     <use xlink:href="#mfe261d03bc" x="409.566942" y="69.736688" style="fill: #ff0000; stroke: #ff0000; stroke-linejoin: bevel"/>
    </g>
   </g>
   <g id="patch_3">
    <path d="M 72 256.32 
L 72 34.56 
" style="fill: none; stroke: #000000; stroke-width: 0.8; stroke-linejoin: miter; stroke-linecap: square"/>
   </g>
   <g id="patch_4">
    <path d="M 518.4 256.32 
L 518.4 34.56 
" style="fill: none; stroke: #000000; stroke-width: 0.8; stroke-linejoin: miter; stroke-linecap: square"/>
   </g>
   <g id="patch_5">
    <path d="M 72 256.32 
L 518.4 256.32 
" style="fill: none; stroke: #000000; stroke-width: 0.8; stroke-linejoin: miter; stroke-linecap: square"/>
   </g>
   <g id="patch_6">
    <path d="M 72 34.56 
L 518.4 34.56 
" style="fill: none; stroke: #000000; stroke-width: 0.8; stroke-linejoin: miter; stroke-linecap: square"/>
   </g>
   <g id="text_19">
    <!-- Signal and HNR: 'lämnade' -->
    <g transform="translate(215.289375 28.56) scale(0.12 -0.12)">
     <defs>
      <path id="DejaVuSans-53" d="M 3425 4513 
L 3425 3897 
Q 3066 4069 2747 4153 
Q 2428 4238 2131 4238 
Q 1616 4238 1336 4038 
Q 1056 3838 1056 3469 
Q 1056 3159 1242 3001 
Q 1428 2844 1947 2747 
L 2328 2669 
Q 3034 2534 3370 2195 
Q 3706 1856 3706 1288 
Q 3706 609 3251 259 
Q 2797 -91 1919 -91 
Q 1588 -91 1214 -16 
Q 841 59 441 206 
L 441 856 
Q 825 641 1194 531 
Q 1563 422 1919 422 
Q 2459 422 2753 634 
Q 3047 847 3047 1241 
Q 3047 1584 2836 1778 
Q 2625 1972 2144 2069 
L 1759 2144 
Q 1053 2284 737 2584 
Q 422 2884 422 3419 
Q 422 4038 858 4394 
Q 1294 4750 2059 4750 
Q 2388 4750 2728 4690 
Q 3069 4631 3425 4513 
z
" transform="scale(0.015625)"/>
      <path id="DejaVuSans-67" d="M 2906 1791 
Q 2906 2416 2648 2759 
Q 2391 3103 1925 3103 
Q 1463 3103 1205 2759 
Q 947 2416 947 1791 
Q 947 1169 1205 825 
Q 1463 481 1925 481 
Q 2391 481 2648 825 
Q 2906 1169 2906 1791 
z
M 3481 434 
Q 3481 -459 3084 -895 
Q 2688 -1331 1869 -1331 
Q 1566 -1331 1297 -1286 
Q 1028 -1241 775 -1147 
L 775 -588 
Q 1028 -725 1275 -790 
Q 1522 -856 1778 -856 
Q 2344 -856 2625 -561 
Q 2906 -266 2906 331 
L 2906 616 
Q 2728 306 2450 153 
Q 2172 0 1784 0 
Q 1141 0 747 490 
Q 353 981 353 1791 
Q 353 2603 747 3093 
Q 1141 3584 1784 3584 
Q 2172 3584 2450 3431 
Q 2728 3278 2906 2969 
L 2906 3500 
L 3481 3500 
L 3481 434 
z
" transform="scale(0.015625)"/>
      <path id="DejaVuSans-6e" d="M 3513 2113 
L 3513 0 
L 2938 0 
L 2938 2094 
Q 2938 2591 2744 2837 
Q 2550 3084 2163 3084 
Q 1697 3084 1428 2787 
Q 1159 2491 1159 1978 
L 1159 0 
L 581 0 
L 581 3500 
L 1159 3500 
L 1159 2956 
Q 1366 3272 1645 3428 
Q 1925 3584 2291 3584 
Q 2894 3584 3203 3211 
Q 3513 2838 3513 2113 
z
" transform="scale(0.015625)"/>
      <path id="DejaVuSans-3a" d="M 750 794 
L 1409 794 
L 1409 0 
L 750 0 
L 750 794 
z
M 750 3309 
L 1409 3309 
L 1409 2516 
L 750 2516 
L 750 3309 
z
" transform="scale(0.015625)"/>
      <path id="DejaVuSans-27" d="M 1147 4666 
L 1147 2931 
L 616 2931 
L 616 4666 
L 1147 4666 
z
" transform="scale(0.015625)"/>
      <path id="DejaVuSans-e4" d="M 2194 1759 
Q 1497 1759 1228 1600 
Q 959 1441 959 1056 
Q 959 750 1161 570 
Q 1363 391 1709 391 
Q 2188 391 2477 730 
Q 2766 1069 2766 1631 
L 2766 1759 
L 2194 1759 
z
M 3341 1997 
L 3341 0 
L 2766 0 
L 2766 531 
Q 2569 213 2275 61 
Q 1981 -91 1556 -91 
Q 1019 -91 701 211 
Q 384 513 384 1019 
Q 384 1609 779 1909 
Q 1175 2209 1959 2209 
L 2766 2209 
L 2766 2266 
Q 2766 2663 2505 2880 
Q 2244 3097 1772 3097 
Q 1472 3097 1187 3025 
Q 903 2953 641 2809 
L 641 3341 
Q 956 3463 1253 3523 
Q 1550 3584 1831 3584 
Q 2591 3584 2966 3190 
Q 3341 2797 3341 1997 
z
M 2150 4850 
L 2784 4850 
L 2784 4219 
L 2150 4219 
L 2150 4850 
z
M 928 4850 
L 1563 4850 
L 1563 4219 
L 928 4219 
L 928 4850 
z
" transform="scale(0.015625)"/>
     </defs>
     <use xlink:href="#DejaVuSans-53"/>
     <use xlink:href="#DejaVuSans-69" x="63.476562"/>
     <use xlink:href="#DejaVuSans-67" x="91.259766"/>
     <use xlink:href="#DejaVuSans-6e" x="154.736328"/>
     <use xlink:href="#DejaVuSans-61" x="218.115234"/>
     <use xlink:href="#DejaVuSans-6c" x="279.394531"/>
     <use xlink:href="#DejaVuSans-20" x="307.177734"/>
     <use xlink:href="#DejaVuSans-61" x="338.964844"/>
     <use xlink:href="#DejaVuSans-6e" x="400.244141"/>
     <use xlink:href="#DejaVuSans-64" x="463.623047"/>
     <use xlink:href="#DejaVuSans-20" x="527.099609"/>
     <use xlink:href="#DejaVuSans-48" x="558.886719"/>
     <use xlink:href="#DejaVuSans-4e" x="634.082031"/>
     <use xlink:href="#DejaVuSans-52" x="708.886719"/>
     <use xlink:href="#DejaVuSans-3a" x="775.244141"/>
     <use xlink:href="#DejaVuSans-20" x="808.935547"/>
     <use xlink:href="#DejaVuSans-27" x="840.722656"/>
     <use xlink:href="#DejaVuSans-6c" x="868.212891"/>
     <use xlink:href="#DejaVuSans-e4" x="895.996094"/>
     <use xlink:href="#DejaVuSans-6d" x="957.275391"/>
     <use xlink:href="#DejaVuSans-6e" x="1054.6875"/>
     <use xlink:href="#DejaVuSans-61" x="1118.066406"/>
     <use xlink:href="#DejaVuSans-64" x="1179.345703"/>
     <use xlink:href="#DejaVuSans-65" x="1242.822266"/>
     <use xlink:href="#DejaVuSans-27" x="1304.345703"/>
    </g>
   </g>
   <g id="legend_1">
    <g id="patch_7">
     <path d="M 380.942187 251.32 
L 511.4 251.32 
Q 513.4 251.32 513.4 249.32 
L 513.4 206.285625 
Q 513.4 204.285625 511.4 204.285625 
L 380.942187 204.285625 
Q 378.942187 204.285625 378.942187 206.285625 
L 378.942187 249.32 
Q 378.942187 251.32 380.942187 251.32 
z
" style="fill: #ffffff; opacity: 0.8; stroke: #cccccc; stroke-linejoin: miter"/>
    </g>
    <g id="line2d_20">
     <path d="M 382.942187 212.384062 
L 392.942187 212.384062 
L 402.942187 212.384062 
" style="fill: none; stroke: #1f77b4; stroke-width: 1.5; stroke-linecap: square"/>
    </g>
    <g id="text_20">
     <!-- segment (lämnade) -->
     <g transform="translate(410.942187 215.884062) scale(0.1 -0.1)">
      <use xlink:href="#DejaVuSans-73"/>
      <use xlink:href="#DejaVuSans-65" x="52.099609"/>
      <use xlink:href="#DejaVuSans-67" x="113.623047"/>
      <use xlink:href="#DejaVuSans-6d" x="177.099609"/>
      <use xlink:href="#DejaVuSans-65" x="274.511719"/>
      <use xlink:href="#DejaVuSans-6e" x="336.035156"/>
      <use xlink:href="#DejaVuSans-74" x="399.414062"/>
      <use xlink:href="#DejaVuSans-20" x="438.623047"/>
      <use xlink:href="#DejaVuSans-28" x="470.410156"/>
      <use xlink:href="#DejaVuSans-6c" x="509.423828"/>
      <use xlink:href="#DejaVuSans-e4" x="537.207031"/>
      <use xlink:href="#DejaVuSans-6d" x="598.486328"/>
      <use xlink:href="#DejaVuSans-6e" x="695.898438"/>
      <use xlink:href="#DejaVuSans-61" x="759.277344"/>
      <use xlink:href="#DejaVuSans-64" x="820.556641"/>
      <use xlink:href="#DejaVuSans-65" x="884.033203"/>
      <use xlink:href="#DejaVuSans-29" x="945.556641"/>
     </g>
    </g>
    <g id="line2d_21">
     <g>
      <use xlink:href="#mb1d673ec24" x="392.942187" y="227.062187" style="fill: #ff7f0e; stroke: #ff7f0e"/>
     </g>
    </g>
    <g id="text_21">
     <!-- HNR -->
     <g transform="translate(410.942187 230.562187) scale(0.1 -0.1)">
      <use xlink:href="#DejaVuSans-48"/>
      <use xlink:href="#DejaVuSans-4e" x="75.195312"/>
      <use xlink:href="#DejaVuSans-52" x="150"/>
     </g>
    </g>
    <g id="line2d_22">
     <g>
      <use xlink:href="#mfe261d03bc" x="392.942187" y="241.740313" style="fill: #ff0000; stroke: #ff0000; stroke-linejoin: bevel"/>
     </g>
    </g>
    <g id="text_22">
     <!-- chosen peaks -->
     <g transform="translate(410.942187 245.240313) scale(0.1 -0.1)">
      <defs>
       <path id="DejaVuSans-63" d="M 3122 3366 
L 3122 2828 
Q 2878 2963 2633 3030 
Q 2388 3097 2138 3097 
Q 1578 3097 1268 2742 
Q 959 2388 959 1747 
Q 959 1106 1268 751 
Q 1578 397 2138 397 
Q 2388 397 2633 464 
Q 2878 531 3122 666 
L 3122 134 
Q 2881 22 2623 -34 
Q 2366 -91 2075 -91 
Q 1284 -91 818 406 
Q 353 903 353 1747 
Q 353 2603 823 3093 
Q 1294 3584 2113 3584 
Q 2378 3584 2631 3529 
Q 2884 3475 3122 3366 
z
" transform="scale(0.015625)"/>
       <path id="DejaVuSans-68" d="M 3513 2113 
L 3513 0 
L 2938 0 
L 2938 2094 
Q 2938 2591 2744 2837 
Q 2550 3084 2163 3084 
Q 1697 3084 1428 2787 
Q 1159 2491 1159 1978 
L 1159 0 
L 581 0 
L 581 4863 
L 1159 4863 
L 1159 2956 
Q 1366 3272 1645 3428 
Q 1925 3584 2291 3584 
Q 2894 3584 3203 3211 
Q 3513 2838 3513 2113 
z
" transform="scale(0.015625)"/>
       <path id="DejaVuSans-6b" d="M 581 4863 
L 1159 4863 
L 1159 1991 
L 2875 3500 
L 3609 3500 
L 1753 1863 
L 3688 0 
L 2938 0 
L 1159 1709 
L 1159 0 
L 581 0 
L 581 4863 
z
" transform="scale(0.015625)"/>
      </defs>
      <use xlink:href="#DejaVuSans-63"/>
      <use xlink:href="#DejaVuSans-68" x="54.980469"/>
      <use xlink:href="#DejaVuSans-6f" x="118.359375"/>
      <use xlink:href="#DejaVuSans-73" x="179.541016"/>
      <use xlink:href="#DejaVuSans-65" x="231.640625"/>
      <use xlink:href="#DejaVuSans-6e" x="293.164062"/>
      <use xlink:href="#DejaVuSans-20" x="356.542969"/>
      <use xlink:href="#DejaVuSans-70" x="388.330078"/>
      <use xlink:href="#DejaVuSans-65" x="451.806641"/>
      <use xlink:href="#DejaVuSans-61" x="513.330078"/>
      <use xlink:href="#DejaVuSans-6b" x="574.609375"/>
      <use xlink:href="#DejaVuSans-73" x="632.519531"/>
     </g>
    </g>
   </g>
  </g>
 </g>
 <defs>
  <clipPath id="p8763e552f3">
   <rect x="72" y="34.56" width="446.4" height="221.76"/>
  </clipPath>
 </defs>
</svg>
