<?xml version="1.0" encoding="utf-8" standalone="no"?>
<!DOCTYPE svg PUBLIC "-//W3C//DTD SVG 1.1//EN"
  "http://www.w3.org/Graphics/SVG/1.1/DTD/svg11.dtd">
<svg xmlns:xlink="http://www.w3.org/1999/xlink" width="720pt" height="144pt" viewBox="0 0 720 144" xmlns="http://www.w3.org/2000/svg" version="1.1">
 <metadata>
  <rdf:RDF xmlns:dc="http://purl.org/dc/elements/1.1/" xmlns:cc="http://creativecommons.org/ns#" xmlns:rdf="http://www.w3.org/1999/02/22-rdf-syntax-ns#">
   <cc:Work>
    <dc:type rdf:resource="http://purl.org/dc/dcmitype/StillImage"/>
    <dc:date>2024-04-03T16:18:20.120387</dc:date>
    <dc:format>image/svg+xml</dc:format>
    <dc:creator>
     <cc:Agent>
      <dc:title>Matplotlib v3.8.0, https://matplotlib.org/</dc:title>
     </cc:Agent>
    </dc:creator>
   </cc:Work>
  </rdf:RDF>
 </metadata>
 <defs>
  <style type="text/css">*{stroke-linejoin: round; stroke-linecap: butt}</style>
 </defs>
 <g id="figure_1">
  <g id="patch_1">
   <path d="M 0 144 
L 720 144 
L 720 0 
L 0 0 
z
"/>
  </g>
  <g id="axes_1">
   <g id="patch_2">
    <path d="M 90 128.16 
L 648 128.16 
L 648 17.28 
L 90 17.28 
z
"/>
   </g>
   <g id="matplotlib.axis_1">
    <g id="xtick_1">
     <g id="line2d_1">
      <defs>
       <path id="m2ad6493f31" d="M 0 0 
L 0 3.5 
" style="stroke: #ffffff; stroke-width: 0.8"/>
      </defs>
      <g>
       <use xlink:href="#m2ad6493f31" x="115.363636" y="128.16" style="fill: #ffffff; stroke: #ffffff; stroke-width: 0.8"/>
      </g>
     </g>
     <g id="text_1">
      <!-- 0 -->
      <g style="fill: #ffffff" transform="translate(112.182386 142.758438) scale(0.1 -0.1)">
       <defs>
        <path id="DejaVuSans-30" d="M 2034 4250 
Q 1547 4250 1301 3770 
Q 1056 3291 1056 2328 
Q 1056 1369 1301 889 
Q 1547 409 2034 409 
Q 2525 409 2770 889 
Q 3016 1369 3016 2328 
Q 3016 3291 2770 3770 
Q 2525 4250 2034 4250 
z
M 2034 4750 
Q 2819 4750 3233 4129 
Q 3647 3509 3647 2328 
Q 3647 1150 3233 529 
Q 2819 -91 2034 -91 
Q 1250 -91 836 529 
Q 422 1150 422 2328 
Q 422 3509 836 4129 
Q 1250 4750 2034 4750 
z
" transform="scale(0.015625)"/>
       </defs>
       <use xlink:href="#DejaVuSans-30"/>
      </g>
     </g>
    </g>
    <g id="xtick_2">
     <g id="line2d_2">
      <g>
       <use xlink:href="#m2ad6493f31" x="211.075472" y="128.16" style="fill: #ffffff; stroke: #ffffff; stroke-width: 0.8"/>
      </g>
     </g>
     <g id="text_2">
      <!-- 20 -->
      <g style="fill: #ffffff" transform="translate(204.712972 142.758438) scale(0.1 -0.1)">
       <defs>
        <path id="DejaVuSans-32" d="M 1228 531 
L 3431 531 
L 3431 0 
L 469 0 
L 469 531 
Q 828 903 1448 1529 
Q 2069 2156 2228 2338 
Q 2531 2678 2651 2914 
Q 2772 3150 2772 3378 
Q 2772 3750 2511 3984 
Q 2250 4219 1831 4219 
Q 1534 4219 1204 4116 
Q 875 4013 500 3803 
L 500 4441 
Q 881 4594 1212 4672 
Q 1544 4750 1819 4750 
Q 2544 4750 2975 4387 
Q 3406 4025 3406 3419 
Q 3406 3131 3298 2873 
Q 3191 2616 2906 2266 
Q 2828 2175 2409 1742 
Q 1991 1309 1228 531 
z
" transform="scale(0.015625)"/>
       </defs>
       <use xlink:href="#DejaVuSans-32"/>
       <use xlink:href="#DejaVuSans-30" x="63.623047"/>
      </g>
     </g>
    </g>
    <g id="xtick_3">
     <g id="line2d_3">
      <g>
       <use xlink:href="#m2ad6493f31" x="306.787307" y="128.16" style="fill: #ffffff; stroke: #ffffff; stroke-width: 0.8"/>
      </g>
     </g>
     <g id="text_3">
      <!-- 40 -->
      <g style="fill: #ffffff" transform="translate(300.424807 142.758438) scale(0.1 -0.1)">
       <defs>
        <path id="DejaVuSans-34" d="M 2419 4116 
L 825 1625 
L 2419 1625 
L 2419 4116 
z
M 2253 4666 
L 3047 4666 
L 3047 1625 
L 3713 1625 
L 3713 1100 
L 3047 1100 
L 3047 0 
L 2419 0 
L 2419 1100 
L 313 1100 
L 313 1709 
L 2253 4666 
z
" transform="scale(0.015625)"/>
       </defs>
       <use xlink:href="#DejaVuSans-34"/>
       <use xlink:href="#DejaVuSans-30" x="63.623047"/>
      </g>
     </g>
    </g>
    <g id="xtick_4">
     <g id="line2d_4">
      <g>
       <use xlink:href="#m2ad6493f31" x="402.499142" y="128.16" style="fill: #ffffff; stroke: #ffffff; stroke-width: 0.8"/>
      </g>
     </g>
     <g id="text_4">
      <!-- 60 -->
      <g style="fill: #ffffff" transform="translate(396.136642 142.758438) scale(0.1 -0.1)">
       <defs>
        <path id="DejaVuSans-36" d="M 2113 2584 
Q 1688 2584 1439 2293 
Q 1191 2003 1191 1497 
Q 1191 994 1439 701 
Q 1688 409 2113 409 
Q 2538 409 2786 701 
Q 3034 994 3034 1497 
Q 3034 2003 2786 2293 
Q 2538 2584 2113 2584 
z
M 3366 4563 
L 3366 3988 
Q 3128 4100 2886 4159 
Q 2644 4219 2406 4219 
Q 1781 4219 1451 3797 
Q 1122 3375 1075 2522 
Q 1259 2794 1537 2939 
Q 1816 3084 2150 3084 
Q 2853 3084 3261 2657 
Q 3669 2231 3669 1497 
Q 3669 778 3244 343 
Q 2819 -91 2113 -91 
Q 1303 -91 875 529 
Q 447 1150 447 2328 
Q 447 3434 972 4092 
Q 1497 4750 2381 4750 
Q 2619 4750 2861 4703 
Q 3103 4656 3366 4563 
z
" transform="scale(0.015625)"/>
       </defs>
       <use xlink:href="#DejaVuSans-36"/>
       <use xlink:href="#DejaVuSans-30" x="63.623047"/>
      </g>
     </g>
    </g>
    <g id="xtick_5">
     <g id="line2d_5">
      <g>
       <use xlink:href="#m2ad6493f31" x="498.210978" y="128.16" style="fill: #ffffff; stroke: #ffffff; stroke-width: 0.8"/>
      </g>
     </g>
     <g id="text_5">
      <!-- 80 -->
      <g style="fill: #ffffff" transform="translate(491.848478 142.758438) scale(0.1 -0.1)">
       <defs>
        <path id="DejaVuSans-38" d="M 2034 2216 
Q 1584 2216 1326 1975 
Q 1069 1734 1069 1313 
Q 1069 891 1326 650 
Q 1584 409 2034 409 
Q 2484 409 2743 651 
Q 3003 894 3003 1313 
Q 3003 1734 2745 1975 
Q 2488 2216 2034 2216 
z
M 1403 2484 
Q 997 2584 770 2862 
Q 544 3141 544 3541 
Q 544 4100 942 4425 
Q 1341 4750 2034 4750 
Q 2731 4750 3128 4425 
Q 3525 4100 3525 3541 
Q 3525 3141 3298 2862 
Q 3072 2584 2669 2484 
Q 3125 2378 3379 2068 
Q 3634 1759 3634 1313 
Q 3634 634 3220 271 
Q 2806 -91 2034 -91 
Q 1263 -91 848 271 
Q 434 634 434 1313 
Q 434 1759 690 2068 
Q 947 2378 1403 2484 
z
M 1172 3481 
Q 1172 3119 1398 2916 
Q 1625 2713 2034 2713 
Q 2441 2713 2670 2916 
Q 2900 3119 2900 3481 
Q 2900 3844 2670 4047 
Q 2441 4250 2034 4250 
Q 1625 4250 1398 4047 
Q 1172 3844 1172 3481 
z
" transform="scale(0.015625)"/>
       </defs>
       <use xlink:href="#DejaVuSans-38"/>
       <use xlink:href="#DejaVuSans-30" x="63.623047"/>
      </g>
     </g>
    </g>
    <g id="xtick_6">
     <g id="line2d_6">
      <g>
       <use xlink:href="#m2ad6493f31" x="593.922813" y="128.16" style="fill: #ffffff; stroke: #ffffff; stroke-width: 0.8"/>
      </g>
     </g>
     <g id="text_6">
      <!-- 100 -->
      <g style="fill: #ffffff" transform="translate(584.379063 142.758438) scale(0.1 -0.1)">
       <defs>
        <path id="DejaVuSans-31" d="M 794 531 
L 1825 531 
L 1825 4091 
L 703 3866 
L 703 4441 
L 1819 4666 
L 2450 4666 
L 2450 531 
L 3481 531 
L 3481 0 
L 794 0 
L 794 531 
z
" transform="scale(0.015625)"/>
       </defs>
       <use xlink:href="#DejaVuSans-31"/>
       <use xlink:href="#DejaVuSans-30" x="63.623047"/>
       <use xlink:href="#DejaVuSans-30" x="127.246094"/>
      </g>
     </g>
    </g>
    <g id="text_7">
     <!-- Word -->
     <g style="fill: #ffffff" transform="translate(356.148438 156.436563) scale(0.1 -0.1)">
      <defs>
       <path id="DejaVuSans-57" d="M 213 4666 
L 850 4666 
L 1831 722 
L 2809 4666 
L 3519 4666 
L 4500 722 
L 5478 4666 
L 6119 4666 
L 4947 0 
L 4153 0 
L 3169 4050 
L 2175 0 
L 1381 0 
L 213 4666 
z
" transform="scale(0.015625)"/>
       <path id="DejaVuSans-6f" d="M 1959 3097 
Q 1497 3097 1228 2736 
Q 959 2375 959 1747 
Q 959 1119 1226 758 
Q 1494 397 1959 397 
Q 2419 397 2687 759 
Q 2956 1122 2956 1747 
Q 2956 2369 2687 2733 
Q 2419 3097 1959 3097 
z
M 1959 3584 
Q 2709 3584 3137 3096 
Q 3566 2609 3566 1747 
Q 3566 888 3137 398 
Q 2709 -91 1959 -91 
Q 1206 -91 779 398 
Q 353 888 353 1747 
Q 353 2609 779 3096 
Q 1206 3584 1959 3584 
z
" transform="scale(0.015625)"/>
       <path id="DejaVuSans-72" d="M 2631 2963 
Q 2534 3019 2420 3045 
Q 2306 3072 2169 3072 
Q 1681 3072 1420 2755 
Q 1159 2438 1159 1844 
L 1159 0 
L 581 0 
L 581 3500 
L 1159 3500 
L 1159 2956 
Q 1341 3275 1631 3429 
Q 1922 3584 2338 3584 
Q 2397 3584 2469 3576 
Q 2541 3569 2628 3553 
L 2631 2963 
z
" transform="scale(0.015625)"/>
       <path id="DejaVuSans-64" d="M 2906 2969 
L 2906 4863 
L 3481 4863 
L 3481 0 
L 2906 0 
L 2906 525 
Q 2725 213 2448 61 
Q 2172 -91 1784 -91 
Q 1150 -91 751 415 
Q 353 922 353 1747 
Q 353 2572 751 3078 
Q 1150 3584 1784 3584 
Q 2172 3584 2448 3432 
Q 2725 3281 2906 2969 
z
M 947 1747 
Q 947 1113 1208 752 
Q 1469 391 1925 391 
Q 2381 391 2643 752 
Q 2906 1113 2906 1747 
Q 2906 2381 2643 2742 
Q 2381 3103 1925 3103 
Q 1469 3103 1208 2742 
Q 947 2381 947 1747 
z
" transform="scale(0.015625)"/>
      </defs>
      <use xlink:href="#DejaVuSans-57"/>
      <use xlink:href="#DejaVuSans-6f" x="93.001953"/>
      <use xlink:href="#DejaVuSans-72" x="154.183594"/>
      <use xlink:href="#DejaVuSans-64" x="193.546875"/>
     </g>
    </g>
   </g>
   <g id="matplotlib.axis_2">
    <g id="ytick_1">
     <g id="line2d_7">
      <defs>
       <path id="m455b9cead5" d="M 0 0 
L -3.5 0 
" style="stroke: #ffffff; stroke-width: 0.8"/>
      </defs>
      <g>
       <use xlink:href="#m455b9cead5" x="90" y="128.16" style="fill: #ffffff; stroke: #ffffff; stroke-width: 0.8"/>
      </g>
     </g>
     <g id="text_8">
      <!-- 0.00 -->
      <g style="fill: #ffffff" transform="translate(60.734375 131.959219) scale(0.1 -0.1)">
       <defs>
        <path id="DejaVuSans-2e" d="M 684 794 
L 1344 794 
L 1344 0 
L 684 0 
L 684 794 
z
" transform="scale(0.015625)"/>
       </defs>
       <use xlink:href="#DejaVuSans-30"/>
       <use xlink:href="#DejaVuSans-2e" x="63.623047"/>
       <use xlink:href="#DejaVuSans-30" x="95.410156"/>
       <use xlink:href="#DejaVuSans-30" x="159.033203"/>
      </g>
     </g>
    </g>
    <g id="ytick_2">
     <g id="line2d_8">
      <g>
       <use xlink:href="#m455b9cead5" x="90" y="101.48375" style="fill: #ffffff; stroke: #ffffff; stroke-width: 0.8"/>
      </g>
     </g>
     <g id="text_9">
      <!-- 0.25 -->
      <g style="fill: #ffffff" transform="translate(60.734375 105.282968) scale(0.1 -0.1)">
       <defs>
        <path id="DejaVuSans-35" d="M 691 4666 
L 3169 4666 
L 3169 4134 
L 1269 4134 
L 1269 2991 
Q 1406 3038 1543 3061 
Q 1681 3084 1819 3084 
Q 2600 3084 3056 2656 
Q 3513 2228 3513 1497 
Q 3513 744 3044 326 
Q 2575 -91 1722 -91 
Q 1428 -91 1123 -41 
Q 819 9 494 109 
L 494 744 
Q 775 591 1075 516 
Q 1375 441 1709 441 
Q 2250 441 2565 725 
Q 2881 1009 2881 1497 
Q 2881 1984 2565 2268 
Q 2250 2553 1709 2553 
Q 1456 2553 1204 2497 
Q 953 2441 691 2322 
L 691 4666 
z
" transform="scale(0.015625)"/>
       </defs>
       <use xlink:href="#DejaVuSans-30"/>
       <use xlink:href="#DejaVuSans-2e" x="63.623047"/>
       <use xlink:href="#DejaVuSans-32" x="95.410156"/>
       <use xlink:href="#DejaVuSans-35" x="159.033203"/>
      </g>
     </g>
    </g>
    <g id="ytick_3">
     <g id="line2d_9">
      <g>
       <use xlink:href="#m455b9cead5" x="90" y="74.807499" style="fill: #ffffff; stroke: #ffffff; stroke-width: 0.8"/>
      </g>
     </g>
     <g id="text_10">
      <!-- 0.50 -->
      <g style="fill: #ffffff" transform="translate(60.734375 78.606718) scale(0.1 -0.1)">
       <use xlink:href="#DejaVuSans-30"/>
       <use xlink:href="#DejaVuSans-2e" x="63.623047"/>
       <use xlink:href="#DejaVuSans-35" x="95.410156"/>
       <use xlink:href="#DejaVuSans-30" x="159.033203"/>
      </g>
     </g>
    </g>
    <g id="ytick_4">
     <g id="line2d_10">
      <g>
       <use xlink:href="#m455b9cead5" x="90" y="48.131249" style="fill: #ffffff; stroke: #ffffff; stroke-width: 0.8"/>
      </g>
     </g>
     <g id="text_11">
      <!-- 0.75 -->
      <g style="fill: #ffffff" transform="translate(60.734375 51.930468) scale(0.1 -0.1)">
       <defs>
        <path id="DejaVuSans-37" d="M 525 4666 
L 3525 4666 
L 3525 4397 
L 1831 0 
L 1172 0 
L 2766 4134 
L 525 4134 
L 525 4666 
z
" transform="scale(0.015625)"/>
       </defs>
       <use xlink:href="#DejaVuSans-30"/>
       <use xlink:href="#DejaVuSans-2e" x="63.623047"/>
       <use xlink:href="#DejaVuSans-37" x="95.410156"/>
       <use xlink:href="#DejaVuSans-35" x="159.033203"/>
      </g>
     </g>
    </g>
    <g id="ytick_5">
     <g id="line2d_11">
      <g>
       <use xlink:href="#m455b9cead5" x="90" y="21.454999" style="fill: #ffffff; stroke: #ffffff; stroke-width: 0.8"/>
      </g>
     </g>
     <g id="text_12">
      <!-- 1.00 -->
      <g style="fill: #ffffff" transform="translate(60.734375 25.254217) scale(0.1 -0.1)">
       <use xlink:href="#DejaVuSans-31"/>
       <use xlink:href="#DejaVuSans-2e" x="63.623047"/>
       <use xlink:href="#DejaVuSans-30" x="95.410156"/>
       <use xlink:href="#DejaVuSans-30" x="159.033203"/>
      </g>
     </g>
    </g>
    <g id="text_13">
     <!-- Confidence -->
     <g style="fill: #ffffff" transform="translate(54.654687 100.834063) rotate(-90) scale(0.1 -0.1)">
      <defs>
       <path id="DejaVuSans-43" d="M 4122 4306 
L 4122 3641 
Q 3803 3938 3442 4084 
Q 3081 4231 2675 4231 
Q 1875 4231 1450 3742 
Q 1025 3253 1025 2328 
Q 1025 1406 1450 917 
Q 1875 428 2675 428 
Q 3081 428 3442 575 
Q 3803 722 4122 1019 
L 4122 359 
Q 3791 134 3420 21 
Q 3050 -91 2638 -91 
Q 1578 -91 968 557 
Q 359 1206 359 2328 
Q 359 3453 968 4101 
Q 1578 4750 2638 4750 
Q 3056 4750 3426 4639 
Q 3797 4528 4122 4306 
z
" transform="scale(0.015625)"/>
       <path id="DejaVuSans-6e" d="M 3513 2113 
L 3513 0 
L 2938 0 
L 2938 2094 
Q 2938 2591 2744 2837 
Q 2550 3084 2163 3084 
Q 1697 3084 1428 2787 
Q 1159 2491 1159 1978 
L 1159 0 
L 581 0 
L 581 3500 
L 1159 3500 
L 1159 2956 
Q 1366 3272 1645 3428 
Q 1925 3584 2291 3584 
Q 2894 3584 3203 3211 
Q 3513 2838 3513 2113 
z
" transform="scale(0.015625)"/>
       <path id="DejaVuSans-66" d="M 2375 4863 
L 2375 4384 
L 1825 4384 
Q 1516 4384 1395 4259 
Q 1275 4134 1275 3809 
L 1275 3500 
L 2222 3500 
L 2222 3053 
L 1275 3053 
L 1275 0 
L 697 0 
L 697 3053 
L 147 3053 
L 147 3500 
L 697 3500 
L 697 3744 
Q 697 4328 969 4595 
Q 1241 4863 1831 4863 
L 2375 4863 
z
" transform="scale(0.015625)"/>
       <path id="DejaVuSans-69" d="M 603 3500 
L 1178 3500 
L 1178 0 
L 603 0 
L 603 3500 
z
M 603 4863 
L 1178 4863 
L 1178 4134 
L 603 4134 
L 603 4863 
z
" transform="scale(0.015625)"/>
       <path id="DejaVuSans-65" d="M 3597 1894 
L 3597 1613 
L 953 1613 
Q 991 1019 1311 708 
Q 1631 397 2203 397 
Q 2534 397 2845 478 
Q 3156 559 3463 722 
L 3463 178 
Q 3153 47 2828 -22 
Q 2503 -91 2169 -91 
Q 1331 -91 842 396 
Q 353 884 353 1716 
Q 353 2575 817 3079 
Q 1281 3584 2069 3584 
Q 2775 3584 3186 3129 
Q 3597 2675 3597 1894 
z
M 3022 2063 
Q 3016 2534 2758 2815 
Q 2500 3097 2075 3097 
Q 1594 3097 1305 2825 
Q 1016 2553 972 2059 
L 3022 2063 
z
" transform="scale(0.015625)"/>
       <path id="DejaVuSans-63" d="M 3122 3366 
L 3122 2828 
Q 2878 2963 2633 3030 
Q 2388 3097 2138 3097 
Q 1578 3097 1268 2742 
Q 959 2388 959 1747 
Q 959 1106 1268 751 
Q 1578 397 2138 397 
Q 2388 397 2633 464 
Q 2878 531 3122 666 
L 3122 134 
Q 2881 22 2623 -34 
Q 2366 -91 2075 -91 
Q 1284 -91 818 406 
Q 353 903 353 1747 
Q 353 2603 823 3093 
Q 1294 3584 2113 3584 
Q 2378 3584 2631 3529 
Q 2884 3475 3122 3366 
z
" transform="scale(0.015625)"/>
      </defs>
      <use xlink:href="#DejaVuSans-43"/>
      <use xlink:href="#DejaVuSans-6f" x="69.824219"/>
      <use xlink:href="#DejaVuSans-6e" x="131.005859"/>
      <use xlink:href="#DejaVuSans-66" x="194.384766"/>
      <use xlink:href="#DejaVuSans-69" x="229.589844"/>
      <use xlink:href="#DejaVuSans-64" x="257.373047"/>
      <use xlink:href="#DejaVuSans-65" x="320.849609"/>
      <use xlink:href="#DejaVuSans-6e" x="382.373047"/>
      <use xlink:href="#DejaVuSans-63" x="445.751953"/>
      <use xlink:href="#DejaVuSans-65" x="500.732422"/>
     </g>
    </g>
   </g>
   <g id="line2d_12">
    <defs>
     <path id="md4dd299a1c" d="M 0 -3 
L -0.673542 -0.927051 
L -2.85317 -0.927051 
L -1.089814 0.354102 
L -1.763356 2.427051 
L -0 1.145898 
L 1.763356 2.427051 
L 1.089814 0.354102 
L 2.85317 -0.927051 
L 0.673542 -0.927051 
z
" style="stroke: #8dd3c7; stroke-linejoin: bevel"/>
    </defs>
    <g clip-path="url(#p68b1b4defb)">
     <use xlink:href="#md4dd299a1c" x="115.363636" y="21.454999" style="fill: #8dd3c7; stroke: #8dd3c7; stroke-linejoin: bevel"/>
     <use xlink:href="#md4dd299a1c" x="120.149228" y="21.454999" style="fill: #8dd3c7; stroke: #8dd3c7; stroke-linejoin: bevel"/>
     <use xlink:href="#md4dd299a1c" x="124.93482" y="21.454999" style="fill: #8dd3c7; stroke: #8dd3c7; stroke-linejoin: bevel"/>
     <use xlink:href="#md4dd299a1c" x="129.720412" y="21.454999" style="fill: #8dd3c7; stroke: #8dd3c7; stroke-linejoin: bevel"/>
     <use xlink:href="#md4dd299a1c" x="134.506003" y="21.454999" style="fill: #8dd3c7; stroke: #8dd3c7; stroke-linejoin: bevel"/>
     <use xlink:href="#md4dd299a1c" x="139.291595" y="21.454999" style="fill: #8dd3c7; stroke: #8dd3c7; stroke-linejoin: bevel"/>
     <use xlink:href="#md4dd299a1c" x="144.077187" y="21.454999" style="fill: #8dd3c7; stroke: #8dd3c7; stroke-linejoin: bevel"/>
     <use xlink:href="#md4dd299a1c" x="148.862779" y="21.454999" style="fill: #8dd3c7; stroke: #8dd3c7; stroke-linejoin: bevel"/>
     <use xlink:href="#md4dd299a1c" x="153.64837" y="21.454999" style="fill: #8dd3c7; stroke: #8dd3c7; stroke-linejoin: bevel"/>
     <use xlink:href="#md4dd299a1c" x="158.433962" y="21.454999" style="fill: #8dd3c7; stroke: #8dd3c7; stroke-linejoin: bevel"/>
     <use xlink:href="#md4dd299a1c" x="163.219554" y="21.454999" style="fill: #8dd3c7; stroke: #8dd3c7; stroke-linejoin: bevel"/>
     <use xlink:href="#md4dd299a1c" x="168.005146" y="21.454999" style="fill: #8dd3c7; stroke: #8dd3c7; stroke-linejoin: bevel"/>
     <use xlink:href="#md4dd299a1c" x="172.790738" y="21.454999" style="fill: #8dd3c7; stroke: #8dd3c7; stroke-linejoin: bevel"/>
     <use xlink:href="#md4dd299a1c" x="177.576329" y="21.454999" style="fill: #8dd3c7; stroke: #8dd3c7; stroke-linejoin: bevel"/>
     <use xlink:href="#md4dd299a1c" x="182.361921" y="21.454999" style="fill: #8dd3c7; stroke: #8dd3c7; stroke-linejoin: bevel"/>
     <use xlink:href="#md4dd299a1c" x="187.147513" y="21.454999" style="fill: #8dd3c7; stroke: #8dd3c7; stroke-linejoin: bevel"/>
     <use xlink:href="#md4dd299a1c" x="191.933105" y="35.331024" style="fill: #8dd3c7; stroke: #8dd3c7; stroke-linejoin: bevel"/>
     <use xlink:href="#md4dd299a1c" x="196.718696" y="49.619997" style="fill: #8dd3c7; stroke: #8dd3c7; stroke-linejoin: bevel"/>
     <use xlink:href="#md4dd299a1c" x="201.504288" y="52.129165" style="fill: #8dd3c7; stroke: #8dd3c7; stroke-linejoin: bevel"/>
     <use xlink:href="#md4dd299a1c" x="206.28988" y="21.454999" style="fill: #8dd3c7; stroke: #8dd3c7; stroke-linejoin: bevel"/>
     <use xlink:href="#md4dd299a1c" x="211.075472" y="32.401545" style="fill: #8dd3c7; stroke: #8dd3c7; stroke-linejoin: bevel"/>
     <use xlink:href="#md4dd299a1c" x="215.861063" y="61.724399" style="fill: #8dd3c7; stroke: #8dd3c7; stroke-linejoin: bevel"/>
     <use xlink:href="#md4dd299a1c" x="220.646655" y="21.454999" style="fill: #8dd3c7; stroke: #8dd3c7; stroke-linejoin: bevel"/>
     <use xlink:href="#md4dd299a1c" x="225.432247" y="21.454999" style="fill: #8dd3c7; stroke: #8dd3c7; stroke-linejoin: bevel"/>
     <use xlink:href="#md4dd299a1c" x="230.217839" y="21.454999" style="fill: #8dd3c7; stroke: #8dd3c7; stroke-linejoin: bevel"/>
     <use xlink:href="#md4dd299a1c" x="235.003431" y="21.454999" style="fill: #8dd3c7; stroke: #8dd3c7; stroke-linejoin: bevel"/>
     <use xlink:href="#md4dd299a1c" x="239.789022" y="21.454999" style="fill: #8dd3c7; stroke: #8dd3c7; stroke-linejoin: bevel"/>
     <use xlink:href="#md4dd299a1c" x="244.574614" y="40.87883" style="fill: #8dd3c7; stroke: #8dd3c7; stroke-linejoin: bevel"/>
     <use xlink:href="#md4dd299a1c" x="249.360206" y="21.454999" style="fill: #8dd3c7; stroke: #8dd3c7; stroke-linejoin: bevel"/>
     <use xlink:href="#md4dd299a1c" x="254.145798" y="21.454999" style="fill: #8dd3c7; stroke: #8dd3c7; stroke-linejoin: bevel"/>
     <use xlink:href="#md4dd299a1c" x="258.931389" y="61.156515" style="fill: #8dd3c7; stroke: #8dd3c7; stroke-linejoin: bevel"/>
     <use xlink:href="#md4dd299a1c" x="263.716981" y="89.108637" style="fill: #8dd3c7; stroke: #8dd3c7; stroke-linejoin: bevel"/>
     <use xlink:href="#md4dd299a1c" x="268.502573" y="21.454999" style="fill: #8dd3c7; stroke: #8dd3c7; stroke-linejoin: bevel"/>
     <use xlink:href="#md4dd299a1c" x="273.288165" y="56.581218" style="fill: #8dd3c7; stroke: #8dd3c7; stroke-linejoin: bevel"/>
     <use xlink:href="#md4dd299a1c" x="278.073756" y="33.179104" style="fill: #8dd3c7; stroke: #8dd3c7; stroke-linejoin: bevel"/>
     <use xlink:href="#md4dd299a1c" x="282.859348" y="59.030845" style="fill: #8dd3c7; stroke: #8dd3c7; stroke-linejoin: bevel"/>
     <use xlink:href="#md4dd299a1c" x="287.64494" y="47.909303" style="fill: #8dd3c7; stroke: #8dd3c7; stroke-linejoin: bevel"/>
     <use xlink:href="#md4dd299a1c" x="292.430532" y="90.169498" style="fill: #8dd3c7; stroke: #8dd3c7; stroke-linejoin: bevel"/>
     <use xlink:href="#md4dd299a1c" x="297.216123" y="21.454999" style="fill: #8dd3c7; stroke: #8dd3c7; stroke-linejoin: bevel"/>
     <use xlink:href="#md4dd299a1c" x="302.001715" y="21.454999" style="fill: #8dd3c7; stroke: #8dd3c7; stroke-linejoin: bevel"/>
     <use xlink:href="#md4dd299a1c" x="306.787307" y="21.454999" style="fill: #8dd3c7; stroke: #8dd3c7; stroke-linejoin: bevel"/>
     <use xlink:href="#md4dd299a1c" x="311.572899" y="50.51856" style="fill: #8dd3c7; stroke: #8dd3c7; stroke-linejoin: bevel"/>
     <use xlink:href="#md4dd299a1c" x="316.358491" y="21.454999" style="fill: #8dd3c7; stroke: #8dd3c7; stroke-linejoin: bevel"/>
     <use xlink:href="#md4dd299a1c" x="321.144082" y="21.454999" style="fill: #8dd3c7; stroke: #8dd3c7; stroke-linejoin: bevel"/>
     <use xlink:href="#md4dd299a1c" x="325.929674" y="65.148883" style="fill: #8dd3c7; stroke: #8dd3c7; stroke-linejoin: bevel"/>
     <use xlink:href="#md4dd299a1c" x="330.715266" y="71.748587" style="fill: #8dd3c7; stroke: #8dd3c7; stroke-linejoin: bevel"/>
     <use xlink:href="#md4dd299a1c" x="335.500858" y="21.454999" style="fill: #8dd3c7; stroke: #8dd3c7; stroke-linejoin: bevel"/>
     <use xlink:href="#md4dd299a1c" x="340.286449" y="21.454999" style="fill: #8dd3c7; stroke: #8dd3c7; stroke-linejoin: bevel"/>
     <use xlink:href="#md4dd299a1c" x="345.072041" y="39.652256" style="fill: #8dd3c7; stroke: #8dd3c7; stroke-linejoin: bevel"/>
     <use xlink:href="#md4dd299a1c" x="349.857633" y="39.652256" style="fill: #8dd3c7; stroke: #8dd3c7; stroke-linejoin: bevel"/>
     <use xlink:href="#md4dd299a1c" x="354.643225" y="21.454999" style="fill: #8dd3c7; stroke: #8dd3c7; stroke-linejoin: bevel"/>
     <use xlink:href="#md4dd299a1c" x="359.428816" y="21.454999" style="fill: #8dd3c7; stroke: #8dd3c7; stroke-linejoin: bevel"/>
     <use xlink:href="#md4dd299a1c" x="364.214408" y="21.454999" style="fill: #8dd3c7; stroke: #8dd3c7; stroke-linejoin: bevel"/>
     <use xlink:href="#md4dd299a1c" x="369" y="21.454999" style="fill: #8dd3c7; stroke: #8dd3c7; stroke-linejoin: bevel"/>
     <use xlink:href="#md4dd299a1c" x="373.785592" y="39.0514" style="fill: #8dd3c7; stroke: #8dd3c7; stroke-linejoin: bevel"/>
     <use xlink:href="#md4dd299a1c" x="378.571184" y="104.95497" style="fill: #8dd3c7; stroke: #8dd3c7; stroke-linejoin: bevel"/>
     <use xlink:href="#md4dd299a1c" x="383.356775" y="104.245382" style="fill: #8dd3c7; stroke: #8dd3c7; stroke-linejoin: bevel"/>
     <use xlink:href="#md4dd299a1c" x="388.142367" y="21.454999" style="fill: #8dd3c7; stroke: #8dd3c7; stroke-linejoin: bevel"/>
     <use xlink:href="#md4dd299a1c" x="392.927959" y="21.454999" style="fill: #8dd3c7; stroke: #8dd3c7; stroke-linejoin: bevel"/>
     <use xlink:href="#md4dd299a1c" x="397.713551" y="21.454999" style="fill: #8dd3c7; stroke: #8dd3c7; stroke-linejoin: bevel"/>
     <use xlink:href="#md4dd299a1c" x="402.499142" y="21.454999" style="fill: #8dd3c7; stroke: #8dd3c7; stroke-linejoin: bevel"/>
     <use xlink:href="#md4dd299a1c" x="407.284734" y="21.454999" style="fill: #8dd3c7; stroke: #8dd3c7; stroke-linejoin: bevel"/>
     <use xlink:href="#md4dd299a1c" x="412.070326" y="21.454999" style="fill: #8dd3c7; stroke: #8dd3c7; stroke-linejoin: bevel"/>
     <use xlink:href="#md4dd299a1c" x="416.855918" y="21.454999" style="fill: #8dd3c7; stroke: #8dd3c7; stroke-linejoin: bevel"/>
     <use xlink:href="#md4dd299a1c" x="421.641509" y="21.454999" style="fill: #8dd3c7; stroke: #8dd3c7; stroke-linejoin: bevel"/>
     <use xlink:href="#md4dd299a1c" x="426.427101" y="21.454999" style="fill: #8dd3c7; stroke: #8dd3c7; stroke-linejoin: bevel"/>
     <use xlink:href="#md4dd299a1c" x="431.212693" y="21.454999" style="fill: #8dd3c7; stroke: #8dd3c7; stroke-linejoin: bevel"/>
     <use xlink:href="#md4dd299a1c" x="435.998285" y="21.454999" style="fill: #8dd3c7; stroke: #8dd3c7; stroke-linejoin: bevel"/>
     <use xlink:href="#md4dd299a1c" x="440.783877" y="65.094997" style="fill: #8dd3c7; stroke: #8dd3c7; stroke-linejoin: bevel"/>
     <use xlink:href="#md4dd299a1c" x="445.569468" y="47.025252" style="fill: #8dd3c7; stroke: #8dd3c7; stroke-linejoin: bevel"/>
     <use xlink:href="#md4dd299a1c" x="450.35506" y="21.454999" style="fill: #8dd3c7; stroke: #8dd3c7; stroke-linejoin: bevel"/>
     <use xlink:href="#md4dd299a1c" x="455.140652" y="21.454999" style="fill: #8dd3c7; stroke: #8dd3c7; stroke-linejoin: bevel"/>
     <use xlink:href="#md4dd299a1c" x="459.926244" y="21.454999" style="fill: #8dd3c7; stroke: #8dd3c7; stroke-linejoin: bevel"/>
     <use xlink:href="#md4dd299a1c" x="464.711835" y="21.454999" style="fill: #8dd3c7; stroke: #8dd3c7; stroke-linejoin: bevel"/>
     <use xlink:href="#md4dd299a1c" x="469.497427" y="21.454999" style="fill: #8dd3c7; stroke: #8dd3c7; stroke-linejoin: bevel"/>
     <use xlink:href="#md4dd299a1c" x="474.283019" y="21.454999" style="fill: #8dd3c7; stroke: #8dd3c7; stroke-linejoin: bevel"/>
     <use xlink:href="#md4dd299a1c" x="479.068611" y="21.454999" style="fill: #8dd3c7; stroke: #8dd3c7; stroke-linejoin: bevel"/>
     <use xlink:href="#md4dd299a1c" x="483.854202" y="40.613455" style="fill: #8dd3c7; stroke: #8dd3c7; stroke-linejoin: bevel"/>
     <use xlink:href="#md4dd299a1c" x="488.639794" y="40.613455" style="fill: #8dd3c7; stroke: #8dd3c7; stroke-linejoin: bevel"/>
     <use xlink:href="#md4dd299a1c" x="493.425386" y="40.613455" style="fill: #8dd3c7; stroke: #8dd3c7; stroke-linejoin: bevel"/>
     <use xlink:href="#md4dd299a1c" x="498.210978" y="35.010375" style="fill: #8dd3c7; stroke: #8dd3c7; stroke-linejoin: bevel"/>
     <use xlink:href="#md4dd299a1c" x="502.996569" y="21.454999" style="fill: #8dd3c7; stroke: #8dd3c7; stroke-linejoin: bevel"/>
     <use xlink:href="#md4dd299a1c" x="507.782161" y="64.203263" style="fill: #8dd3c7; stroke: #8dd3c7; stroke-linejoin: bevel"/>
     <use xlink:href="#md4dd299a1c" x="512.567753" y="26.740631" style="fill: #8dd3c7; stroke: #8dd3c7; stroke-linejoin: bevel"/>
     <use xlink:href="#md4dd299a1c" x="517.353345" y="62.386504" style="fill: #8dd3c7; stroke: #8dd3c7; stroke-linejoin: bevel"/>
     <use xlink:href="#md4dd299a1c" x="522.138937" y="74.661313" style="fill: #8dd3c7; stroke: #8dd3c7; stroke-linejoin: bevel"/>
     <use xlink:href="#md4dd299a1c" x="526.924528" y="21.454999" style="fill: #8dd3c7; stroke: #8dd3c7; stroke-linejoin: bevel"/>
     <use xlink:href="#md4dd299a1c" x="531.71012" y="86.57578" style="fill: #8dd3c7; stroke: #8dd3c7; stroke-linejoin: bevel"/>
     <use xlink:href="#md4dd299a1c" x="536.495712" y="86.57578" style="fill: #8dd3c7; stroke: #8dd3c7; stroke-linejoin: bevel"/>
     <use xlink:href="#md4dd299a1c" x="541.281304" y="68.035253" style="fill: #8dd3c7; stroke: #8dd3c7; stroke-linejoin: bevel"/>
     <use xlink:href="#md4dd299a1c" x="546.066895" y="21.454999" style="fill: #8dd3c7; stroke: #8dd3c7; stroke-linejoin: bevel"/>
     <use xlink:href="#md4dd299a1c" x="550.852487" y="21.454999" style="fill: #8dd3c7; stroke: #8dd3c7; stroke-linejoin: bevel"/>
     <use xlink:href="#md4dd299a1c" x="555.638079" y="21.454999" style="fill: #8dd3c7; stroke: #8dd3c7; stroke-linejoin: bevel"/>
     <use xlink:href="#md4dd299a1c" x="560.423671" y="21.454999" style="fill: #8dd3c7; stroke: #8dd3c7; stroke-linejoin: bevel"/>
     <use xlink:href="#md4dd299a1c" x="565.209262" y="21.454999" style="fill: #8dd3c7; stroke: #8dd3c7; stroke-linejoin: bevel"/>
     <use xlink:href="#md4dd299a1c" x="569.994854" y="21.454999" style="fill: #8dd3c7; stroke: #8dd3c7; stroke-linejoin: bevel"/>
     <use xlink:href="#md4dd299a1c" x="574.780446" y="21.454999" style="fill: #8dd3c7; stroke: #8dd3c7; stroke-linejoin: bevel"/>
     <use xlink:href="#md4dd299a1c" x="579.566038" y="76.63621" style="fill: #8dd3c7; stroke: #8dd3c7; stroke-linejoin: bevel"/>
     <use xlink:href="#md4dd299a1c" x="584.35163" y="21.454999" style="fill: #8dd3c7; stroke: #8dd3c7; stroke-linejoin: bevel"/>
     <use xlink:href="#md4dd299a1c" x="589.137221" y="21.454999" style="fill: #8dd3c7; stroke: #8dd3c7; stroke-linejoin: bevel"/>
     <use xlink:href="#md4dd299a1c" x="593.922813" y="21.454999" style="fill: #8dd3c7; stroke: #8dd3c7; stroke-linejoin: bevel"/>
     <use xlink:href="#md4dd299a1c" x="598.708405" y="26.848616" style="fill: #8dd3c7; stroke: #8dd3c7; stroke-linejoin: bevel"/>
     <use xlink:href="#md4dd299a1c" x="603.493997" y="76.093935" style="fill: #8dd3c7; stroke: #8dd3c7; stroke-linejoin: bevel"/>
     <use xlink:href="#md4dd299a1c" x="608.279588" y="58.584711" style="fill: #8dd3c7; stroke: #8dd3c7; stroke-linejoin: bevel"/>
     <use xlink:href="#md4dd299a1c" x="613.06518" y="70.875527" style="fill: #8dd3c7; stroke: #8dd3c7; stroke-linejoin: bevel"/>
     <use xlink:href="#md4dd299a1c" x="617.850772" y="21.454999" style="fill: #8dd3c7; stroke: #8dd3c7; stroke-linejoin: bevel"/>
     <use xlink:href="#md4dd299a1c" x="622.636364" y="86.587518" style="fill: #8dd3c7; stroke: #8dd3c7; stroke-linejoin: bevel"/>
    </g>
   </g>
   <g id="patch_3">
    <path d="M 90 128.16 
L 90 17.28 
" style="fill: none; stroke: #ffffff; stroke-width: 0.8; stroke-linejoin: miter; stroke-linecap: square"/>
   </g>
   <g id="patch_4">
    <path d="M 648 128.16 
L 648 17.28 
" style="fill: none; stroke: #ffffff; stroke-width: 0.8; stroke-linejoin: miter; stroke-linecap: square"/>
   </g>
   <g id="patch_5">
    <path d="M 90 128.16 
L 648 128.16 
" style="fill: none; stroke: #ffffff; stroke-width: 0.8; stroke-linejoin: miter; stroke-linecap: square"/>
   </g>
   <g id="patch_6">
    <path d="M 90 17.28 
L 648 17.28 
" style="fill: none; stroke: #ffffff; stroke-width: 0.8; stroke-linejoin: miter; stroke-linecap: square"/>
   </g>
   <g id="text_14">
    <!-- Vosk confidence -->
    <g style="fill: #ffffff" transform="translate(320.33625 11.28) scale(0.12 -0.12)">
     <defs>
      <path id="DejaVuSans-56" d="M 1831 0 
L 50 4666 
L 709 4666 
L 2188 738 
L 3669 4666 
L 4325 4666 
L 2547 0 
L 1831 0 
z
" transform="scale(0.015625)"/>
      <path id="DejaVuSans-73" d="M 2834 3397 
L 2834 2853 
Q 2591 2978 2328 3040 
Q 2066 3103 1784 3103 
Q 1356 3103 1142 2972 
Q 928 2841 928 2578 
Q 928 2378 1081 2264 
Q 1234 2150 1697 2047 
L 1894 2003 
Q 2506 1872 2764 1633 
Q 3022 1394 3022 966 
Q 3022 478 2636 193 
Q 2250 -91 1575 -91 
Q 1294 -91 989 -36 
Q 684 19 347 128 
L 347 722 
Q 666 556 975 473 
Q 1284 391 1588 391 
Q 1994 391 2212 530 
Q 2431 669 2431 922 
Q 2431 1156 2273 1281 
Q 2116 1406 1581 1522 
L 1381 1569 
Q 847 1681 609 1914 
Q 372 2147 372 2553 
Q 372 3047 722 3315 
Q 1072 3584 1716 3584 
Q 2034 3584 2315 3537 
Q 2597 3491 2834 3397 
z
" transform="scale(0.015625)"/>
      <path id="DejaVuSans-6b" d="M 581 4863 
L 1159 4863 
L 1159 1991 
L 2875 3500 
L 3609 3500 
L 1753 1863 
L 3688 0 
L 2938 0 
L 1159 1709 
L 1159 0 
L 581 0 
L 581 4863 
z
" transform="scale(0.015625)"/>
      <path id="DejaVuSans-20" transform="scale(0.015625)"/>
     </defs>
     <use xlink:href="#DejaVuSans-56"/>
     <use xlink:href="#DejaVuSans-6f" x="60.658203"/>
     <use xlink:href="#DejaVuSans-73" x="121.839844"/>
     <use xlink:href="#DejaVuSans-6b" x="173.939453"/>
     <use xlink:href="#DejaVuSans-20" x="231.849609"/>
     <use xlink:href="#DejaVuSans-63" x="263.636719"/>
     <use xlink:href="#DejaVuSans-6f" x="318.617188"/>
     <use xlink:href="#DejaVuSans-6e" x="379.798828"/>
     <use xlink:href="#DejaVuSans-66" x="443.177734"/>
     <use xlink:href="#DejaVuSans-69" x="478.382812"/>
     <use xlink:href="#DejaVuSans-64" x="506.166016"/>
     <use xlink:href="#DejaVuSans-65" x="569.642578"/>
     <use xlink:href="#DejaVuSans-6e" x="631.166016"/>
     <use xlink:href="#DejaVuSans-63" x="694.544922"/>
     <use xlink:href="#DejaVuSans-65" x="749.525391"/>
    </g>
   </g>
  </g>
 </g>
 <defs>
  <clipPath id="p68b1b4defb">
   <rect x="90" y="17.28" width="558" height="110.88"/>
  </clipPath>
 </defs>
</svg>
